<?xml version="1.0" encoding="utf-8"?>
<!-- Generator: Adobe Illustrator 16.0.0, SVG Export Plug-In . SVG Version: 6.00 Build 0)  -->
<!DOCTYPE svg PUBLIC "-//W3C//DTD SVG 1.1//EN" "http://www.w3.org/Graphics/SVG/1.1/DTD/svg11.dtd">
<svg version="1.1" xmlns="http://www.w3.org/2000/svg" xmlns:xlink="http://www.w3.org/1999/xlink" x="0px" y="0px"
	 width="2834.646px" height="1417.322px" viewBox="0 0 2834.646 1417.322" enable-background="new 0 0 2834.646 1417.322"
	 xml:space="preserve">
<g id="profiles">
	<polyline fill="none" stroke="#0000FF" stroke-width="1" stroke-miterlimit="10" points="2769.502,994.146 2772.271,993.752 
		2776.473,992.929 2776.473,990.649 2776.473,990.301 2776.473,989.979 2776.473,989.519 2776.473,989.332 2776.473,988.138 
		2776.473,987.896 2776.473,720.248 2776.473,606.152 2776.473,603.465 2776.473,602.386 2776.473,593.978 2776.473,592.919 
		2776.473,575.956 2767.396,575.956 2609.794,575.956 2609.794,582.007 2609.794,687.073 2604.955,687.073 2520.901,687.073 
		2520.901,681.023 2520.901,575.956 2518.633,575.956 2479.231,575.956 2479.231,582.007 2479.231,687.073 467.195,687.073 
		351.319,687.073 351.319,681.023 351.319,575.956 349.051,575.956 309.651,575.956 309.651,582.007 309.651,687.073 
		304.811,687.073 220.756,687.073 220.756,681.023 220.756,575.956 211.68,575.956 54.079,575.956 54.079,613.145 54.079,617.344 
		54.079,620.205 54.079,623.524 54.079,627.249 54.079,631.332 54.079,635.698 54.079,652.257 54.079,668.524 54.079,902.317 
		54.079,902.863 54.079,903.474 54.079,904.146 54.079,905.591 54.079,905.757 54.079,905.927 54.079,906.094 54.079,906.259 
		54.079,906.658 54.079,907.129 54.079,907.621 57.419,907.501 59.111,907.346 73.365,905.4 95.419,902.383 106.137,899.896 
		122.74,896.077 133.959,892.771 151.345,887.669 164.824,883.045 185.708,875.813 199.699,870.512 221.37,862.057 231.266,858.021 
		246.592,851.491 260.463,845.338 281.948,835.319 301.634,825.51 332.169,809.697 341.249,804.979 355.361,797.526 
		364.437,793.057 378.552,786.126 386.816,782.577 399.676,777.193 408.059,774.364 421.097,770.201 429.607,768.293 
		442.836,765.638 451.435,764.786 464.791,763.821 474.973,764.229 490.786,765.312 500.634,767.171 515.939,770.506 
		524.554,773.375 537.974,778.229 545.317,781.722 556.795,787.506 563.351,791.633 573.646,798.392 580.129,803.691 
		590.372,812.314 595.969,818.166 604.863,827.653 614.11,840.772 628.935,862.024 636.14,876.278 647.819,899.412 651.081,907.416 
		656.433,920.455 660.359,930.807 666.87,947.725 670.519,955.959 676.587,969.487 679.746,974.697 684.975,983.303 
		688.786,987.761 695.069,995.163 699.578,998.748 707,1004.74 712.081,1007.374 720.454,1011.813 725.88,1013.446 734.85,1016.236 
		740.311,1016.868 749.383,1017.992 754.597,1017.672 763.314,1017.191 768.05,1016.011 776.025,1014.053 778.877,1012.833 
		783.716,1010.775 786.272,1009.271 790.637,1006.706 793.651,1004.271 798.824,1000.09 801.927,996.558 807.284,990.442 
		809.864,986.398 814.361,979.337 816.811,974.326 821.12,965.504 823.262,960.292 827.062,951.03 831.031,941.482 838.129,924.299 
		841.021,918.761 846.242,908.612 847.802,906.105 850.645,901.456 853.99,896.891 860.12,888.354 867.424,880.639 881.022,865.979 
		890.503,858.043 908.576,842.685 917.401,836.436 934.529,824.189 943.842,818.633 962.11,807.663 965.438,805.935 
		972.036,802.495 978.406,799.548 991.107,793.646 994.127,792.398 1000.209,789.878 1011.165,786.019 1033.521,778.11 
		1044.831,774.973 1068.523,768.329 1080.262,765.747 1105.359,760.143 1117.859,758.055 1144.862,753.481 1155.765,752.184 
		1179.376,749.34 1187.972,748.638 1206.566,747.091 1219.877,746.425 1235.517,745.644 1256.292,745.378 1275.605,745.187 
		1289.534,745.814 1318.058,746.949 1330.733,748.351 1356.479,751.03 1368.739,753.417 1393.415,758.049 1399.751,759.833 
		1412.385,763.303 1418.332,765.446 1430.124,769.617 1439.949,774.594 1459.316,784.27 1467.597,790.729 1483.789,803.199 
		1490.184,810.71 1502.627,825.043 1506.514,831.292 1514.054,843.071 1518.372,851.818 1526.708,868.092 1530.622,877.289 
		1538.03,894.067 1541.766,903.207 1548.586,919.494 1551.557,926.664 1556.774,939.144 1561.181,949.304 1568.645,966.616 
		1572.969,975.802 1580.046,991.104 1584.208,999.025 1590.868,1012.013 1596.006,1020.394 1604.108,1033.983 1611.241,1042.993 
		1622.395,1057.5 1625.958,1060.882 1631.499,1066.322 1635.164,1069.074 1640.86,1073.517 1644.029,1075.339 1648.949,1078.304 
		1652.16,1079.657 1657.142,1081.885 1660.301,1082.758 1665.201,1084.226 1668.372,1084.672 1673.288,1085.465 1676.46,1085.499 
		1681.372,1085.639 1684.139,1085.35 1688.418,1084.967 1691.291,1084.371 1695.737,1083.501 1698.708,1082.572 1703.304,1081.177 
		1706.364,1079.895 1711.093,1077.937 1714.714,1075.999 1720.29,1073.021 1724.009,1070.569 1729.709,1066.783 1733.385,1063.912 
		1738.987,1059.479 1742.722,1056.118 1748.387,1050.937 1755.693,1043.143 1766.717,1031.174 1773.736,1022.271 1784.312,1008.709 
		1788.754,1002.419 1795.493,992.9 1801.751,983.288 1811.385,968.833 1819.08,956.225 1831.217,937.408 1836.847,928.263 
		1845.879,914.699 1852.002,905.508 1861.862,891.943 1866.21,886.105 1873.196,877.532 1881.733,867.791 1895.384,853.597 
		1900.301,848.913 1908.127,842.154 1913.535,837.674 1922.108,831.262 1928.038,827.047 1937.398,821.071 1943.875,817.178 
		1954.049,811.723 1968.725,805.101 1991.554,796.018 2003.035,792.462 2020.659,787.759 2033.261,785.075 2052.364,781.699 
		2065.994,779.89 2086.392,777.823 2100.874,776.879 2122.279,776.097 2144.397,776.246 2176.686,777.355 2198.235,779.339 
		2229.469,783.157 2238.69,784.696 2252.085,787.397 2260.64,789.326 2273.135,792.618 2284.647,796.213 2301.63,802.228 
		2317.566,809.292 2341.314,820.895 2355.701,828.648 2377.07,841.265 2386.436,847.271 2400.341,856.968 2405.786,860.868 
		2413.871,867.089 2421.479,872.911 2432.799,882.059 2442.287,889.669 2456.544,901.383 2463.177,906.798 2473.312,914.992 
		2479.96,920.378 2490.303,928.425 2496.111,932.967 2505.303,939.666 2511.194,943.962 2520.642,950.221 2527.644,954.753 
		2538.982,961.261 2546.333,965.246 2558.271,970.856 2566.033,974.238 2578.612,978.876 2586.763,981.655 2599.894,985.328 
		2614.45,988.789 2637.621,993.016 2645.049,994.213 2656.706,995.475 2664.135,996.365 2675.675,997.136 2684.809,997.852 
		2698.806,998.188 2707.81,998.511 2721.389,998.214 2730.226,998.162 2743.329,997.274 2754.907,996.563 2764.562,995.074 
		2769.502,994.146 	"/>
	<polyline fill="none" stroke="#0000FF" stroke-width="1" stroke-miterlimit="10" points="2770.237,273.612 2770.237,259.453 
		2770.237,32.778 2648.941,32.778 2603.56,32.778 2603.56,113.643 2603.56,143.897 2538.869,143.897 2514.666,143.897 
		2514.666,63.034 2514.666,32.778 2484.341,32.778 2472.995,32.778 2472.995,113.643 2472.996,143.897 1893.614,143.897 
		345.084,143.897 345.084,63.034 345.084,32.778 314.761,32.778 303.415,32.778 303.415,113.643 303.415,143.897 238.725,143.897 
		214.521,143.897 214.521,63.034 214.521,32.778 93.226,32.778 47.843,32.778 47.843,148.533 47.843,153.354 47.843,302.392 
		47.843,317.928 51.405,318.198 57.101,318.523 59.949,318.776 62.792,319.071 84.373,322.332 92.357,323.374 103.51,325.34 
		107.659,325.996 119.027,328.186 123.271,328.932 134.822,331.346 139.147,332.183 150.833,334.812 155.219,335.738 
		166.975,338.577 171.4,339.584 183.144,342.617 187.576,343.703 199.218,346.913 203.624,348.069 215.072,351.432 219.415,352.649 
		241.416,359.729 249.797,362.312 270.315,369.655 278.183,372.353 297.415,379.688 304.83,382.394 316.271,386.754 
		320.696,388.371 342.235,396.089 350.569,398.962 364.806,403.586 370.307,405.318 379.312,408.092 382.788,409.135 
		400.51,414.492 407.345,416.51 423.114,421.492 429.2,423.372 443.604,428.454 449.18,430.37 462.146,435.519 467.18,437.456 
		479.249,442.467 483.932,444.352 496.067,448.915 500.746,450.636 511.562,453.859 515.69,455.08 527.346,457.576 531.749,458.529 
		544.138,460.21 548.775,460.864 561.556,461.697 566.301,462.04 578.99,462.05 583.665,462.088 595.821,461.337 600.267,461.097 
		611.513,459.67 615.589,459.179 627.683,456.896 629.395,456.478 631.464,455.951 646.461,451.321 656.662,446.823 
		663.924,443.569 673.062,438.003 679.531,433.983 692.377,424.088 701.42,416.956 715.405,404.365 725.208,395.321 739.435,380.65 
		749.351,370.147 757.24,361.339 762.716,355.052 766.331,351.011 768.837,348.13 775.701,340.765 780.457,335.526 793.282,323.602 
		802.187,315.149 820.749,301.743 833.707,292.297 839.131,288.987 842.933,286.666 856.903,279.092 866.727,273.806 
		879.756,267.895 888.956,263.799 902.619,258.759 912.31,255.304 935.026,249.029 944.396,246.694 950.341,245.37 955.475,244.489 
		957.646,244.122 969.171,242.312 970.972,242.072 980.506,240.891 982.504,240.69 993.072,239.686 995.591,239.515 
		1008.907,238.661 1011.641,238.575 1026.098,238.111 1028.113,238.104 1038.786,238.033 1041.766,238.106 1057.547,238.368 
		1062.174,238.669 1086.751,239.925 1089.051,240.169 1101.319,241.255 1103.691,241.598 1116.394,243.161 1118.581,243.578 
		1130.335,245.544 1132.543,246.09 1144.438,248.729 1146.639,249.426 1158.539,252.879 1160.704,253.748 1172.443,258.129 
		1174.935,259.402 1188.482,265.915 1190.834,267.441 1203.675,275.352 1205.718,276.982 1216.89,285.498 1218.645,287.169 
		1228.258,295.932 1229.856,297.712 1238.629,307.061 1240.266,309.169 1249.229,320.256 1250.707,322.432 1258.801,333.864 
		1261.512,338.376 1276.397,362.047 1279.183,366.58 1294.668,390.331 1296.422,392.743 1306.292,405.37 1308.98,408.354 
		1324.213,423.927 1326.87,426.207 1341.927,438.037 1343.962,439.454 1355.442,446.773 1357.518,447.994 1369.153,454.267 
		1371.211,455.285 1382.646,460.499 1384.644,461.312 1395.623,465.476 1397.53,466.086 1407.916,469.216 1409.738,469.627 
		1419.572,471.748 1421.331,471.962 1430.766,473.105 1432.49,473.128 1441.716,473.327 1442.868,473.239 1449.045,472.868 
		1450.193,472.699 1456.364,471.943 1457.918,471.597 1466.317,469.989 1468.239,469.38 1478.705,466.522 1480.662,465.707 
		1491.411,461.849 1493.647,460.675 1506.006,455.109 1508.21,453.692 1520.459,446.949 1524.381,443.767 1546.181,428.582 
		1548.493,426.329 1561.27,415.63 1562.35,414.508 1568.278,409.204 1570.328,407.024 1581.473,396.782 1585.323,392.861 
		1605.796,374.759 1610.583,370.754 1635.113,352.859 1639.894,349.692 1663.487,335.989 1669.009,332.913 1695.37,319.888 
		1697.451,318.837 1707.165,314.43 1711.237,312.512 1729.98,304.526 1731.943,303.665 1740.846,300.112 1747.997,297.343 
		1779.855,286.032 1787.226,283.815 1819.142,274.954 1826.823,273.288 1859.116,266.74 1867.39,265.494 1901.012,260.551 
		1908.23,259.775 1936.595,256.556 1942.181,256.123 1963.577,254.181 1979.822,253.062 1990.896,252.524 2019.217,251.352 
		2027.018,251.148 2028.814,251.116 2032.389,251.208 2069.537,251.74 2072.823,251.992 2106.576,254.137 2109.848,254.49 
		2143.272,257.559 2145.055,257.766 2163.237,259.522 2165.011,259.733 2183.147,261.509 2186.407,262.011 2219.944,266.359 
		2223.19,267.286 2256.871,275.828 2259.911,277.293 2291.78,291.326 2293.991,292.701 2317.415,306.105 2320.21,308.172 
		2350.151,328.642 2352.684,331.066 2380.239,355.641 2382.271,358.185 2404.821,384.57 2406.1,386.433 2420.58,406.138 
		2422.056,408.442 2439.058,433.235 2440.201,435.09 2453.604,455.492 2454.549,457.052 2465.76,474.627 2466.806,476.302 
		2479.331,495.606 2480.631,497.373 2496.356,518.315 2496.939,518.922 2504.113,526.347 2504.668,526.795 2511.547,532.37 
		2511.987,532.633 2517.49,535.979 2517.9,536.148 2523.024,538.367 2523.389,538.457 2527.953,539.703 2528.28,539.737 
		2532.356,540.291 2532.644,540.285 2536.182,540.352 2536.409,540.327 2539.208,540.138 2539.436,540.098 2542.268,539.711 
		2542.497,539.655 2545.356,539.071 2545.586,539 2548.474,538.224 2548.736,538.128 2552.084,537 2552.345,536.888 
		2555.717,535.519 2555.967,535.395 2559.243,533.854 2559.49,533.718 2562.777,531.97 2563.247,531.676 2569.614,527.771 
		2570.052,527.457 2576.2,523.097 2576.473,522.886 2580.442,519.799 2580.828,519.484 2586.581,514.685 2587.051,514.282 
		2594.296,507.776 2594.614,507.495 2599.739,502.645 2600.044,502.375 2605.104,497.437 2605.289,497.272 2608.478,494.108 
		2608.782,493.84 2614.141,488.469 2614.284,488.345 2616.936,485.681 2617.076,485.562 2619.71,482.92 2619.847,482.81 
		2622.465,480.2 2622.597,480.095 2625.197,477.522 2625.454,477.329 2630.606,472.32 2630.772,472.203 2634.291,468.867 
		2634.446,468.764 2637.938,465.527 2638.086,465.438 2641.553,462.302 2641.688,462.222 2645.124,459.184 2645.306,459.083 
		2650.297,454.778 2650.453,454.693 2655.364,450.55 2655.425,450.52 2657.672,448.649 2657.728,448.62 2659.965,446.775 
		2660.042,446.737 2663.404,444.004 2663.511,443.952 2668.885,439.71 2668.969,439.672 2674.459,435.509 2674.508,435.49 
		2678.812,432.322 2678.833,432.312 2681.581,430.32 2681.602,430.311 2685.54,427.479 2685.552,427.474 2689.118,424.936 
		2690.453,423.988 2690.459,423.982 2693.898,421.563 2693.912,421.552 2697.407,419.119 2697.43,419.098 2700.521,416.964 
		2700.551,416.94 2703.688,414.785 2703.726,414.755 2707.404,412.241 2707.456,412.195 2711.197,409.645 2711.261,409.589 
		2715.068,406.995 2715.142,406.93 2719.02,404.293 2719.106,404.22 2725.902,399.616 2726.083,399.464 2729.576,397.113 
		2729.677,397.028 2733.235,394.646 2733.346,394.556 2737.843,391.562 2737.992,391.438 2742.588,388.4 2742.755,388.265 
		2747.45,385.181 2747.633,385.033 2747.78,384.911 2753.404,382.013 2759.91,376.689 2761.042,375.896 2768.556,371.786 
		2769.317,371.401 2770.237,371.028 2770.237,367.887 2770.237,367.165 2770.237,364.513 2770.237,363.562 2770.237,363.037 
		2770.237,359.825 2770.237,273.612 	"/>
	<polyline fill="none" stroke="#0000FF" stroke-width="1" stroke-miterlimit="10" points="2479.23,1383.081 2479.85,1383.081 
		2609.794,1383.081 2612.27,1383.081 2776.472,1383.081 2776.472,1372.938 2776.472,1371.794 2776.472,1371.013 2776.472,1370.107 
		2776.472,1369.093 2776.472,1367.979 2776.472,1366.788 2776.472,1362.271 2776.472,1357.835 2776.472,1051.634 2776.472,1051.485 
		2776.472,1051.318 2776.472,1051.135 2776.472,1050.176 2759.955,1050.694 2748.663,1050.694 2721.613,1054.309 2709.642,1056.069 
		2689.229,1060.771 2676.586,1064.07 2655.162,1070.333 2641.885,1074.722 2616.071,1083.446 2602.306,1088.522 2575.421,1098.446 
		2561.48,1104.183 2542.416,1111.693 2515.623,1123.136 2477.484,1141.564 2450.113,1154.821 2432.489,1163.827 2414.847,1172.473 
		2407.986,1175.513 2391.89,1182.487 2384.906,1184.985 2368.554,1190.654 2361.418,1192.395 2344.785,1196.347 2327.942,1198.288 
		2320.693,1199.118 2313.434,1198.982 2293.454,1198.552 2286.365,1197.479 2267.009,1194.215 2260.287,1192.299 2243.329,1187.02 
		2237.151,1184.386 2222.685,1177.84 2217.159,1174.605 2204.239,1166.798 2199.375,1163.058 2186.595,1152.965 2182.32,1148.776 
		2171.289,1137.583 2167.499,1132.993 2149.257,1107.77 2142.778,1097.549 2128.542,1070.015 2123.327,1058.859 2116.883,1043.354 
		2109.126,1023.26 2104.453,1012.166 2097.248,996.161 2094.394,991.139 2088.144,981.004 2084.436,976.676 2076.881,968.007 
		2067.923,961.042 2063.16,957.688 2053.048,952.585 2047.347,950.475 2036.54,947.335 2030.375,946.694 2019.5,945.521 
		2009.112,946.212 2006.065,946.491 2003.151,947.18 1993.728,949.565 1991.02,950.66 1985.347,953.097 1980.263,956.094 
		1977.816,957.571 1971.826,962.408 1969.667,964.24 1967.793,966.384 1961.627,973.392 1956.484,981.433 1953.482,986.403 
		1948.589,996.387 1946.223,1001.846 1941.927,1012.266 1933.885,1031.478 1929.138,1041.997 1923.212,1053.212 1919.984,1058.322 
		1916.954,1062.914 1910.009,1072.241 1906.433,1076.389 1891.126,1092.291 1882.677,1099.748 1862.507,1116.387 1852.826,1123.165 
		1833.658,1136.58 1812.894,1148.838 1802.239,1154.626 1794.699,1158.498 1780.128,1165.175 1773.151,1168.026 1761.626,1172.534 
		1736.191,1181.375 1724.049,1184.759 1697.534,1191.979 1669.685,1197.963 1656.885,1200.537 1626.903,1205.43 1620.009,1206.471 
		1612.609,1207.338 1586.201,1210.409 1578.224,1211.068 1557.289,1212.728 1548.708,1213.126 1526.198,1214.209 1495.514,1214.339 
		1484.753,1214.383 1473.633,1213.844 1441.017,1212.263 1429.992,1210.999 1400.551,1207.636 1372.406,1202.064 1361.964,1199.947 
		1347.567,1195.855 1338.262,1192.823 1324.844,1187.96 1317.029,1184.019 1295.101,1172.896 1288.881,1168.14 1270.758,1154.004 
		1265.987,1148.633 1252.324,1132.557 1248.674,1126.794 1240.567,1113.673 1231.779,1095.677 1228.815,1089.661 1221.005,1071.109 
		1215.686,1058.454 1208.28,1040.267 1202.428,1026.198 1196.27,1011.948 1187.585,992.142 1179.131,974.475 1171.269,959.497 
		1163.181,944.392 1153.33,928.621 1148.756,922.054 1135.301,905.387 1130.393,900.188 1123.775,894.04 1117.039,889.109 
		1111.901,885.634 1106.122,882.412 1103.51,881.354 1097.691,879.001 1092.01,877.523 1089.381,876.907 1083.707,876.197 
		1081.076,876.004 1075.428,876.024 1072.805,876.235 1067.905,876.817 1065.298,877.412 1060.235,878.538 1057.646,879.505 
		1052.431,881.214 1047.076,883.541 1041.951,886.531 1035.629,890.011 1029.149,894.389 1024.111,898.678 1017.712,903.782 
		1011.211,909.741 1006.321,915.127 993.616,928.934 988.986,935.121 976.857,950.892 969.262,962.045 961.165,975.552 
		950.623,992.635 937.965,1015.089 931.147,1028.671 922.042,1044.988 914.747,1058.151 904.875,1074.578 897.844,1085.034 
		893.362,1091.358 879.479,1108.882 874.198,1114.861 866.151,1123.335 857.271,1131.479 851.08,1136.937 841.299,1144.648 
		834.116,1149.412 823.381,1156.584 798.847,1168.965 790.603,1172.919 771.195,1179.724 761.849,1182.811 740.339,1188.107 
		729.921,1190.321 706.428,1194.089 695.097,1195.451 669.907,1197.696 658.001,1198.24 619.194,1198.818 607.275,1198.567 
		569.284,1195.91 558.066,1194.877 541.84,1192.559 531.935,1190.768 516.941,1187.772 496.909,1182.066 488.53,1179.578 
		481.163,1176.523 453.647,1165.079 446.641,1161.712 421.761,1149.012 415.55,1145.586 399.366,1135.665 388.807,1128.381 
		379.399,1121.863 366.266,1112.004 355.929,1103.448 339.631,1090.35 328.349,1080.902 317.169,1071.402 306.858,1062.196 
		297.199,1054.109 286.632,1045.72 276.922,1037.998 265.439,1029.757 259.61,1026.256 247.571,1018.9 241.232,1015.946 
		228.478,1009.578 215.001,1004.206 208.191,1001.778 201.018,999.814 176.696,992.756 161.686,989.977 149.139,987.323 
		136.478,985.172 120.761,983.136 105.093,981.742 89.535,980.95 74.006,979.493 58.454,979.178 55.053,979.765 54.078,979.855 
		54.078,980.008 54.078,980.016 54.078,1343.728 54.078,1374.845 54.078,1375.578 54.078,1375.873 54.078,1378.166 54.078,1378.455 
		54.078,1383.081 288.114,1383.081 310.269,1383.081 351.319,1383.081 2479.23,1383.081 	"/>
</g>
<g id="follow_x5F_paths">
	<polyline fill="none" stroke="#DB2526" stroke-width="1" stroke-miterlimit="10" points="2691.876,1176.863 2679.231,1178.185 
		2657.808,1180.689 2644.53,1182.445 2618.717,1185.935 2604.951,1187.965 2578.066,1191.936 2564.126,1194.229 2545.062,1197.233 
		2518.269,1201.81 2480.129,1209.182 2452.759,1214.484 2435.135,1218.087 2417.491,1221.546 2410.633,1222.761 2394.536,1225.551 
		2387.552,1226.55 2371.2,1228.817 2364.064,1229.514 2347.431,1231.095 2330.587,1231.871 2323.339,1232.203 2316.081,1232.149 
		2296.1,1231.978 2289.011,1231.547 2269.653,1230.241 2262.933,1229.476 2245.974,1227.364 2239.799,1226.31 2225.331,1223.691 
		2219.805,1222.397 2206.885,1219.275 2202.021,1217.778 2189.239,1213.742 2184.967,1212.067 2173.934,1207.589 2170.144,1205.753 
		2151.902,1195.664 2145.425,1191.575 2131.188,1180.562 2125.972,1176.1 2119.527,1169.897 2111.771,1161.859 2107.1,1157.423 
		2099.893,1151.021 2097.039,1149.012 2090.79,1144.957 2087.082,1143.226 2079.527,1139.759 2070.567,1136.973 2065.806,1135.631 
		2055.693,1133.591 2049.991,1132.745 2039.186,1131.49 2033.021,1131.233 2022.146,1130.764 2011.759,1131.041 2008.71,1131.152 
		2005.798,1131.428 1996.373,1132.382 1993.664,1132.819 1987.993,1133.795 1982.909,1134.993 1980.46,1135.585 1974.472,1137.52 
		1972.313,1138.251 1970.439,1139.108 1964.272,1141.913 1959.131,1145.129 1956.128,1147.117 1951.235,1151.11 1948.868,1153.294 
		1944.572,1157.463 1936.529,1165.146 1931.783,1169.354 1925.856,1173.841 1922.63,1175.885 1919.6,1177.722 1912.653,1181.452 
		1909.078,1183.111 1893.771,1189.472 1885.322,1192.456 1865.152,1199.111 1855.471,1201.821 1836.304,1207.188 1815.54,1212.091 
		1804.885,1214.406 1797.345,1215.955 1782.773,1218.626 1775.796,1219.767 1764.271,1221.569 1738.838,1225.105 1726.694,1226.459 
		1700.18,1229.348 1672.33,1231.741 1659.53,1232.771 1629.549,1234.728 1622.654,1235.145 1615.254,1235.491 1588.848,1236.721 
		1580.87,1236.982 1559.934,1237.646 1551.354,1237.806 1528.844,1238.24 1498.159,1238.292 1487.398,1238.309 1476.278,1238.093 
		1443.662,1237.461 1432.638,1236.956 1403.197,1235.61 1375.053,1233.382 1364.609,1232.534 1350.214,1230.897 1340.908,1229.686 
		1327.488,1227.739 1319.676,1226.163 1297.746,1221.714 1291.527,1219.812 1273.402,1214.157 1268.634,1212.01 1254.97,1205.578 
		1251.319,1203.274 1243.212,1198.025 1234.426,1190.827 1231.461,1188.421 1223.65,1181 1218.331,1175.938 1210.928,1168.662 
		1205.071,1163.034 1198.915,1157.335 1190.23,1149.412 1181.775,1142.346 1173.912,1136.354 1165.826,1130.312 1155.975,1124.005 
		1151.402,1121.377 1137.946,1114.71 1133.039,1112.632 1126.421,1110.172 1119.685,1108.199 1114.547,1106.809 1108.769,1105.521 
		1106.153,1105.098 1100.339,1104.156 1094.656,1103.564 1092.026,1103.318 1086.353,1103.034 1083.721,1102.958 1078.071,1102.966 
		1075.45,1103.05 1070.551,1103.283 1067.943,1103.521 1062.881,1103.971 1060.291,1104.357 1055.076,1105.041 1049.724,1105.973 
		1044.598,1107.169 1038.275,1108.561 1031.793,1110.312 1026.757,1112.026 1020.357,1114.069 1013.854,1116.452 1008.967,1118.607 
		996.262,1124.129 991.632,1126.604 979.501,1132.913 971.907,1137.374 963.811,1142.776 953.268,1149.609 940.61,1158.592 
		933.793,1164.024 924.687,1170.551 917.393,1175.816 907.521,1182.388 900.488,1186.57 896.009,1189.1 882.124,1196.108 
		876.844,1198.5 868.799,1201.89 859.915,1205.147 853.726,1207.33 843.943,1210.415 836.761,1212.32 826.027,1215.189 
		801.492,1220.142 793.249,1221.724 773.842,1224.445 764.492,1225.68 742.985,1227.799 732.567,1228.686 709.074,1230.191 
		697.742,1230.737 672.554,1231.635 660.648,1231.852 621.841,1232.083 609.921,1231.983 571.932,1230.921 560.713,1230.507 
		544.485,1229.579 534.581,1228.863 519.588,1227.665 499.554,1225.383 491.175,1224.387 483.807,1223.165 456.293,1218.588 
		449.286,1217.241 424.407,1212.161 418.195,1210.79 402.013,1206.822 391.452,1203.907 382.045,1201.301 368.91,1197.357 
		358.574,1193.936 342.275,1188.696 330.995,1184.916 319.814,1181.117 309.504,1177.435 299.846,1174.199 289.278,1170.844 
		279.567,1167.755 268.085,1164.459 262.255,1163.058 250.218,1160.115 243.877,1158.935 231.123,1156.387 217.647,1154.237 
		210.837,1153.268 203.664,1152.482 179.344,1149.658 164.333,1148.547 151.784,1147.484 	"/>
	<polyline fill="none" stroke="#DB2526" stroke-width="1" stroke-miterlimit="10" points="148.7,778.876 162.179,777.024 
		183.062,774.133 197.054,772.012 218.725,768.63 228.62,767.016 243.946,764.403 257.817,761.941 279.302,757.936 298.989,754.012 
		329.523,747.686 338.604,745.799 352.717,742.818 361.791,741.03 375.905,738.257 384.169,736.839 397.031,734.685 
		405.412,733.553 418.451,731.888 426.961,731.124 440.191,730.063 448.789,729.723 462.146,729.336 472.326,729.498 
		488.141,729.933 497.987,730.676 513.293,732.01 521.908,733.157 535.328,735.099 542.672,736.496 554.147,738.811 560.704,740.46 
		571,743.164 577.485,745.284 587.727,748.733 593.322,751.074 602.218,754.869 611.465,760.116 626.29,768.617 633.494,774.318 
		645.174,783.572 648.435,786.774 653.787,791.989 657.715,796.13 664.225,802.897 667.875,806.191 673.939,811.603 
		677.101,813.687 682.33,817.128 686.141,818.912 692.425,821.873 696.932,823.307 704.354,825.703 709.435,826.758 
		717.809,828.532 723.235,829.186 732.204,830.303 737.665,830.556 746.738,831.004 751.952,830.877 760.668,830.684 
		765.403,830.212 773.38,829.428 776.231,828.94 781.07,828.118 783.628,827.516 787.991,826.49 791.006,825.516 796.18,823.843 
		799.28,822.43 804.641,819.984 807.218,818.366 811.717,815.542 814.164,813.537 818.475,810.01 820.616,807.925 824.417,804.22 
		828.386,800.401 835.483,793.526 838.376,791.312 843.597,787.253 845.157,786.249 847.999,784.39 851.345,782.564 
		857.476,779.149 864.778,776.062 878.377,770.199 887.857,767.024 905.933,760.882 914.756,758.382 931.883,753.483 
		941.197,751.261 959.465,746.872 962.793,746.182 969.391,744.806 975.761,743.626 988.463,741.267 991.481,740.767 
		997.563,739.758 1008.521,738.215 1030.875,735.051 1042.185,733.797 1065.877,731.139 1077.616,730.106 1102.715,727.864 
		1115.214,727.029 1142.216,725.199 1153.118,724.681 1176.73,723.544 1185.326,723.263 1203.921,722.645 1217.231,722.377 
		1232.871,722.064 1253.646,721.959 1272.96,721.883 1286.889,722.133 1315.413,722.587 1328.089,723.147 1353.834,724.22 
		1366.093,725.175 1390.771,727.027 1397.105,727.74 1409.739,729.129 1415.686,729.986 1427.478,731.653 1437.303,733.645 
		1456.671,737.515 1464.951,740.099 1481.142,745.087 1487.537,748.092 1499.98,753.824 1503.868,756.324 1511.408,761.036 
		1515.726,764.535 1524.062,771.044 1527.976,774.723 1535.385,781.435 1539.119,785.091 1545.939,791.605 1548.91,794.474 
		1554.13,799.465 1558.536,803.528 1565.999,810.454 1570.322,814.129 1577.4,820.25 1581.562,823.418 1588.223,828.612 
		1593.36,831.965 1601.463,837.401 1608.596,841.004 1619.749,846.808 1623.312,848.161 1628.852,850.336 1632.518,851.438 
		1638.215,853.214 1641.385,853.943 1646.303,855.129 1649.514,855.671 1654.497,856.562 1657.655,856.911 1662.556,857.498 
		1665.728,857.677 1670.642,857.993 1673.814,858.007 1678.726,858.063 1681.493,857.947 1685.773,857.794 1688.646,857.556 
		1693.093,857.208 1696.063,856.836 1700.659,856.278 1703.72,855.766 1708.447,854.982 1712.068,854.207 1717.644,853.016 
		1721.363,852.035 1727.063,850.521 1730.738,849.372 1736.341,847.599 1740.075,846.255 1745.739,844.183 1753.049,841.064 
		1764.071,836.276 1771.091,832.716 1781.666,827.291 1786.108,824.774 1792.848,820.968 1799.104,817.122 1808.738,811.34 
		1816.434,806.298 1828.569,798.771 1834.201,795.112 1843.233,789.688 1849.356,786.011 1859.217,780.585 1863.564,778.25 
		1870.551,774.819 1879.088,770.925 1892.737,765.245 1897.656,763.373 1905.48,760.669 1910.89,758.878 1919.463,756.312 
		1925.393,754.626 1934.752,752.235 1941.229,750.679 1951.403,748.496 1966.078,745.848 1988.909,742.215 2000.39,740.791 
		2018.014,738.911 2030.614,737.838 2049.719,736.486 2063.349,735.764 2083.745,734.937 2098.229,734.56 2119.635,734.245 
		2141.752,734.306 2174.039,734.75 2195.591,735.543 2226.823,737.07 2236.044,737.686 2249.439,738.767 2257.993,739.538 
		2270.488,740.854 2282.002,742.292 2298.983,744.698 2314.922,747.524 2338.668,752.165 2353.056,755.268 2374.425,760.313 
		2383.791,762.715 2397.693,766.595 2403.141,768.155 2411.226,770.644 2418.834,772.973 2430.152,776.631 2439.642,779.676 
		2453.897,784.361 2460.531,786.526 2470.667,789.805 2477.314,791.958 2487.656,795.178 2493.467,796.994 2502.658,799.674 
		2508.549,801.393 2517.996,803.896 2525,805.709 2536.336,808.312 2543.686,809.906 2555.627,812.149 2563.388,813.503 
		2575.968,815.357 2584.117,816.47 2597.25,817.938 2611.805,819.323 2634.976,821.014 2642.402,821.492 2654.06,821.997 
		2661.489,822.354 2673.027,822.662 2682.163,822.949 	"/>
	<polyline fill="none" stroke="#DB2526" stroke-width="1" stroke-miterlimit="10" points="134.955,232.773 139.279,233.108 
		150.965,234.161 155.351,234.53 167.107,235.667 171.532,236.069 183.277,237.283 187.709,237.718 199.351,239.001 
		203.756,239.463 215.204,240.809 219.548,241.295 241.548,244.128 249.929,245.16 270.448,248.098 278.315,249.177 
		297.548,252.111 304.963,253.192 316.403,254.938 320.828,255.584 342.367,258.671 350.701,259.821 364.938,261.67 
		370.438,262.363 379.443,263.473 382.921,263.891 400.642,266.032 407.477,266.84 423.246,268.832 429.333,269.585 
		443.737,271.617 449.311,272.383 462.277,274.442 467.311,275.218 479.381,277.222 484.062,277.976 496.2,279.802 500.879,280.49 
		511.694,281.779 515.822,282.268 527.479,283.267 531.882,283.647 544.271,284.319 548.907,284.581 561.688,284.914 
		566.434,285.052 579.122,285.056 583.798,285.071 595.954,284.771 600.398,284.674 611.646,284.104 615.722,283.907 
		627.814,282.994 629.527,282.826 631.596,282.615 646.594,280.765 656.793,278.966 664.055,277.664 673.194,275.437 
		679.663,273.829 692.509,269.871 701.552,267.018 715.538,261.982 725.341,258.364 739.567,252.496 749.482,248.295 
		757.373,244.771 762.847,242.256 766.463,240.641 768.969,239.488 775.834,236.542 780.589,234.446 793.413,229.677 
		802.319,226.295 820.881,220.933 833.839,217.154 839.262,215.83 843.065,214.901 857.036,211.872 866.858,209.758 
		879.888,207.393 889.089,205.755 902.751,203.739 912.442,202.357 935.158,199.848 944.527,198.914 950.473,198.384 
		955.607,198.031 957.778,197.884 969.302,197.16 971.103,197.064 980.638,196.592 982.636,196.512 993.204,196.109 
		995.723,196.042 1009.039,195.7 1011.771,195.665 1026.229,195.479 1028.246,195.478 1038.919,195.449 1041.897,195.478 
		1057.68,195.583 1062.306,195.704 1086.883,196.205 1089.183,196.303 1101.451,196.737 1103.823,196.875 1116.525,197.5 
		1118.713,197.668 1130.468,198.453 1132.675,198.672 1144.571,199.728 1146.771,200.007 1158.671,201.387 1160.836,201.735 
		1172.576,203.487 1175.066,203.996 1188.614,206.603 1190.966,207.212 1203.807,210.377 1205.849,211.028 1217.022,214.435 
		1218.775,215.103 1228.39,218.608 1229.989,219.32 1238.761,223.06 1240.397,223.903 1249.361,228.339 1250.839,229.209 
		1258.934,233.782 1261.643,235.586 1276.529,245.054 1279.314,246.867 1294.801,256.368 1296.555,257.333 1306.424,262.384 
		1309.112,263.577 1324.346,269.807 1327.002,270.718 1342.06,275.451 1344.093,276.018 1355.574,278.944 1357.649,279.434 
		1369.286,281.941 1371.344,282.35 1382.779,284.436 1384.775,284.762 1395.755,286.427 1397.663,286.67 1408.049,287.922 
		1409.87,288.086 1419.704,288.935 1421.463,289.021 1430.898,289.478 1432.622,289.487 1441.848,289.566 1443,289.531 
		1449.177,289.383 1450.325,289.314 1456.496,289.013 1458.052,288.875 1466.449,288.231 1468.371,287.988 1478.837,286.845 
		1480.794,286.519 1491.544,284.976 1493.779,284.506 1506.139,282.278 1508.344,281.712 1520.593,279.016 1524.514,277.742 
		1546.312,271.669 1548.625,270.768 1561.401,266.487 1562.481,266.039 1568.41,263.917 1570.46,263.045 1581.605,258.948 
		1585.455,257.381 1605.927,250.14 1610.715,248.538 1635.246,241.379 1640.026,240.112 1663.62,234.632 1669.142,233.401 
		1695.502,228.191 1697.583,227.771 1707.297,226.007 1711.37,225.239 1730.112,222.046 1732.075,221.701 1740.978,220.28 
		1748.13,219.172 1779.987,214.649 1787.357,213.762 1819.275,210.217 1826.956,209.551 1859.248,206.932 1867.522,206.434 
		1901.144,204.456 1908.362,204.146 1936.726,202.858 1942.312,202.685 1963.709,201.907 1979.954,201.461 1991.027,201.245 
		2019.35,200.776 2027.151,200.695 2028.947,200.683 2032.521,200.719 2069.668,200.931 2072.956,201.032 2106.708,201.89 
		2109.98,202.031 2143.404,203.259 2145.186,203.342 2163.369,204.045 2165.142,204.13 2183.279,204.84 2186.54,205.041 
		2220.076,206.779 2223.323,207.149 2257.002,210.566 2260.044,211.152 2291.913,216.767 2294.123,217.315 2317.547,222.678 
		2320.343,223.505 2350.283,231.692 2352.814,232.662 2380.372,242.492 2382.403,243.51 2404.953,254.063 2406.232,254.809 
		2420.712,262.69 2422.188,263.613 2439.189,273.529 2440.333,274.272 2453.735,282.432 2454.68,283.056 2465.892,290.086 
		2466.938,290.756 2479.463,298.479 2480.763,299.186 2496.488,307.562 2497.071,307.805 2504.245,310.774 2504.801,310.953 
		2511.679,313.184 2512.12,313.288 2517.623,314.626 2518.031,314.695 2523.156,315.582 2523.521,315.618 2528.085,316.117 
		2528.412,316.131 2532.488,316.352 2532.775,316.349 2536.313,316.376 2536.541,316.366 2539.341,316.291 2539.568,316.274 
		2542.398,316.119 2542.629,316.099 2545.488,315.865 2545.719,315.836 2548.605,315.525 2548.869,315.486 2552.217,315.036 
		2552.477,314.99 2555.849,314.442 2556.098,314.393 2559.375,313.776 2559.622,313.723 2562.909,313.024 2563.379,312.905 
		2569.746,311.344 2570.184,311.219 2576.332,309.474 2576.604,309.39 2580.574,308.155 2580.96,308.029 2586.713,306.108 
		2587.182,305.948 2594.429,303.347 2594.746,303.234 2599.872,301.293 2600.177,301.186 2605.236,299.211 2605.421,299.145 
		2608.609,297.878 2608.914,297.771 2614.272,295.624 2614.416,295.574 2617.068,294.508 2617.209,294.46 2619.844,293.403 
		2619.979,293.359 2622.596,292.316 2622.728,292.274 2625.329,291.244 2625.586,291.168 2630.739,289.164 2630.904,289.118 
		2634.424,287.782 2634.579,287.741 2638.071,286.446 2638.219,286.411 2641.685,285.156 2641.82,285.125 2645.257,283.909 
		2645.439,283.869 2650.429,282.146 2650.585,282.113 2655.496,280.456 2655.557,280.443 2657.803,279.694 2657.859,279.684 
		2660.097,278.946 2660.176,278.931 2663.536,277.837 2663.644,277.817 2669.016,276.119 2669.101,276.104 2674.591,274.438 
		2674.639,274.431 2678.943,273.164 2678.965,273.16 2681.715,272.364 2681.734,272.36 	"/>
</g>
<g id="pockets">
	
		<rect x="2312.511" y="1271.964" fill="none" stroke="#0C8040" stroke-width="1" stroke-miterlimit="10" width="166.677" height="98.884"/>
	
		<rect x="2520.899" y="1271.964" fill="none" stroke="#0C8040" stroke-width="1" stroke-miterlimit="10" width="88.896" height="98.884"/>
	
		<rect x="220.755" y="1271.964" fill="none" stroke="#0C8040" stroke-width="1" stroke-miterlimit="10" width="88.896" height="98.884"/>
	
		<rect x="351.355" y="1271.964" fill="none" stroke="#0C8040" stroke-width="1" stroke-miterlimit="10" width="166.677" height="98.884"/>
</g>
<g id="ids">
	<polyline fill="none" stroke="#622B8A" stroke-miterlimit="10" points="934.385,1193.856 1130.415,1193.856 1086.822,1150.275 	"/>
	<polyline fill="none" stroke="#622B8A" stroke-miterlimit="10" points="564.673,273.28 466.656,273.28 488.454,295.072 	"/>
	<line fill="none" stroke="#622B8A" stroke-miterlimit="10" x1="576.925" y1="239.255" x2="576.925" y2="190.247"/>
	<polyline fill="none" stroke="#622B8A" stroke-miterlimit="10" points="937.029,1193.856 1133.062,1193.856 1089.469,1150.275 	"/>
	<polyline fill="none" stroke="#622B8A" stroke-miterlimit="10" points="2661.918,744.75 2661.918,831.811 2532.406,751.363 
		2532.287,751.268 2532.168,751.175 2532.044,751.085 2531.92,750.999 2531.791,750.915 2531.656,750.833 2531.517,750.75 
		2531.369,750.67 2531.214,750.588 2524.082,747.267 2516.688,745.326 2509.202,744.719 2501.789,745.398 2494.615,747.316 
		2487.849,750.425 2481.656,754.678 2476.206,760.026 2471.664,766.423 2468.39,773.573 2466.479,780.979 2465.89,788.469 
		2466.577,795.882 2468.501,803.05 2471.615,809.809 2475.88,815.993 2481.25,821.435 2487.682,825.971 2498.648,831.688 	"/>
	<polyline fill="none" stroke="#622B8A" stroke-miterlimit="10" points="564.673,225.661 564.673,225.661 562.354,219.437 
		559.218,213.723 555.348,208.58 550.819,204.066 545.717,200.242 540.118,197.164 534.103,194.893 527.751,193.485 
		521.143,193.003 488.454,193.003 484.538,193.354 480.851,194.364 477.456,195.974 474.415,198.119 471.786,200.741 
		469.634,203.779 468.021,207.171 467.009,210.854 466.656,214.77 467.009,218.677 468.021,222.355 469.634,225.745 
		471.786,228.782 474.415,231.409 477.456,233.559 480.851,235.17 484.538,236.183 488.454,236.534 499.351,236.534 
		503.268,236.183 506.954,235.17 510.348,233.559 513.389,231.409 516.015,228.782 518.165,225.745 519.778,222.355 
		520.789,218.677 521.143,214.77 521.143,193.003 	"/>
</g>
</svg>
