<?xml version="1.0" encoding="utf-8"?>
<!-- Generator: Adobe Illustrator 16.0.0, SVG Export Plug-In . SVG Version: 6.00 Build 0)  -->
<!DOCTYPE svg PUBLIC "-//W3C//DTD SVG 1.1//EN" "http://www.w3.org/Graphics/SVG/1.1/DTD/svg11.dtd">
<svg version="1.1" xmlns="http://www.w3.org/2000/svg" xmlns:xlink="http://www.w3.org/1999/xlink" x="0px" y="0px"
	 width="2834.646px" height="1417.322px" viewBox="0 0 2834.646 1417.322" enable-background="new 0 0 2834.646 1417.322"
	 xml:space="preserve">
<g id="profiles">
	<polyline fill="none" stroke="#0000FF" stroke-width="1" stroke-miterlimit="10" points="215.752,930.189 215.752,822.924 
		215.752,819.072 301.566,819.072 304.646,819.072 304.646,926.341 304.646,930.189 344.872,930.189 346.315,930.189 
		346.315,822.924 346.315,819.072 420.055,819.072 2474.228,819.072 2474.228,926.341 2474.228,930.189 2514.452,930.189 
		2515.896,930.189 2515.896,822.924 2515.896,819.072 2601.711,819.072 2604.791,819.072 2604.791,926.341 2604.791,930.189 
		2765.692,930.189 2771.469,930.189 2771.469,915.457 2771.469,914.845 2771.469,895.876 2771.469,891.706 2771.469,885.133 
		2771.469,876.113 2771.469,863.129 2771.469,843.596 2771.469,837.459 2771.469,830.919 2771.469,815.854 2771.469,795.842 
		2771.469,782.2 2771.469,764.365 2771.469,562.964 2771.469,562.563 2771.469,561.884 2771.469,559.712 2771.469,559.411 
		2767.976,559.922 2757.029,561.897 2753.73,564.485 2748.54,568.954 2739.764,575.882 2733.519,581.27 2723.334,589.157 
		2716.024,595.252 2684.395,618.604 2661.473,636.63 2645.927,647.016 2634.6,655.097 2620.135,663.475 2609.559,670.084 
		2595.619,676.482 2585.386,681.641 2570.885,686.555 2560.186,690.62 2544.1,694.64 2532.164,698.049 2514.044,701.54 
		2500.537,704.561 2480.53,707.613 2465.551,710.313 2444.152,712.84 2428.062,715.15 2383.354,718.018 2349.497,721.004 
		2304.98,720.238 2270.976,720.466 2228.285,716.225 2195.396,713.774 2170.26,710.01 2150.785,707.59 2105.521,699.302 
		2070.228,693.746 2042.362,687.695 2020.536,683.513 2003.72,679.392 1990.512,676.496 1958.683,667.526 1933.565,661.107 
		1905.769,652.024 1883.713,645.425 1858.02,636.197 1837.509,629.43 1814.248,620.619 1795.564,614.128 1774.82,606.124 
		1758.079,600.213 1739.33,593.093 1724.178,587.815 1709.446,582.496 1697.574,578.53 1683.354,573.841 1671.949,570.319 
		1658.132,566.403 1647.116,563.44 1633.812,560.456 1623.271,558.177 1610.77,556.195 1600.933,554.66 1589.579,553.583 
		1580.717,552.716 1570.856,552.361 1563.239,552.024 1556.225,551.975 1548.979,552.243 1536.568,552.726 1531.571,552.993 
		1516.077,554.831 1511.289,555.269 1496.051,557.936 1491.344,558.588 1469.478,563.77 1462.782,565.04 1440.097,571.914 
		1433.264,573.571 1410.709,581.67 1404.052,583.562 1391.495,588.471 1387.839,589.588 1382.132,591.871 1380.483,592.385 
		1369.88,596.64 1366.855,597.583 1348.072,604.9 1342.845,606.493 1316.615,615.671 1309.523,617.645 1301.731,620.089 
		1299.646,620.615 1278.937,626.461 1273.466,627.716 1253.456,632.446 1248.222,633.458 1226.851,637.465 1221.293,638.314 
		1204.262,640.041 1184.151,642.729 1175.623,642.97 1171.506,643.283 1158.072,643.455 1156.183,643.459 1145.205,643.176 
		1143.654,643.124 1131.607,642.382 1129.897,642.269 1114.914,640.697 1112.771,640.464 1096.811,637.962 1094.514,637.593 
		1083.003,635.234 1081.337,634.889 1064.854,630.674 1062.452,630.05 1038.209,622.067 1034.642,620.873 1023.142,616.385 
		1021.44,615.709 1009.854,610.778 1008.133,610.034 997.594,605.233 996.018,604.506 985.408,599.429 983.814,598.657 
		973.128,593.354 971.51,592.545 960.733,587.075 959.088,586.242 946.129,579.604 944.129,578.594 931,571.935 928.952,570.918 
		916.517,564.782 914.556,563.848 902.788,558.272 900.911,557.422 889.01,552.064 887.09,551.247 873.464,545.502 871.239,544.625 
		857.501,539.273 855.233,538.458 827.395,528.952 822.703,527.5 795.03,519.717 790.279,518.534 775.203,514.93 772.596,514.389 
		752.855,510.306 749.408,509.691 732.682,506.776 729.735,506.334 718.023,504.583 715.948,504.314 704.509,502.833 
		702.466,502.604 691.314,501.377 689.305,501.186 678.441,500.201 676.466,500.044 665.889,499.292 663.943,499.168 
		653.639,498.636 651.726,498.544 641.678,498.226 639.795,498.167 629.991,498.054 628.134,498.023 621.659,498.06 
		620.426,498.056 614.059,498.178 612.837,498.188 604.359,498.479 602.725,498.512 592.405,499.049 590.395,499.118 
		579.961,499.868 577.907,499.974 565.915,501.086 563.519,501.252 551.395,502.649 548.934,502.867 525.995,506.242 
		521.187,506.807 506.55,509.433 503.406,509.901 496.287,511.303 494.738,511.56 480.903,514.501 477.833,515.062 451.791,521.308 
		445.782,522.59 416.023,530.708 408.855,532.521 383.199,540.236 376.793,542.075 351.265,550.292 344.671,552.357 
		335.868,555.288 333.567,556.042 317.273,561.564 312.92,563.024 305.412,565.6 303.384,566.294 277.42,575.25 270.174,577.767 
		245.169,586.319 237.957,588.85 213.996,596.825 206.88,599.3 183.964,606.627 176.989,609.002 159.317,614.398 153.85,616.213 
		141.322,619.88 137.405,621.146 123.177,625.205 121.851,625.596 121.443,625.699 116.862,627.41 94.647,635.926 89.545,637.332 
		64.419,644.424 62.602,644.868 49.075,647.496 49.075,676.117 49.075,729.137 49.075,765.801 49.075,792.371 49.075,827.24 
		49.075,838.326 49.075,846.453 49.075,857.823 49.075,930.189 209.975,930.189 215.752,930.189 	"/>
	<path fill="none" stroke="#0000FF" stroke-width="1" stroke-miterlimit="10" d="M49.922,1390.642l2722.396-0.021v-302.598
		c-7.147-2.954-14.174-6.196-21.082-9.73c-92.504-31.602-172.424-63.146-247.375-84.463
		c-53.892-15.327-104.731-25.432-160.234-29.812c-41.729-3.291-83.688-3.146-125.63-0.07c-38.146,2.797-88.958,8.863-140.138,22.104
		c-46.085,11.922-80.799,26.647-111.931,41.652c-48.759,23.502-90.54,48.623-146.349,62.149
		c-38.646,9.365-76.479,11.002-106.885,9.677c-62.163-2.705-123.887-16.46-170.243-28.077
		c-31.326-7.852-60.191-15.871-91.251-22.646c-36.657-7.994-73.142-13.531-110.575-13.97c-50.015-0.584-92.376,8.516-132.319,19.94
		c-56.49,16.154-130.893,43.457-206.156,66.929c-77.464,24.158-143.104,40.393-238.755,55.266
		c-42.336,6.583-94.49,13.579-141.9,17.251c-51.418,3.979-109.953,5.25-181.487-1.787c-48.698-4.791-93.451-12.406-128.15-20.171
		c-65.045-14.552-96.383-29.665-137.041-58.29c-39.43-27.762-124.46-102.349-124.894-102.438V1390.642z"/>
</g>
<g id="follow_x5F_paths">
	<polyline fill="none" stroke="#DB2526" stroke-width="1" stroke-miterlimit="10" points="2687.04,742.015 2664.116,749.225 
		2648.572,753.38 2637.242,756.612 2622.779,759.963 2612.204,762.606 2598.267,765.167 2588.031,767.23 2573.53,769.195 
		2562.83,770.821 2546.743,772.429 2534.81,773.793 2516.689,775.189 2503.183,776.396 2483.177,777.618 2468.195,778.699 
		2446.799,779.71 2430.707,780.634 2386,781.781 2352.142,782.976 2307.626,782.669 2273.62,782.759 2230.932,781.063 
		2198.041,780.083 2172.905,778.577 2153.433,777.609 2108.167,774.294 2072.872,772.071 2045.009,769.651 2023.183,767.979 
		2006.364,766.331 1993.156,765.172 1961.326,761.584 1936.21,759.016 1908.413,755.383 1886.358,752.743 1860.665,749.053 
		1840.153,746.345 1816.894,742.82 1798.209,740.225 1777.467,737.022 1760.725,734.659 1741.976,731.811 1726.823,729.699 
		1712.093,727.572 1700.22,725.986 1685.998,724.11 1674.595,722.701 1660.776,721.134 1649.762,719.949 1636.457,718.756 
		1625.917,717.844 1613.415,717.051 1603.576,716.437 1592.225,716.006 1583.36,715.66 1573.501,715.519 1565.885,715.383 
		1558.87,715.363 1551.624,715.471 1539.214,715.663 1534.216,715.771 1518.724,716.506 1513.935,716.681 1498.696,717.748 
		1493.989,718.008 1472.123,720.081 1465.428,720.59 1442.742,723.339 1435.908,724.001 1413.354,727.242 1406.696,727.998 
		1394.142,729.962 1390.483,730.408 1384.777,731.322 1383.129,731.527 1372.523,733.229 1369.5,733.606 1350.718,736.533 
		1345.488,737.17 1319.26,740.841 1312.169,741.632 1304.376,742.608 1302.292,742.819 1281.581,745.157 1276.111,745.66 
		1256.101,747.552 1250.867,747.957 1229.496,749.56 1223.938,749.898 1206.906,750.59 1186.798,751.665 1178.269,751.761 
		1174.151,751.887 1160.718,751.956 1158.828,751.957 1147.851,751.843 1146.3,751.823 1134.253,751.525 1132.541,751.481 
		1117.559,750.852 1115.417,750.759 1099.456,749.759 1097.159,749.61 1085.647,748.668 1083.982,748.528 1067.499,746.843 
		1065.098,746.593 1040.854,743.4 1037.287,742.923 1025.786,741.127 1024.085,740.856 1012.501,738.885 1010.778,738.586 
		1000.239,736.667 998.663,736.376 988.054,734.345 986.459,734.037 975.773,731.914 974.154,731.592 963.377,729.402 
		961.733,729.069 948.774,726.415 946.775,726.011 933.646,723.347 931.599,722.94 919.162,720.486 917.2,720.112 905.434,717.882 
		903.557,717.542 891.654,715.399 889.735,715.072 876.107,712.773 873.885,712.423 860.146,710.283 857.877,709.956 
		830.04,706.154 825.349,705.572 797.674,702.46 792.926,701.987 777.849,700.545 775.24,700.328 755.501,698.695 752.054,698.45 
		735.326,697.284 732.382,697.106 720.669,696.406 718.594,696.299 707.154,695.707 705.111,695.614 693.96,695.124 691.95,695.047 
		681.087,694.654 679.111,694.592 668.532,694.29 666.59,694.24 656.284,694.027 654.371,693.99 644.324,693.864 642.44,693.84 
		632.636,693.795 630.779,693.782 624.305,693.797 623.07,693.795 616.703,693.845 615.483,693.849 607.005,693.965 
		605.368,693.978 595.05,694.193 593.04,694.221 582.607,694.521 580.553,694.562 568.559,695.007 566.165,695.074 554.04,695.633 
		551.578,695.721 528.641,697.07 523.833,697.296 509.195,698.347 506.052,698.534 498.933,699.095 497.384,699.197 483.55,700.374 
		480.479,700.598 454.435,703.096 448.428,703.608 418.669,706.857 411.501,707.581 385.845,710.668 379.439,711.403 
		353.908,714.69 347.315,715.517 338.516,716.688 336.213,716.99 319.919,719.199 315.565,719.782 308.057,720.812 306.029,721.091 
		280.064,724.673 272.819,725.68 247.813,729.101 240.603,730.113 216.642,733.304 209.525,734.293 186.607,737.224 
		179.634,738.175 161.962,740.332 156.495,741.059 143.968,742.525 140.05,743.031 	"/>
	<path fill="none" stroke="#DB2526" stroke-width="1" stroke-miterlimit="10" d="M129.157,1199.604
		c15.473,4.921,30.745,9.57,43.86,13.263c40.658,11.451,71.997,17.496,137.041,23.317c34.698,3.105,79.451,6.151,128.15,8.067
		c71.535,2.815,130.069,2.307,181.486,0.715c47.412-1.469,99.564-4.267,141.901-6.9c95.651-5.949,161.291-12.442,238.754-22.106
		c75.266-9.388,149.667-20.31,206.157-26.771c39.944-4.569,82.303-8.21,132.319-7.977c37.434,0.177,73.917,2.392,110.575,5.59
		c31.061,2.709,59.924,5.917,91.251,9.057c46.356,4.647,108.08,10.149,170.243,11.232c30.406,0.53,68.238-0.125,106.883-3.871
		c55.811-5.41,97.593-15.459,146.35-24.859c31.132-6.002,65.847-11.893,111.933-16.662c51.178-5.296,101.988-7.722,140.136-8.841
		c41.944-1.23,83.902-1.288,125.632,0.028c55.502,1.752,106.34,5.793,160.231,11.925c56.957,6.479,116.782,15.32,182.815,24.739"/>
</g>
<g id="pockets">
	
		<rect x="2308.685" y="1279.504" fill="none" stroke="#0C8040" stroke-width="1" stroke-miterlimit="10" width="166.677" height="98.884"/>
	
		<rect x="2517.074" y="1279.504" fill="none" stroke="#0C8040" stroke-width="1" stroke-miterlimit="10" width="88.896" height="98.884"/>
	
		<rect x="216.93" y="1279.504" fill="none" stroke="#0C8040" stroke-width="1" stroke-miterlimit="10" width="88.895" height="98.884"/>
	
		<rect x="347.531" y="1279.504" fill="none" stroke="#0C8040" stroke-width="1" stroke-miterlimit="10" width="166.677" height="98.884"/>
</g>
<g id="ids">
	<polyline fill="none" stroke="#622B8A" stroke-miterlimit="10" points="552.97,653.175 552.97,609.644 617.727,649.867 
		617.787,649.915 617.846,649.962 617.907,650.008 617.97,650.05 618.035,650.092 618.102,650.134 618.173,650.174 618.245,650.214 
		618.324,650.256 621.89,651.916 625.585,652.886 629.33,653.19 633.036,652.85 636.623,651.891 640.006,650.337 643.103,648.21 
		645.828,645.536 648.099,642.338 649.735,638.763 650.691,635.061 650.986,631.314 650.642,627.609 649.68,624.024 
		648.123,620.646 645.99,617.553 643.306,614.833 640.09,612.562 634.606,609.705 	"/>
	<polyline fill="none" stroke="#622B8A" stroke-miterlimit="10" points="552.972,689.938 552.972,711.703 553.323,715.61 
		554.336,719.289 555.948,722.681 558.099,725.718 560.726,728.343 563.767,730.494 567.16,732.105 570.847,733.118 574.762,733.47 
		585.605,733.47 589.519,733.118 593.2,732.105 596.585,730.494 599.619,728.346 602.237,725.72 604.377,722.683 605.982,719.293 
		606.99,715.612 607.34,711.703 607.34,689.938 650.987,689.938 650.987,733.47 	"/>
	<polyline fill="none" stroke="#622B8A" stroke-miterlimit="10" points="538.88,1057.094 538.88,1013.562 603.637,1053.786 
		603.695,1053.834 603.756,1053.881 603.815,1053.927 603.88,1053.969 603.943,1054.011 604.01,1054.053 604.082,1054.093 
		604.155,1054.133 604.233,1054.175 607.799,1055.835 611.495,1056.805 615.239,1057.109 618.943,1056.769 622.532,1055.81 
		625.915,1054.256 629.012,1052.129 631.736,1049.455 634.008,1046.257 635.645,1042.682 636.601,1038.979 636.895,1035.233 
		636.55,1031.528 635.589,1027.943 634.032,1024.564 631.899,1021.472 629.215,1018.752 625.999,1016.481 620.516,1013.624 	"/>
	<polyline fill="none" stroke="#622B8A" stroke-miterlimit="10" points="643.022,1107.624 643.022,1107.624 640.683,1101.389 
		637.534,1095.667 633.65,1090.518 629.112,1085.999 624.001,1082.171 618.391,1079.091 612.364,1076.817 605.999,1075.411 
		599.373,1074.929 566.796,1074.929 562.881,1075.28 559.195,1076.293 555.801,1077.905 552.76,1080.056 550.133,1082.681 
		547.982,1085.719 546.37,1089.108 545.358,1092.788 545.007,1096.694 545.358,1100.609 546.37,1104.293 547.982,1107.684 
		550.133,1110.722 552.76,1113.345 555.801,1115.49 559.195,1117.1 562.881,1118.11 566.796,1118.46 577.639,1118.46 
		581.553,1118.11 585.233,1117.1 588.62,1115.49 591.653,1113.345 594.271,1110.722 596.412,1107.684 598.018,1104.293 
		599.023,1100.609 599.373,1096.694 599.373,1074.929 	"/>
	<line fill="none" stroke="#622B8A" stroke-miterlimit="10" x1="532.753" y1="1072.202" x2="532.753" y2="1121.211"/>
</g>
</svg>
