<?xml version="1.0" encoding="utf-8"?>
<!-- Generator: Adobe Illustrator 16.0.0, SVG Export Plug-In . SVG Version: 6.00 Build 0)  -->
<!DOCTYPE svg PUBLIC "-//W3C//DTD SVG 1.1//EN" "http://www.w3.org/Graphics/SVG/1.1/DTD/svg11.dtd">
<svg version="1.1" xmlns="http://www.w3.org/2000/svg" xmlns:xlink="http://www.w3.org/1999/xlink" x="0px" y="0px"
	 width="2834.646px" height="1417.321px" viewBox="0 0 2834.646 1417.321" enable-background="new 0 0 2834.646 1417.321"
	 xml:space="preserve">
<g id="profiles">
	<polyline fill="none" stroke="#0000FF" stroke-width="1" stroke-miterlimit="10" points="83.368,926.604 72.205,931.827 
		51.527,943.91 50.488,944.564 50.488,944.788 50.488,946.938 50.488,1286.176 50.488,1294.727 50.488,1298.161 50.488,1324.915 
		50.488,1328.287 50.488,1382.257 79.367,1382.257 217.165,1382.257 217.165,1363.003 217.165,1271.14 232.567,1271.14 
		306.06,1271.14 306.06,1290.392 306.06,1382.257 313.279,1382.257 347.729,1382.257 347.729,1363.003 347.729,1271.14 
		2106.943,1271.14 2475.641,1271.14 2475.641,1290.392 2475.641,1382.257 2482.86,1382.257 2517.31,1382.257 2517.31,1363.003 
		2517.31,1271.14 2532.712,1271.14 2606.204,1271.14 2606.204,1290.392 2606.204,1382.257 2635.084,1382.257 2772.883,1382.257 
		2772.883,1263.929 2772.883,1250.566 2772.883,1241.459 2772.883,1230.903 2772.883,1219.052 2772.883,1206.062 2772.883,1192.169 
		2772.883,1139.483 2772.883,1087.724 2772.883,1071.151 2772.883,1070.312 2752.543,1072.795 2746.217,1073.544 2726.161,1077.284 
		2722.247,1077.989 2701.568,1083.232 2697.514,1084.237 2673.162,1092.536 2668.366,1094.169 2643.688,1105.298 2638.81,1107.546 
		2621.677,1116.921 2618.281,1118.844 2594.585,1133.646 2589.865,1136.714 2556.474,1158.284 2549.768,1162.755 2534.385,1171.312 
		2531.279,1173.054 2515.986,1179.653 2512.888,1180.962 2499.113,1184.812 2496.314,1185.528 2482.58,1187.142 2479.784,1187.374 
		2466.123,1186.753 2463.339,1186.507 2449.82,1183.814 2447.062,1183.133 2431.322,1177.627 2428.104,1176.337 2412.969,1168.876 
		2409.861,1167.188 2396.467,1158.912 2393.698,1157.071 2381.964,1148.491 2379.518,1146.603 2368.602,1137.377 2366.304,1135.356 
		2354.916,1124.243 2352.487,1121.814 2342.066,1110.067 2339.814,1107.501 2321.327,1082.092 2317.26,1076.512 2301.582,1049.458 
		2298.062,1043.472 2290.337,1028.31 2288.574,1024.935 2278.729,1005.214 2276.454,1000.788 2267.53,984.86 2265.457,981.255 
		2258.352,970.97 2256.705,968.622 2248.752,959.612 2246.916,957.538 2238.025,950.049 2235.974,948.308 2226.248,942.538 
		2224.002,941.181 2213.685,937.29 2211.291,936.359 2200.782,934.441 2198.326,933.97 2188.044,934.039 2185.623,934.036 
		2175.964,936.042 2173.666,936.503 2167.651,938.878 2166.208,939.44 2160.663,942.566 2159.323,943.312 2152.609,948.603 
		2150.974,949.881 2143.868,957.79 2142.12,959.724 2136.009,968.991 2134.485,971.278 2128.496,982.974 2126.984,985.894 
		2121.646,998.26 2120.283,1001.386 2110.556,1024.524 2108.028,1030.497 2101.177,1044.316 2099.379,1047.947 2095.719,1054.324 
		2094.749,1056.016 2086.907,1067.78 2084.809,1070.946 2067.398,1091.128 2062.624,1096.694 2039.558,1117.015 2033.039,1122.767 
		2012.21,1137.569 2006.194,1141.832 1985.783,1153.604 1979.798,1157.028 1972.837,1160.419 1970.787,1161.403 1957.707,1166.98 
		1953.813,1168.612 1947.596,1170.947 1945.73,1171.634 1922.376,1179.136 1915.222,1181.395 1889.096,1188.287 1880.881,1190.428 
		1852.345,1196.54 1843.204,1198.477 1812.979,1203.267 1803.217,1204.788 1777.818,1207.566 1769.611,1208.44 1750.234,1209.962 
		1743.993,1210.44 1725.024,1211.532 1717.204,1211.972 1709.437,1212.257 1691.427,1212.886 1681.075,1213.239 1676.397,1213.228 
		1642.889,1213.301 1638.558,1213.063 1608.082,1211.609 1603.765,1211.043 1573.986,1207.393 1571.673,1206.897 1556.057,1203.702 
		1553.819,1203.054 1538.903,1198.878 1535.006,1197.213 1509.395,1186.571 1505.771,1184.169 1482.516,1169.146 1479.328,1166.094 
		1459.376,1147.56 1457.173,1144.839 1443.757,1128.824 1441.065,1124.804 1425.07,1101.8 1422.555,1097.4 1408.177,1073.167 
		1405.94,1068.761 1393.749,1045.454 1392.164,1042.042 1383.92,1024.666 1381.873,1019.946 1371.69,996.664 1369.922,992.462 
		1361.565,972.465 1359.97,968.824 1352.72,951.965 1350.766,948.008 1342.135,930.059 1339.282,925.518 1326.933,905.29 
		1325.406,903.429 1318.904,895.268 1317.262,893.645 1310.297,886.562 1308.819,885.401 1302.595,880.359 1301.049,879.421 
		1294.574,875.354 1293.012,874.673 1286.5,871.724 1284.899,871.287 1278.264,869.392 1276.641,869.21 1269.942,868.403 
		1268.51,868.458 1262.625,868.667 1261.124,868.94 1254.985,870.066 1253.429,870.579 1247.097,872.726 1245.501,873.499 
		1239.049,876.737 1237.189,877.962 1229.722,883.087 1227.859,884.679 1220.45,891.318 1218.669,893.198 1211.649,901.01 
		1209.902,903.209 1203.081,912.3 1199.802,917.329 1187.15,937.995 1184.017,943.582 1172.039,966.337 1169.939,970.18 
		1161.903,985.714 1158.619,991.433 1145.907,1014.401 1141.16,1021.676 1122.523,1050.677 1118.638,1055.83 1103.261,1076.235 
		1098.866,1081.304 1081.448,1101.272 1078.304,1104.405 1065.854,1116.684 1059.706,1121.673 1035.368,1141.081 1031.85,1143.334 
		1017.938,1152.013 1014.098,1154.049 998.925,1161.828 994.765,1163.614 978.35,1170.366 973.889,1171.875 956.324,1177.503 
		946.651,1179.628 908.743,1187.29 901.686,1188.049 874.244,1190.522 867.054,1190.725 839.333,1191.001 832.186,1190.687 
		804.921,1188.943 797.979,1188.153 771.826,1184.573 762.232,1182.604 726.658,1174.243 717.917,1171.275 685.903,1159.06 
		682.122,1157.311 668.262,1150.192 664.61,1148.187 651.143,1140.062 645.866,1136.575 626.205,1122.505 618.401,1116.103 
		589.079,1090.364 582.293,1083.573 556.963,1056.331 552.671,1051.228 536.743,1030.8 534.274,1027.666 525.139,1015.175 
		521.623,1010.837 508.567,993.646 503.774,988.548 485.721,968.528 481.906,965.239 467.287,952.442 462.966,949.421 
		446.171,937.761 441.972,935.405 425.483,926.399 420.879,924.347 402.663,916.571 396.88,914.62 373.896,907.333 367.674,905.858 
		342.892,900.472 336.345,899.479 310.277,896.005 303.558,895.477 276.854,893.829 265.478,893.886 220.456,894.843 
		215.027,895.266 193.671,897.287 188.533,897.934 168.423,900.831 162.547,901.911 139.707,906.577 134.426,907.937 
		114.102,913.678 109.44,915.292 91.717,922.017 83.368,926.604 	"/>
	<polyline fill="none" stroke="#0000FF" stroke-width="1" stroke-miterlimit="10" points="2770.938,848.098 2770.938,831.627 
		2770.938,567.946 2629.84,567.946 2604.26,567.946 2604.26,662.011 2604.26,679.063 2529.009,679.063 2515.366,679.063 
		2515.366,584.998 2515.366,567.946 2480.091,567.946 2473.696,567.946 2473.697,662.011 2473.697,679.063 2147.135,679.063 
		345.784,679.063 345.784,584.998 345.784,567.946 310.51,567.946 304.115,567.946 304.115,662.011 304.115,679.063 
		228.863,679.063 215.221,679.063 215.221,584.998 215.221,567.946 74.123,567.946 48.543,567.946 48.543,633.188 48.543,635.905 
		48.543,719.909 48.543,738.382 48.543,767.489 48.543,807.428 48.543,864.934 48.543,888.998 48.858,888.97 66.872,887.64 
		92.843,886.134 99.613,884.264 100.703,883.996 101.628,883.819 113.177,880.166 114.143,879.973 126.57,875.829 129.387,875.308 
		166.269,863.454 167.693,863.274 186.351,858.499 187.758,858.405 205.97,855.115 207.372,855.108 225.461,853.278 
		226.888,853.341 245.5,852.665 246.974,852.774 266.706,852.866 268.233,853.009 289.306,853.63 290.875,853.804 313.125,854.878 
		314.712,855.078 337.762,856.644 340.903,857.144 387.716,862.034 390.691,862.66 436.488,870.194 439.264,870.913 
		483.129,880.772 484.739,881.23 510.799,887.962 513.729,888.812 561.629,901.937 563.45,902.467 593.866,911.151 594.974,911.478 
		613.717,917.046 615.834,917.697 651.975,929.155 653.802,929.766 685.753,940.917 687.399,941.518 716.947,952.829 
		718.406,953.409 745.246,964.47 746.552,965.005 771.022,975.374 772.247,975.849 795.424,985.216 796.433,985.554 
		815.671,992.437 816.687,992.711 836.195,998.526 837.215,998.732 856.967,1003.304 857.97,1003.44 877.611,1006.62 
		878.569,1006.684 897.516,1008.435 898.4,1008.435 916.054,1008.86 916.844,1008.808 932.668,1008.079 933.535,1007.976 
		947.032,1006.147 950.694,1005.28 964.603,1002.157 977.162,998.235 983.382,995.98 995.034,990.921 1000.714,988.065 
		1017.044,978.842 1024.997,973.678 1042.104,961.791 1050.554,955.151 1067.501,941.229 1075.969,933.435 1085.292,925.028 
		1089.97,920.321 1094.211,916.443 1096.348,914.274 1104.304,907.155 1108.344,903.177 1115.811,896.663 1130.344,884.919 
		1141.203,877.444 1162.064,863.833 1168.247,860.413 1171.479,858.541 1179.945,854.244 1196.211,846.343 1204.287,842.991 
		1219.853,836.804 1228.464,833.979 1245.091,828.764 1259.069,825.489 1266.003,823.605 1280.613,820.308 1291.279,819.42 
		1292.301,819.271 1294.47,818.994 1307.11,817.598 1308.895,817.425 1319.281,816.631 1321.253,816.497 1332.711,815.97 
		1335.189,815.882 1349.539,815.72 1352.219,815.72 1367.668,816.138 1369.639,816.196 1380.932,816.872 1383.824,817.04 
		1400.306,818.55 1404.75,818.994 1429.846,822.428 1432.041,822.735 1444.322,824.932 1446.582,825.321 1459.168,827.981 
		1461.255,828.419 1472.832,831.292 1474.942,831.83 1486.642,835.222 1488.762,835.876 1500.5,839.851 1502.606,840.636 
		1514.295,845.242 1516.756,846.351 1530.472,852.675 1532.854,853.965 1546.221,861.151 1548.349,862.497 1560.417,869.868 
		1562.306,871.222 1573.15,878.541 1574.938,879.961 1585.335,887.558 1587.242,889.212 1598.503,897.999 1600.301,899.676 
		1611.095,908.532 1614.54,911.926 1635.551,929.688 1639.047,932.992 1660.456,950.19 1662.526,951.905 1675.12,960.867 
		1678.104,962.952 1696.077,973.886 1698.846,975.442 1715.468,983.702 1717.5,984.651 1729.762,989.755 1731.782,990.56 
		1744.06,994.937 1746.02,995.602 1758.089,999.249 1759.96,999.775 1771.665,1002.704 1773.43,1003.099 1784.684,1005.323 
		1786.347,1005.589 1797.182,1007.126 1798.764,1007.273 1809.286,1008.14 1810.808,1008.181 1821.141,1008.4 1822.138,1008.37 
		1829.049,1008.169 1830.027,1008.097 1836.91,1007.631 1838.221,1007.47 1847.583,1006.435 1849.182,1006.147 1860.909,1004.255 
		1862.504,1003.874 1874.666,1001.267 1876.444,1000.734 1890.671,996.91 1892.363,996.294 1906.857,991.584 1909.756,990.282 
		1936.955,979.427 1938.472,978.638 1955.608,970.726 1956.242,970.38 1964.54,966.366 1965.661,965.741 1981.754,957.835 
		1983.505,956.9 2014.221,942.291 2015.501,941.704 2052.728,926.046 2053.025,925.929 2065.929,921.127 2087.621,913.03 
		2088.08,912.866 2124.385,900.243 2125.642,899.813 2138.546,895.479 2139.097,895.295 2163.266,887.403 2164.638,886.955 
		2175.905,883.397 2176.624,883.167 2215.627,871.64 2218.995,870.622 2256.672,860.958 2260.793,859.849 2297.277,851.948 
		2302.055,850.827 2337.946,844.166 2343.323,843.058 2371.997,838.298 2376.67,837.429 2397.484,834.257 2401.051,833.646 
		2417.704,831.339 2425.38,830.249 2438.902,828.286 2460.659,824.937 2490.173,822.341 2500.002,821.354 2527.96,820.425 
		2537.511,820.013 2566.385,820.188 2576.431,820.187 2592.591,820.62 2598.263,820.755 2614.638,821.416 2620.41,821.647 
		2651.317,823.998 2662.23,824.844 2694.179,830.146 2705.427,832.008 2736.474,840.932 2747.303,843.992 2752.728,845.892 
		2757.1,847.579 2764.422,850.414 2770.938,852.958 2770.938,851.078 2770.938,850.972 2770.938,848.098 	"/>
	<polyline fill="none" stroke="#0000FF" stroke-width="1" stroke-miterlimit="10" points="2757.078,489.664 2766.544,483.133 
		2775.195,477.056 2775.195,475.744 2775.195,475.664 2775.195,473.425 2775.195,473.313 2775.195,471.282 2775.195,471.102 
		2775.195,469.235 2775.195,467.543 2775.195,461.682 2775.195,459.875 2775.195,456.644 2775.195,454.94 2775.195,453.148 
		2775.195,170.471 2775.195,158.011 2775.195,153.006 2775.195,114.021 2775.195,109.109 2775.195,30.467 2733.113,30.467 
		2608.518,30.467 2608.518,58.522 2608.518,141.586 2586.074,141.586 2519.624,141.586 2519.624,113.531 2519.624,30.467 
		2509.104,30.467 2477.954,30.467 2477.954,58.522 2477.954,141.586 887.287,141.586 350.043,141.586 350.043,113.531 
		350.043,30.467 339.521,30.467 308.373,30.467 308.373,58.522 308.373,141.586 285.93,141.586 219.479,141.586 219.479,113.531 
		219.479,30.467 177.396,30.467 52.801,30.467 52.801,202.888 52.801,222.36 52.801,235.63 52.801,251.011 52.801,268.28 
		52.801,287.208 52.801,307.454 52.801,319.901 52.801,320.633 56.717,320.917 79.001,319.615 84.672,319.208 109.006,316.345 
		113.291,315.786 131.309,312.591 134.495,311.989 153.032,307.415 156.319,306.569 178.047,298.904 181.912,297.504 
		203.771,286.569 207.672,284.588 222.749,275.059 225.447,273.341 246.218,258.126 249.943,255.396 279.202,233.869 
		284.466,230.037 297.967,222.153 300.4,220.768 313.814,215.362 316.235,214.435 328.272,212.069 330.445,211.693 342.372,211.847 
		344.525,211.932 356.286,214.455 358.408,214.975 369.938,219.55 372.017,220.446 385.339,227.998 387.738,229.452 
		400.523,238.618 402.823,240.371 414.213,249.9 416.26,251.718 426.386,261.194 428.204,263.004 437.819,272.905 439.545,274.797 
		449.834,286.475 451.681,288.706 461.337,300.858 463.07,303.183 480.725,329.117 483.893,334.075 499.359,361.465 
		502.134,366.698 509.996,382.035 511.403,384.961 521.651,404.985 523.492,408.803 532.804,425.105 534.486,428.214 
		541.779,438.852 543.107,440.883 551.12,450.322 552.592,452.126 561.419,460.115 563.052,461.648 572.648,467.965 
		574.431,469.183 584.629,473.642 586.533,474.511 597.015,476.975 598.981,477.47 609.376,477.879 611.333,477.988 
		621.268,476.341 623.146,476.064 629.434,473.842 630.626,473.446 636.506,470.386 637.624,469.833 644.832,464.498 
		646.205,463.524 653.926,455.377 655.401,453.878 662.133,444.189 663.421,442.398 670.109,430.036 671.389,427.74 
		677.403,414.545 678.552,412.086 689.495,387.083 691.572,382.404 699.189,367.284 700.627,364.447 704.677,357.42 705.44,356.101 
		714.113,343.041 715.744,340.587 735.114,317.954 738.752,313.699 764.631,290.882 769.492,286.587 792.729,270.253 
		797.113,267.163 819.446,254.591 823.686,252.189 831.185,248.671 832.614,247.994 846.651,242.282 849.332,241.178 
		856.019,238.799 857.293,238.339 882.826,230.546 887.677,229.048 917.107,221.569 922.65,220.154 955.402,213.406 
		961.543,212.145 996.253,207.008 1002.777,206.061 1031.642,203.264 1037.103,202.764 1058.898,201.308 1063.045,201.062 
		1069.39,200.786 1089.864,199.794 1117.146,198.901 1126.05,198.67 1154.961,198.436 1164.113,198.425 1190.521,199.345 
		1198.877,199.692 1224.929,202.418 1233.162,203.329 1246.982,205.859 1251.346,206.681 1264.685,210.086 1268.894,211.18 
		1292.211,220.139 1299.562,222.987 1321.398,236.032 1328.278,240.153 1347.705,256.641 1353.831,261.833 1367.303,276.338 
		1371.558,280.901 1387.964,302.024 1393.158,308.666 1408.031,331.13 1412.752,338.192 1425.23,359.821 1429.2,366.62 
		1437.444,382.672 1440.073,387.717 1449.887,409.05 1453.024,415.752 1460.717,433.96 1463.185,439.679 1469.639,455.029 
		1471.715,459.849 1479.292,476.302 1481.729,481.464 1492.664,500.319 1496.166,506.222 1502.03,513.985 1503.901,516.406 
		1510.262,523.234 1512.286,525.357 1518.029,530.273 1519.854,531.795 1525.873,535.793 1527.782,537.023 1533.87,539.936 
		1535.799,540.823 1542.026,542.689 1543.996,543.245 1550.289,544.012 1552.279,544.218 1557.801,543.956 1559.545,543.843 
		1565.286,542.637 1567.098,542.229 1572.989,539.969 1574.847,539.229 1580.806,535.838 1582.684,534.744 1589.506,529.392 
		1591.652,527.679 1598.32,520.762 1600.414,518.559 1606.612,510.445 1608.557,507.867 1614.451,498.454 1616.298,495.47 
		1626.913,474.192 1630.231,467.46 1640.117,444.216 1643.199,436.871 1649.954,421.109 1652.056,416.132 1663.177,392.982 
		1666.635,385.674 1683.841,356.675 1689.196,347.521 1703.893,327.247 1708.474,320.847 1725.376,301.126 1730.653,294.899 
		1742.832,282.867 1746.64,279.066 1770.602,260.306 1778.104,254.375 1791.874,246.152 1796.19,243.549 1811.245,236.318 
		1815.969,234.029 1832.27,227.918 1837.385,225.98 1854.812,221.079 1860.286,219.522 1897.646,213.515 1909.394,211.601 
		1936.052,210.375 1944.445,209.979 1970.873,210.993 1979.203,211.308 2004.552,214.344 2012.553,215.303 2036.114,220.143 
		2043.56,221.677 2074.29,231.799 2084.014,235.01 2110.739,248.914 2119.198,253.32 2130.812,261.228 2134.483,263.729 
		2145.979,272.672 2149.61,275.498 2166.913,290.861 2172.374,295.709 2198.837,323.57 2207.199,332.36 2229.699,361.729 
		2236.847,371.004 2250.774,392.946 2255.228,399.886 2263.182,413.193 2265.73,417.407 2277.249,435.498 2280.934,441.229 
		2297.58,461.883 2302.881,468.437 2317.038,481.37 2321.531,485.48 2338.406,497.044 2343.752,500.726 2360.769,509.477 
		2366.156,512.271 2385.296,519.651 2391.35,522.013 2415.799,528.697 2423.53,530.845 2450.07,535.498 2458.464,537.004 
		2486.439,539.641 2495.288,540.508 2523.918,541.233 2532.984,541.496 2581.021,538.809 2596.266,538.01 2618.887,535.065 
		2626.093,534.157 2647.251,530.309 2654.014,529.111 2677.813,523.233 2685.46,521.396 2706.354,514.419 2713.118,512.229 
		2731.018,504.252 2736.873,501.741 2739.813,500.097 2757.078,489.664 	"/>
</g>
<g id="follow_x5F_paths">
	<polyline fill="none" stroke="#DB2526" stroke-width="1" stroke-miterlimit="10" points="2673.031,1192.845 2668.234,1193.499 
		2643.557,1197.95 2638.677,1198.85 2621.547,1202.599 2618.149,1203.37 2594.453,1209.29 2589.733,1210.517 2556.343,1219.145 
		2549.635,1220.933 2534.254,1224.356 2531.147,1225.052 2515.854,1227.692 2512.755,1228.216 2498.981,1229.756 2496.184,1230.043 
		2482.448,1230.688 2479.653,1230.78 2465.991,1230.532 2463.208,1230.434 2449.688,1229.356 2446.931,1229.084 2431.19,1226.882 
		2427.972,1226.366 2412.835,1223.382 2409.728,1222.706 2396.334,1219.396 2393.566,1218.66 2381.831,1215.228 2379.387,1214.472 
		2368.472,1210.782 2366.173,1209.974 2354.784,1205.528 2352.354,1204.557 2341.934,1199.858 2339.684,1198.831 2321.195,1188.668 
		2317.127,1186.437 2301.45,1175.614 2297.931,1173.22 2290.205,1167.155 2288.442,1165.805 2278.598,1157.917 2276.322,1156.146 
		2267.398,1149.775 2265.326,1148.332 2258.219,1144.22 2256.573,1143.28 2248.62,1139.676 2246.785,1138.847 2237.894,1135.851 
		2235.844,1135.153 2226.115,1132.846 2223.869,1132.304 2213.553,1130.746 2211.16,1130.374 2200.65,1129.608 2198.194,1129.419 
		2187.912,1129.446 2185.49,1129.444 2175.832,1130.248 2173.533,1130.432 2167.52,1131.383 2166.076,1131.606 2160.531,1132.857 
		2159.191,1133.155 2152.477,1135.272 2150.844,1135.783 2143.737,1138.947 2141.988,1139.72 2135.876,1143.428 2134.354,1144.343 
		2128.363,1149.021 2126.854,1150.188 2121.514,1155.136 2120.152,1156.386 2110.425,1165.641 2107.896,1168.028 2101.046,1173.558 
		2099.247,1175.01 2095.585,1177.561 2094.617,1178.237 2086.774,1182.943 2084.677,1184.209 2067.266,1192.282 2062.493,1194.509 
		2039.427,1202.638 2032.907,1204.938 2012.078,1210.859 2006.062,1212.564 1985.651,1217.272 1979.666,1218.642 1972.706,1219.998 
		1970.656,1220.393 1957.575,1222.623 1953.682,1223.276 1947.464,1224.21 1945.6,1224.485 1922.244,1227.485 1915.089,1228.389 
		1888.964,1231.146 1880.749,1232.003 1852.212,1234.447 1843.072,1235.222 1812.848,1237.138 1803.084,1237.746 1777.687,1238.857 
		1769.48,1239.207 1750.102,1239.816 1743.861,1240.007 1724.893,1240.444 1717.071,1240.62 1709.305,1240.733 1691.297,1240.985 
		1680.943,1241.127 1676.266,1241.122 1642.756,1241.151 1638.427,1241.056 1607.951,1240.475 1603.633,1240.248 1573.854,1238.788 
		1571.542,1238.591 1555.925,1237.312 1553.688,1237.052 1538.771,1235.382 1534.874,1234.716 1509.264,1230.46 1505.639,1229.498 
		1482.385,1223.489 1479.196,1222.269 1459.244,1214.856 1457.043,1213.767 1443.625,1207.36 1440.934,1205.753 1424.938,1196.551 
		1422.423,1194.791 1408.044,1185.098 1405.809,1183.335 1393.618,1174.013 1392.033,1172.648 1383.787,1165.697 1381.741,1163.81 
		1371.558,1154.496 1369.79,1152.815 1361.434,1144.816 1359.839,1143.36 1352.588,1136.617 1350.635,1135.034 1342.002,1127.854 
		1339.151,1126.038 1326.801,1117.947 1325.274,1117.203 1318.772,1113.938 1317.13,1113.29 1310.165,1110.456 1308.688,1109.991 
		1302.463,1107.975 1300.918,1107.6 1294.443,1105.972 1292.881,1105.7 1286.368,1104.521 1284.77,1104.346 1278.131,1103.588 
		1276.508,1103.516 1269.811,1103.192 1268.377,1103.215 1262.492,1103.298 1260.992,1103.407 1254.854,1103.857 1253.296,1104.062 
		1246.965,1104.921 1245.37,1105.23 1238.917,1106.525 1237.058,1107.016 1229.591,1109.065 1227.729,1109.702 1220.319,1112.358 
		1218.539,1113.11 1211.518,1116.235 1209.771,1117.114 1202.949,1120.751 1199.669,1122.763 1187.018,1131.028 1183.885,1133.264 
		1171.908,1142.364 1169.809,1143.903 1161.773,1150.116 1158.487,1152.403 1145.775,1161.592 1141.029,1164.501 1122.394,1176.103 
		1118.506,1178.163 1103.129,1186.325 1098.733,1188.353 1081.315,1196.34 1078.173,1197.594 1065.722,1202.504 1059.574,1204.5 
		1035.235,1212.264 1031.718,1213.165 1017.807,1216.636 1013.966,1217.451 998.793,1220.562 994.635,1221.276 978.218,1223.978 
		973.757,1224.581 956.191,1226.832 946.519,1227.683 908.611,1230.747 901.554,1231.051 874.113,1232.04 866.921,1232.122 
		839.2,1232.231 832.054,1232.105 804.789,1231.408 797.846,1231.092 771.694,1229.66 762.101,1228.874 726.526,1225.528 
		717.786,1224.341 685.771,1219.454 681.99,1218.755 668.129,1215.908 664.478,1215.106 651.013,1211.856 645.735,1210.462 
		626.074,1204.833 618.271,1202.272 588.947,1191.977 582.162,1189.26 556.831,1178.362 552.54,1176.321 536.611,1168.15 
		534.143,1166.897 525.008,1161.9 521.492,1160.166 508.435,1153.29 503.643,1151.25 485.59,1143.242 481.775,1141.927 
		467.155,1136.808 462.833,1135.6 446.039,1130.935 441.84,1129.993 425.353,1126.392 420.747,1125.57 402.531,1122.46 
		396.748,1121.679 373.765,1118.764 367.541,1118.175 342.761,1116.021 336.213,1115.623 310.145,1114.233 303.426,1114.021 
		276.722,1113.362 265.347,1113.386 220.323,1113.769 214.895,1113.937 193.54,1114.746 188.401,1115.004 168.292,1116.163 
		162.416,1116.595 139.575,1118.462 	"/>
	<polyline fill="none" stroke="#DB2526" stroke-width="1" stroke-miterlimit="10" points="163.622,755.011 165.048,754.938 
		183.705,753.028 185.111,752.991 203.324,751.675 204.726,751.672 222.815,750.94 224.242,750.965 242.854,750.694 
		244.328,750.739 264.06,750.775 265.587,750.833 286.659,751.081 288.229,751.15 310.479,751.58 312.065,751.661 335.116,752.286 
		338.258,752.487 385.07,754.442 388.045,754.693 433.843,757.707 436.616,757.994 480.483,761.938 482.093,762.122 
		508.151,764.814 511.083,765.153 558.982,770.403 560.804,770.614 591.22,774.091 592.327,774.221 611.071,776.448 
		613.187,776.708 649.328,781.291 651.156,781.536 683.107,785.996 684.753,786.237 714.301,790.761 715.76,790.993 
		742.599,795.417 743.906,795.632 768.376,799.778 769.602,799.97 792.777,803.716 793.786,803.851 813.024,806.603 
		814.041,806.714 833.549,809.039 834.567,809.122 854.319,810.951 855.324,811.005 874.967,812.277 875.924,812.304 
		894.87,813.004 895.753,813.004 913.408,813.173 914.195,813.151 930.021,812.86 930.889,812.819 944.386,812.089 948.048,811.741 
		961.957,810.492 974.516,808.923 980.735,808.021 992.388,805.998 998.067,804.856 1014.397,801.166 1022.353,799.1 
		1039.458,794.345 1047.908,791.689 1064.854,786.12 1073.322,783.003 1082.646,779.641 1087.323,777.758 1091.563,776.206 
		1093.702,775.339 1101.656,772.491 1105.695,770.899 1113.164,768.295 1127.695,763.597 1138.557,760.606 1159.417,755.162 
		1165.601,753.794 1168.833,753.046 1177.3,751.327 1193.565,748.167 1201.641,746.825 1217.207,744.35 1225.818,743.221 
		1242.443,741.134 1256.423,739.825 1263.355,739.071 1277.968,737.753 1288.635,737.397 1289.656,737.337 1291.823,737.227 
		1304.464,736.669 1306.248,736.599 1316.635,736.28 1318.607,736.228 1330.064,736.017 1332.543,735.981 1346.893,735.917 
		1349.572,735.917 1365.022,736.084 1366.992,736.108 1378.285,736.378 1381.178,736.444 1397.659,737.05 1402.104,737.227 
		1427.199,738.601 1429.395,738.724 1441.677,739.603 1443.936,739.758 1456.522,740.821 1458.608,740.996 1470.186,742.146 
		1472.297,742.361 1483.996,743.718 1486.115,743.979 1497.854,745.569 1499.96,745.883 1511.648,747.727 1514.109,748.169 
		1527.825,750.699 1530.208,751.215 1543.574,754.091 1545.703,754.628 1557.771,757.576 1559.66,758.118 1570.504,761.045 
		1572.292,761.614 1582.689,764.653 1584.596,765.313 1595.857,768.829 1597.655,769.5 1608.448,773.042 1611.894,774.399 
		1632.904,781.505 1636.4,782.826 1657.81,789.706 1659.881,790.392 1672.474,793.976 1675.458,794.81 1693.431,799.184 
		1696.2,799.806 1712.82,803.109 1714.854,803.489 1727.116,805.53 1729.135,805.853 1741.414,807.604 1743.374,807.87 
		1755.444,809.328 1757.314,809.539 1769.018,810.71 1770.783,810.868 1782.037,811.758 1783.7,811.864 1794.537,812.479 
		1796.118,812.538 1806.641,812.886 1808.161,812.901 1818.494,812.989 1819.491,812.977 1826.403,812.896 1827.381,812.867 
		1834.264,812.682 1835.574,812.616 1844.937,812.204 1846.536,812.089 1858.263,811.331 1859.858,811.179 1872.02,810.136 
		1873.798,809.923 1888.024,808.394 1889.719,808.146 1904.212,806.263 1907.109,805.741 1934.31,801.4 1935.825,801.084 
		1952.962,797.921 1953.597,797.78 1961.894,796.175 1963.016,795.926 1979.106,792.763 1980.858,792.389 2011.574,786.546 
		2012.854,786.31 2050.081,780.047 2050.379,780.001 2063.282,778.079 2084.974,774.841 2085.434,774.776 2121.738,769.727 
		2122.996,769.554 2135.9,767.819 2136.45,767.747 2160.62,764.591 2161.992,764.411 2173.26,762.987 2173.978,762.896 
		2212.98,758.284 2216.35,757.878 2254.025,754.012 2258.146,753.567 2294.633,750.409 2299.408,749.96 2335.301,747.296 
		2340.677,746.853 2369.35,744.948 2374.022,744.601 2394.839,743.332 2398.403,743.087 2415.058,742.164 2422.734,741.729 
		2436.257,740.942 2458.013,739.603 2487.527,738.565 2497.356,738.171 2525.313,737.799 2534.865,737.634 2563.738,737.704 
		2573.784,737.704 2589.944,737.876 2595.617,737.931 2611.991,738.194 2617.764,738.288 2648.671,739.228 2659.584,739.566 	"/>
	<polyline fill="none" stroke="#DB2526" stroke-width="1" stroke-miterlimit="10" points="131.44,216.466 134.627,216.226 
		153.164,214.396 156.452,214.057 178.177,210.99 182.045,210.431 203.903,206.058 207.804,205.265 222.882,201.454 225.58,200.767 
		246.35,194.68 250.076,193.588 279.333,184.977 284.598,183.444 298.099,180.291 300.532,179.737 313.946,177.574 316.367,177.204 
		328.405,176.257 330.576,176.107 342.504,176.168 344.656,176.202 356.417,177.211 358.54,177.42 370.07,179.25 372.149,179.608 
		385.47,182.628 387.87,183.21 400.655,186.877 402.955,187.578 414.346,191.39 416.391,192.118 426.518,195.907 428.336,196.632 
		437.952,200.592 439.678,201.348 449.966,206.02 451.812,206.912 461.469,211.773 463.203,212.703 480.856,223.077 484.025,225.06 
		499.492,236.016 502.267,238.108 510.128,244.244 511.536,245.414 521.784,253.424 523.624,254.951 532.935,261.472 
		534.618,262.716 541.911,266.97 543.239,267.783 551.253,271.559 552.724,272.28 561.551,275.476 563.183,276.089 572.78,278.615 
		574.563,279.103 584.761,280.887 586.666,281.234 597.147,282.22 599.113,282.418 609.508,282.582 611.465,282.624 621.4,281.966 
		623.277,281.856 629.565,280.966 630.758,280.808 636.638,279.584 637.756,279.363 644.964,277.229 646.339,276.839 
		654.059,273.581 655.533,272.98 662.266,269.105 663.554,268.389 670.24,263.445 671.521,262.525 677.536,257.248 678.685,256.264 
		689.627,246.263 691.704,244.391 699.321,238.344 700.759,237.208 704.81,234.397 705.573,233.87 714.244,228.646 715.877,227.665 
		735.247,218.611 738.885,216.91 764.762,207.782 769.625,206.064 792.862,199.531 797.244,198.295 819.578,193.266 
		823.818,192.306 831.315,190.897 832.746,190.627 846.784,188.343 849.465,187.901 856.15,186.949 857.427,186.766 
		882.959,183.648 887.809,183.05 917.239,180.058 922.782,179.491 955.534,176.792 961.677,176.288 996.386,174.232 
		1002.909,173.854 1031.773,172.736 1037.235,172.535 1059.03,171.953 1063.178,171.854 1069.521,171.744 1089.996,171.348 
		1117.278,170.989 1126.182,170.897 1155.094,170.804 1164.244,170.799 1190.653,171.168 1199.01,171.307 1225.061,172.396 
		1233.293,172.761 1247.115,173.773 1251.479,174.102 1264.817,175.464 1269.026,175.901 1292.344,179.485 1299.694,180.625 
		1321.53,185.842 1328.411,187.491 1347.838,194.085 1353.964,196.163 1367.434,201.965 1371.69,203.79 1388.096,212.238 
		1393.29,214.896 1408.163,223.881 1412.885,226.706 1425.363,235.358 1429.333,238.078 1437.576,244.498 1440.205,246.517 
		1450.018,255.05 1453.157,257.73 1460.849,265.014 1463.316,267.301 1469.771,273.441 1471.847,275.37 1479.424,281.951 
		1481.86,284.015 1492.796,291.559 1496.298,293.918 1502.163,297.023 1504.034,297.993 1510.395,300.723 1512.418,301.572 
		1518.161,303.539 1519.985,304.148 1526.005,305.747 1527.914,306.238 1534.002,307.404 1535.931,307.759 1542.158,308.505 
		1544.129,308.728 1550.421,309.034 1552.412,309.118 1557.933,309.012 1559.677,308.967 1565.418,308.485 1567.23,308.321 
		1573.122,307.417 1574.979,307.122 1580.938,305.765 1582.814,305.327 1589.639,303.187 1591.785,302.501 1598.452,299.734 
		1600.547,298.853 1606.744,295.608 1608.688,294.577 1614.583,290.811 1616.431,289.618 1627.045,281.107 1630.363,278.414 
		1640.249,269.117 1643.331,266.178 1650.086,259.874 1652.188,257.882 1663.309,248.623 1666.768,245.699 1683.973,234.1 
		1689.328,230.438 1704.024,222.329 1708.605,219.769 1725.509,211.88 1730.785,209.389 1742.964,204.577 1746.771,203.056 
		1770.734,195.552 1778.236,193.179 1792.006,189.89 1796.322,188.849 1811.378,185.957 1816.1,185.042 1832.401,182.597 
		1837.518,181.822 1854.944,179.861 1860.418,179.238 1897.778,176.836 1909.526,176.069 1936.184,175.579 1944.577,175.42 
		1971.005,175.826 1979.336,175.953 2004.684,177.167 2012.685,177.551 2036.246,179.487 2043.692,180.101 2074.423,184.148 
		2084.146,185.434 2110.872,190.995 2119.33,192.757 2130.944,195.92 2134.615,196.921 2146.111,200.499 2149.743,201.628 
		2167.044,207.773 2172.506,209.713 2198.969,220.857 2207.331,224.374 2229.831,236.122 2236.979,239.831 2250.906,248.608 
		2255.359,251.384 2263.313,256.707 2265.862,258.393 2277.381,265.628 2281.066,267.921 2297.712,276.183 2303.013,278.804 
		2317.171,283.978 2321.664,285.622 2338.538,290.247 2343.885,291.72 2360.901,295.22 2366.288,296.338 2385.427,299.29 
		2391.483,300.234 2415.931,302.909 2423.662,303.768 2450.203,305.628 2458.596,306.231 2486.571,307.286 2495.421,307.633 
		2524.051,307.923 2533.115,308.028 2581.153,306.954 2596.398,306.633 2619.02,305.456 2626.225,305.093 2647.384,303.553 
		2654.147,303.074 2677.945,300.723 2685.593,299.988 	"/>
</g>
<g id="pockets">
</g>
<g id="ids">
	<line fill="none" stroke="#622B8A" stroke-miterlimit="10" x1="2452.557" y1="259.59" x2="2452.557" y2="281.38"/>
	<polyline fill="none" stroke="#622B8A" stroke-miterlimit="10" points="1100.961,1166.857 1100.961,1210.388 1101.663,1218.201 
		1103.688,1225.56 1106.912,1232.34 1111.214,1238.417 1116.468,1243.667 1122.55,1247.966 1129.339,1251.191 1136.709,1253.217 
		1144.541,1253.921 1166.227,1253.921 1174.054,1253.218 1181.416,1251.192 1188.189,1247.97 1194.253,1243.671 1199.488,1238.423 
		1203.771,1232.345 1206.982,1225.564 1208.996,1218.204 1209.695,1210.388 1209.695,1166.857 1296.992,1166.857 1296.992,1253.921 
			"/>
	<polyline fill="none" stroke="#622B8A" stroke-miterlimit="10" points="905.708,841.503 905.708,885.033 840.952,844.81 
		840.893,844.762 840.832,844.716 840.771,844.671 840.709,844.628 840.643,844.585 840.576,844.544 840.507,844.503 
		840.433,844.463 840.354,844.423 836.789,842.762 833.094,841.791 829.35,841.487 825.643,841.827 822.055,842.786 
		818.673,844.341 815.576,846.467 812.851,849.141 810.581,852.339 808.943,855.915 807.987,859.616 807.693,863.362 
		808.036,867.069 808.999,870.653 810.557,874.033 812.688,877.124 815.373,879.847 818.59,882.114 824.072,884.972 	"/>
	<polyline fill="none" stroke="#622B8A" stroke-miterlimit="10" points="905.708,769.039 905.708,812.571 840.952,772.347 
		840.893,772.299 840.832,772.253 840.771,772.209 840.709,772.165 840.643,772.123 840.576,772.083 840.507,772.04 
		840.433,772.001 840.354,771.96 836.789,770.299 833.094,769.328 829.35,769.026 825.643,769.365 822.055,770.323 818.673,771.878 
		815.576,774.005 812.851,776.679 810.581,779.877 808.943,783.452 807.987,787.155 807.693,790.899 808.036,794.608 
		808.999,798.19 810.557,801.571 812.688,804.662 815.373,807.384 818.59,809.651 824.072,812.51 	"/>
	<polyline fill="none" stroke="#622B8A" stroke-miterlimit="10" points="2506.925,281.38 2408.907,259.59 2408.907,303.176 	"/>
</g>
</svg>
