<?xml version="1.0" encoding="utf-8"?>
<!-- Generator: Adobe Illustrator 16.0.0, SVG Export Plug-In . SVG Version: 6.00 Build 0)  -->
<!DOCTYPE svg PUBLIC "-//W3C//DTD SVG 1.1//EN" "http://www.w3.org/Graphics/SVG/1.1/DTD/svg11.dtd">
<svg version="1.1" xmlns="http://www.w3.org/2000/svg" xmlns:xlink="http://www.w3.org/1999/xlink" x="0px" y="0px"
	 width="2834.646px" height="1417.322px" viewBox="0 0 2834.646 1417.322" enable-background="new 0 0 2834.646 1417.322"
	 xml:space="preserve">
<g id="profiles">
	<polyline fill="none" stroke="#0000FF" stroke-width="1" stroke-miterlimit="10" points="47.846,1195.72 47.846,1212.089 
		47.846,1218.664 47.846,1269.879 47.846,1276.333 47.846,1379.646 103.13,1379.646 214.523,1379.646 214.523,1342.791 
		214.523,1268.529 244.008,1268.529 303.417,1268.529 303.417,1305.385 303.417,1379.646 317.238,1379.646 345.087,1379.646 
		345.087,1342.791 345.087,1268.529 1767.206,1268.529 2472.998,1268.529 2472.998,1305.385 2472.998,1379.646 2486.819,1379.646 
		2514.668,1379.646 2514.668,1342.791 2514.668,1268.529 2544.152,1268.529 2603.562,1268.529 2603.562,1305.385 2603.562,1379.646 
		2658.848,1379.646 2770.24,1379.646 2770.24,1153.134 2770.24,1127.555 2770.24,1114.633 2764.572,1115.098 2758.319,1115.634 
		2738.215,1116.7 2725.057,1117.232 2714.807,1118.164 2700.501,1119.438 2688.366,1119.883 2676.259,1121.346 2666.646,1122.291 
		2659.171,1123.403 2643.887,1126.05 2638.275,1127.191 2626.676,1129.758 2620.843,1131.31 2608.681,1134.646 2601.768,1137.145 
		2587.225,1142.268 2580.192,1145.725 2565.233,1152.537 2560.334,1155.496 2549.81,1161.175 2542.995,1165.826 2528.208,1174.561 
		2518.489,1180.979 2497.146,1192.641 2492.625,1194.899 2482.629,1198.792 2478.124,1200.239 2468.146,1202.513 2464.1,1203.005 
		2455.133,1203.445 2451.123,1203.124 2442.258,1201.962 2438.309,1200.873 2429.6,1198.199 2425.739,1196.441 2417.249,1192.443 
		2412.804,1189.656 2403.062,1183.497 2398.81,1180.165 2389.527,1172.87 2385.75,1169.413 2377.521,1161.854 2374.167,1158.411 
		2366.866,1150.851 2363.682,1147.237 2356.739,1139.272 2353.324,1134.993 2345.865,1125.513 2342.649,1121.041 2335.601,1111.098 
		2329.699,1101.533 2316.706,1080.177 2311.54,1070.073 2300.193,1047.509 2297.583,1041.86 2291.904,1029.27 2288.508,1021.904 
		2281.177,1005.525 2278.058,999.53 2271.33,986.229 2268.846,982.312 2263.448,973.63 2260.672,970.144 2254.587,962.417 
		2251.479,959.45 2244.6,952.87 2241.17,950.5 2233.524,945.232 2229.838,943.527 2221.562,939.716 2217.734,938.725 
		2209.1,936.476 2205.27,936.221 2196.596,935.586 2192.905,936.07 2184.517,937.048 2182.163,937.775 2176.803,939.312 
		2174.589,940.342 2169.539,942.539 2166.808,944.37 2160.562,948.299 2157.619,951.14 2150.868,957.274 2148.291,960.698 
		2142.378,968.135 2139.816,972.553 2133.966,982.208 2131.677,986.977 2126.5,997.458 2122.404,1006.612 2113.326,1026.869 
		2110.517,1032.463 2104.398,1044.873 2102.909,1047.482 2099.688,1053.264 2096.503,1058.122 2089.635,1068.859 2082.512,1077.287 
		2067.183,1095.799 2057.575,1104.346 2036.851,1123.013 2028.051,1129.254 2008.845,1142.989 2000.155,1147.949 1980.85,1159.079 
		1977.879,1160.505 1971.218,1163.75 1965.627,1166.089 1953.067,1171.442 1950.406,1172.42 1944.456,1174.652 1934.438,1177.795 
		1912.392,1184.841 1901.137,1187.73 1877.146,1193.929 1864.789,1196.451 1838.927,1201.694 1825.704,1203.559 1797.873,1207.348 
		1786.62,1208.294 1762.427,1210.118 1753.762,1210.537 1734.782,1211.224 1723.071,1211.484 1705.885,1211.642 1668.534,1211.275 
		1666.176,1211.233 1625.589,1209.534 1624.157,1209.45 1587.552,1206.229 1586.212,1206.085 1550.901,1200.532 1549.558,1200.293 
		1531.242,1196 1530.531,1195.817 1513.176,1190.504 1512.486,1190.278 1482.939,1177.393 1481.716,1176.83 1454.851,1159.223 
		1453.685,1158.421 1430.16,1136.945 1429.085,1135.921 1412.752,1117.368 1411.97,1116.445 1391.877,1089.777 1390.851,1088.378 
		1372.399,1060.381 1371.396,1058.831 1355.748,1032.24 1354.846,1030.699 1344.386,1011.195 1343.758,1010.028 1331.041,984.4 
		1330.237,982.804 1319.92,961.146 1319.232,959.753 1310.329,941.651 1309.709,940.456 1299.185,921.298 1298.426,920.001 
		1283.62,898.637 1282.527,897.158 1274.863,888.684 1274.296,888.098 1266.187,880.908 1265.585,880.414 1258.405,875.473 
		1257.868,875.137 1250.451,871.363 1249.896,871.112 1242.474,868.651 1241.915,868.498 1234.375,867.292 1233.806,867.231 
		1226.212,867.312 1225.634,867.349 1218.992,868.469 1218.486,868.577 1211.603,870.751 1211.076,870.938 1204.022,874.272 
		1203.48,874.546 1196.341,879.111 1195.788,879.477 1187.599,886.29 1186.96,886.827 1178.925,895.312 1178.295,895.975 
		1170.788,905.693 1170.195,906.448 1163.022,917.541 1162.452,918.397 1149.481,943.083 1148.44,944.986 1136.443,971.659 
		1135.478,973.714 1127.429,991.736 1126.783,993.125 1113.828,1019.598 1112.801,1021.644 1093.174,1054.917 1091.632,1057.498 
		1074.987,1080.888 1073.686,1082.708 1054.527,1105.615 1053.034,1107.406 1039.218,1121.506 1038.143,1122.612 1010.977,1144.937 
		1008.863,1146.703 993.269,1156.704 992.059,1157.502 975.014,1166.48 973.694,1167.204 955.218,1175.006 953.788,1175.644 
		933.986,1182.144 932.455,1182.684 889.665,1191.459 886.353,1192.218 855.405,1194.894 852.999,1195.153 821.846,1195.123 
		819.412,1195.169 788.992,1192.615 786.599,1192.463 757.767,1187.618 755.483,1187.281 717.12,1176.455 714.064,1175.67 
		680.522,1160.594 677.854,1159.493 663.508,1150.998 662.377,1150.38 648.401,1140.852 647.309,1140.162 626.592,1123.91 
		624.987,1122.743 593.049,1093.229 590.579,1091.114 561.66,1059.427 559.373,1057.139 540.127,1032.876 538.567,1031.107 
		527.398,1016.135 526.491,1015.035 510.891,994.379 509.646,992.854 488.844,968.781 487.244,966.991 470.605,951.544 
		469.367,950.385 450.154,936.203 448.749,935.127 429.752,924.054 428.381,923.203 407.298,913.515 405.789,912.761 
		379.156,903.51 377.267,902.774 348.588,895.735 346.566,895.159 316.417,890.369 314.3,889.954 283.302,887.332 281.124,887.074 
		228.026,887.108 224.265,886.997 198.395,888.884 196.535,888.964 171.53,891.928 169.706,892.089 140.247,897.106 
		138.057,897.404 110.479,903.779 108.375,904.18 82.765,911.809 80.754,912.301 55.895,921.456 55.178,921.684 55.138,921.695 
		55.021,921.75 47.846,926.056 47.846,927.32 47.846,928.07 47.846,928.818 47.846,929.088 47.846,930.646 47.846,931.068 
		47.846,931.469 47.846,933.082 47.846,933.562 47.846,933.955 47.846,934.304 47.846,942.71 47.846,946.358 47.846,947.707 
		47.846,949.438 47.846,950.215 47.846,951.794 47.846,952.653 47.846,954.114 47.846,955.438 47.846,960.022 47.846,964.222 
		47.846,966.808 47.846,968.171 47.846,969.604 47.846,1195.72 	"/>
	<polyline fill="none" stroke="#0000FF" stroke-width="1" stroke-miterlimit="10" points="2779.183,763.819 2779.183,745.496 
		2779.183,738.135 2779.183,680.805 2779.183,673.581 2779.183,557.932 2717.296,557.932 2612.504,557.932 2612.504,599.188 
		2612.504,669.049 2579.499,669.049 2523.61,669.049 2523.61,627.793 2523.61,557.932 2508.141,557.932 2481.939,557.932 
		2481.939,599.188 2481.939,669.049 1144.096,669.049 354.027,669.049 354.027,627.793 354.027,557.932 338.558,557.932 
		312.359,557.932 312.359,599.188 312.359,669.049 279.354,669.049 223.465,669.049 223.465,627.793 223.465,557.932 
		161.58,557.932 56.787,557.932 56.787,811.491 56.787,820.204 70.307,817.884 82.877,816.428 112.665,812.821 113.538,812.749 
		114.554,812.663 139.118,809.438 140.053,809.354 162.711,806.074 165.225,805.725 190.866,801.672 206.641,799.105 
		208.545,798.849 209.336,798.711 227.994,794.891 228.599,794.757 243,791.26 243.634,791.085 258.924,786.775 259.686,786.507 
		278.213,780.28 278.997,779.923 298.347,772.117 298.899,771.818 312.696,765.579 313.477,765.119 333.115,755.876 
		334.242,755.262 363.032,743.646 363.562,743.44 377.168,739.953 377.695,739.835 391.313,738.238 391.786,738.215 
		404.026,738.631 404.492,738.691 416.581,740.936 417.041,741.075 428.885,745.052 429.332,745.263 440.837,750.781 
		441.351,751.104 454.5,759.335 454.987,759.718 467.466,769.359 467.899,769.755 478.937,779.748 479.319,780.145 489.109,790.189 
		489.473,790.606 498.795,801.259 499.186,801.756 509.242,814.52 509.611,815.04 519.167,828.505 519.847,829.623 537.571,858.694 
		538.164,859.875 553.616,890.651 553.914,891.312 561.559,908.464 561.943,909.323 571.708,931.593 572.061,932.29 
		580.999,950.343 581.283,950.799 588.51,962.574 588.832,962.981 597.065,973.461 597.429,973.81 606.837,982.746 607.242,983.025 
		617.795,990.201 618.234,990.402 629.744,995.622 630.204,995.743 642.283,998.864 642.746,998.897 654.935,999.853 
		655.386,999.801 667.216,998.583 667.505,998.501 675.085,996.501 675.358,996.38 682.512,993.488 682.851,993.275 
		691.726,988.063 692.094,987.729 701.727,979.521 702.052,979.113 710.505,969.08 710.828,968.544 719.163,955.406 
		719.452,954.818 726.753,940.43 727.267,939.281 739.802,911.184 740.156,910.464 748.455,893.136 748.645,892.795 
		752.996,884.714 753.403,884.076 762.677,869.085 763.598,867.97 784.344,842.224 785.625,841.067 813.952,815.122 
		815.178,814.245 841.957,794.875 843.222,794.145 870.829,778.033 871.278,777.815 880.942,773.028 881.792,772.666 
		900.079,764.712 900.487,764.559 909.129,761.243 910.651,760.757 942.189,750.471 943.877,750.034 977.134,741.366 
		978.982,740.99 1014.181,733.896 1016.189,733.621 1054.417,728.604 1056.174,728.471 1090.267,726.202 1091.643,726.152 
		1118.942,725.498 1127.116,725.518 1149.704,725.674 1179.554,726.771 1192.308,727.2 1195.854,727.408 1237.129,730.53 
		1240.269,730.865 1277.255,735.533 1280.202,736.056 1315.355,743.023 1316.839,743.402 1334.771,748.383 1336.146,748.834 
		1352.896,754.737 1355.177,755.788 1383.085,769.449 1385.069,770.812 1409.815,788.777 1411.48,790.364 1432.896,811.844 
		1434.01,813.154 1448.97,831.575 1450.304,833.394 1469.024,859.802 1470.204,861.62 1487.755,889.292 1488.714,890.931 
		1503.865,917.128 1504.48,918.273 1514.781,937.421 1515.511,938.866 1528.356,963.964 1528.93,965.123 1539.754,986.305 
		1540.234,987.232 1549.873,1004.911 1550.424,1005.856 1562,1024.471 1562.742,1025.472 1578.895,1045.838 1579.259,1046.211 
		1587.449,1054.028 1587.822,1054.332 1596.352,1060.729 1596.674,1060.93 1604.13,1065.112 1604.455,1065.258 1612.088,1068.211 
		1612.407,1068.299 1619.994,1069.926 1620.315,1069.961 1627.999,1070.33 1628.317,1070.311 1636.058,1069.417 1636.332,1069.357 
		1643.104,1067.573 1643.389,1067.475 1650.417,1064.676 1650.707,1064.53 1657.93,1060.637 1658.222,1060.443 1665.564,1055.404 
		1665.899,1055.123 1674.377,1047.886 1674.704,1047.541 1683.089,1038.778 1683.394,1038.39 1691.299,1028.542 1691.591,1028.104 
		1699.219,1017.014 1699.746,1016.047 1713.684,991.685 1714.171,990.651 1727.079,964.553 1727.402,963.858 1735.938,946.255 
		1736.452,945.234 1749.885,919.331 1750.651,918.045 1770.496,885.305 1771.145,884.397 1787.775,861.211 1788.521,860.317 
		1807.604,837.421 1808.143,836.866 1821.869,822.631 1822.93,821.745 1849.803,798.828 1850.413,798.424 1865.769,787.922 
		1866.438,787.556 1883.183,777.926 1883.908,777.603 1902.042,769.011 1902.825,768.735 1922.284,761.32 1923.985,760.932 
		1966.301,750.084 1967.546,749.948 1998.531,745.793 1999.801,745.769 2031.446,744.39 2032.704,744.471 2064.133,745.761 
		2065.343,745.938 2095.667,749.688 2097.301,750.107 2138.377,759.486 2139.823,760.081 2175.887,773.495 2176.506,773.834 
		2191.696,781.337 2192.298,781.716 2206.863,790.062 2207.753,790.708 2228.997,804.84 2230.383,806.024 2263.294,831.769 
		2264.595,833.07 2296.029,861.379 2296.929,862.399 2319.021,884.726 2319.55,885.364 2332.482,899.418 2333.213,900.312 
		2350.726,920.021 2351.674,921.081 2373.397,944.561 2374.141,945.256 2390.455,960.702 2391.303,961.351 2409.477,975.903 
		2410.309,976.42 2427.858,988.117 2428.779,988.578 2447.926,999.144 2449.087,999.596 2472.916,1010.121 2474.167,1010.479 
		2499.526,1019.018 2500.844,1019.276 2527.362,1025.734 2528.726,1025.895 2556.085,1030.316 2558.452,1030.386 2606.344,1033.64 
		2607.522,1033.588 2631.688,1033.411 2632.85,1033.31 2656.965,1032.077 2658.361,1031.888 2687.995,1029.019 2689.341,1028.764 
		2718.583,1024.524 2719.871,1024.209 2748.649,1018.688 2770.92,1013.684 2778.051,1011.415 2779.183,1011.098 2779.183,1010.713 
		2779.183,1009.87 2779.183,1008.295 2779.183,1007.93 2779.183,1007.565 2779.183,1006.951 2779.183,1006.123 2779.183,1005.357 
		2779.183,1004.632 2779.183,1003.646 2779.183,1002.882 2779.183,1002.254 2779.183,1001.699 2779.183,988.311 2779.183,985.225 
		2779.183,983.24 2779.183,981.765 2779.183,980.656 2779.183,979.303 2779.183,978.103 2779.183,976.845 2779.183,975.706 
		2779.183,971.762 2779.183,966.364 2779.183,964.102 2779.183,962.911 2779.183,961.655 2779.183,763.819 	"/>
	<polyline fill="none" stroke="#0000FF" stroke-width="1" stroke-miterlimit="10" points="2767.79,298.804 2767.79,101.73 
		2767.79,97.089 2767.79,95.225 2767.79,80.7 2767.79,78.87 2767.79,49.572 2752.111,49.572 2601.112,49.572 2601.112,60.022 
		2601.112,160.688 2592.751,160.688 2512.219,160.688 2512.219,150.238 2512.219,49.572 2508.3,49.572 2470.55,49.572 
		2470.55,60.022 2470.55,160.688 542.788,160.688 342.637,160.688 342.637,150.238 342.637,49.572 338.718,49.572 300.968,49.572 
		300.968,60.022 300.968,160.688 292.606,160.688 212.072,160.688 212.072,150.238 212.072,49.572 196.396,49.572 45.395,49.572 
		45.395,113.808 45.395,121.061 45.395,126.004 45.395,131.735 45.395,138.168 45.395,145.22 45.395,152.763 45.395,181.362 
		45.395,209.461 45.395,370.848 45.395,371.791 45.395,372.846 45.395,374.006 45.395,374.678 45.395,375.111 45.395,375.556 
		45.395,375.988 45.395,376.419 45.395,376.936 57.067,375.213 72.746,372.901 85.497,370.036 98.962,367.113 112.253,363.273 
		126.295,359.313 142.173,353.801 158.944,347.989 175.324,341.422 192.611,334.3 204.14,329.163 216.304,323.479 232.399,315.573 
		249.395,306.751 272.183,294.477 296.298,280.939 306.797,275.326 317.942,269.305 328.419,264.225 339.55,258.932 
		349.066,255.115 359.18,251.293 368.792,248.478 379,245.832 388.713,244.197 399.014,242.885 408.781,242.53 419.125,242.614 
		430.646,243.832 442.842,245.683 453.964,248.514 465.753,252.045 475.498,255.913 485.868,260.469 494.215,264.948 
		503.151,270.085 510.66,275.234 518.769,281.059 526.273,287.555 534.464,294.844 541.018,301.934 548.255,309.85 559.244,325.601 
		571.572,343.154 580.292,360.177 590.267,379.187 594.296,388.738 598.994,399.449 603.922,411.813 609.749,425.746 
		614.31,435.615 619.696,446.812 623.567,453.089 628.09,460.257 632.68,465.654 637.991,471.865 643.355,476.245 649.526,481.325 
		655.538,484.583 662.443,488.403 668.859,490.469 676.245,492.936 682.727,493.797 690.229,494.871 696.456,494.572 
		703.722,494.285 709.426,492.913 716.143,491.34 719.61,489.879 723.727,488.162 726.859,486.328 730.607,484.146 734.324,481.147 
		738.805,477.537 742.655,473.15 747.341,467.821 750.57,462.765 754.543,456.564 757.634,450.27 761.481,442.478 764.195,435.9 
		767.609,427.672 772.607,415.563 778.956,400.173 782.561,393.091 787.181,383.916 789.122,380.691 791.628,376.463 
		795.784,370.573 801.198,362.77 810.305,352.782 822.395,339.294 834.261,329.102 850.448,315.062 861.37,307.224 876.556,296.312 
		887.822,289.551 903.637,280.109 907.609,278.046 913.227,275.155 920.786,271.666 931.548,266.757 935.129,265.283 
		940.283,263.192 953.366,258.595 972.521,251.955 986.279,248.099 1007.072,242.316 1021.519,239.079 1043.885,234.088 
		1059.215,231.488 1083.202,227.451 1096.426,225.86 1117.134,223.396 1127.465,222.53 1143.597,221.181 1169.406,219.749 
		1171.123,219.659 1173.457,219.619 1209.89,218.907 1218.3,219.185 1250.671,220.065 1258.417,220.804 1287.664,223.38 
		1295.282,224.737 1323.419,229.513 1327.429,230.575 1341.904,234.277 1345.722,235.59 1359.301,240.126 1365.749,243.277 
		1388.298,254.051 1393.956,258.317 1413.218,272.521 1417.822,277.679 1433.099,294.296 1436.052,298.733 1445.61,312.555 
		1449.04,318.936 1459.864,338.213 1463.047,345.098 1472.669,365.03 1475.667,371.975 1484.229,391.191 1486.547,396.672 
		1492.808,411.223 1496.139,418.999 1504.668,438.907 1507.862,445.975 1515.608,463.361 1518.663,469.512 1525.79,484.196 
		1529.59,490.804 1538.208,506.214 1543.607,513.514 1555.579,530.196 1558.35,533.035 1564.385,539.429 1567.283,541.8 
		1573.556,547.127 1576.101,548.748 1581.568,552.383 1584.179,553.629 1589.76,556.437 1592.355,557.284 1597.879,559.21 
		1600.51,559.694 1606.075,560.823 1608.725,560.948 1614.305,561.291 1616.631,561.112 1621.51,560.787 1623.939,560.332 
		1629.021,559.399 1631.544,558.636 1636.798,557.04 1639.402,555.948 1644.797,553.644 1647.874,551.962 1654.207,548.396 
		1657.353,546.236 1663.778,541.668 1666.866,539.126 1673.122,533.761 1676.238,530.782 1682.5,524.518 1688.555,517.629 
		1700.603,503.237 1706.442,495.434 1717.987,479.29 1721.759,473.822 1729.23,462.605 1734.729,454.319 1745.738,437.451 
		1752.884,426.69 1767.438,404.973 1772.879,397.227 1784.09,381.708 1790.08,373.975 1802.456,358.57 1806.708,353.701 
		1815.484,344.056 1823.786,336.05 1840.884,320.318 1845.637,316.541 1855.402,309.195 1860.601,305.643 1871.267,298.792 
		1876.929,295.518 1888.518,289.263 1894.65,286.311 1907.159,280.743 1920.808,275.956 1948.45,267.136 1958.853,264.77 
		1979.703,260.601 1990.83,259.017 2012.898,256.425 2024.611,255.604 2047.57,254.533 2059.685,254.449 2083.147,254.83 
		2101.143,255.996 2135.551,259.083 2152.791,261.801 2185.482,267.947 2192.886,269.748 2206.949,273.682 2213.896,275.833 
		2227.159,280.475 2236.701,284.343 2255.091,292.608 2268.569,299.952 2294.781,315.506 2306.839,323.425 2330.183,340.123 
		2337.996,346.161 2353.076,358.855 2357.611,362.682 2366.355,370.663 2372.719,376.203 2385.019,387.632 2393.131,394.578 
		2409.004,408.698 2414.886,413.464 2426.6,423.024 2432.725,427.638 2445.135,436.79 2450.683,440.576 2462.091,448.013 
		2467.875,451.5 2479.907,458.275 2486.919,461.842 2501.624,468.671 2509.04,471.674 2524.65,477.315 2532.453,479.721 
		2548.869,484.117 2556.974,485.934 2573.963,489.105 2588.103,490.966 2617.512,493.814 2624.532,494.228 2638.984,494.588 
		2645.857,494.704 2659.892,494.451 2668.118,494.222 2684.732,493.145 2692.581,492.534 2708.217,490.677 2715.656,489.709 
		2730.244,487.127 2750.04,482.749 2750.529,482.627 2750.788,482.586 2750.978,482.552 2751.088,482.52 2756.341,480.695 
		2767.79,476.678 2767.79,476.243 2767.79,475.98 2767.79,475.713 2767.79,474.852 2767.79,473.992 2767.79,473.194 
		2767.79,472.056 2767.79,471.594 2767.79,470.864 2767.79,470.388 2767.79,298.804 	"/>
</g>
<g id="follow_x5F_paths">
	<polyline fill="none" stroke="#DB2526" stroke-width="1" stroke-miterlimit="10" points="2688.233,1199.832 2676.125,1200.417 
		2666.514,1200.795 2659.038,1201.24 2643.755,1202.299 2638.144,1202.755 2626.543,1203.782 2620.709,1204.402 2608.547,1205.737 
		2601.636,1206.736 2587.094,1208.785 2580.061,1210.168 2565.102,1212.894 2560.202,1214.077 2549.678,1216.349 2542.862,1218.209 
		2528.075,1221.702 2518.356,1224.271 2497.014,1228.935 2492.493,1229.838 2482.497,1231.396 2477.992,1231.975 2468.014,1232.884 
		2463.967,1233.081 2454.999,1233.257 2450.991,1233.129 2442.125,1232.663 2438.177,1232.228 2429.468,1231.158 2425.607,1230.456 
		2417.117,1228.856 2412.672,1227.741 2402.932,1225.277 2398.677,1223.945 2389.395,1221.027 2385.617,1219.644 2377.391,1216.621 
		2374.034,1215.243 2366.734,1212.22 2363.549,1210.773 2356.607,1207.587 2353.192,1205.876 2345.733,1202.083 2342.518,1200.295 
		2335.469,1196.317 2329.567,1192.491 2316.573,1183.949 2311.408,1179.908 2300.061,1170.882 2297.451,1168.623 2291.772,1163.586 
		2288.375,1160.641 2281.044,1154.089 2277.925,1151.691 2271.198,1146.371 2268.713,1144.803 2263.316,1141.33 2260.54,1139.936 
		2254.454,1136.846 2251.346,1135.659 2244.467,1133.027 2241.038,1132.078 2233.393,1129.971 2229.706,1129.289 2221.432,1127.766 
		2217.603,1127.368 2208.967,1126.47 2205.138,1126.367 2196.463,1126.112 2192.772,1126.307 2184.385,1126.698 2182.031,1126.989 
		2176.671,1127.604 2174.457,1128.016 2169.407,1128.895 2166.677,1129.627 2160.432,1131.198 2157.487,1132.334 2150.736,1134.789 
		2148.159,1136.157 2142.245,1139.133 2139.685,1140.899 2133.833,1144.762 2131.545,1146.669 2126.368,1150.862 2122.272,1154.523 
		2113.193,1162.626 2110.384,1164.863 2104.267,1169.828 2102.777,1170.872 2099.558,1173.184 2096.371,1175.128 2089.502,1179.422 
		2082.379,1182.794 2067.051,1190.198 2057.443,1193.616 2036.719,1201.083 2027.919,1203.58 2008.713,1209.074 2000.023,1211.059 
		1980.717,1215.511 1977.747,1216.081 1971.084,1217.379 1965.495,1218.313 1952.936,1220.456 1950.274,1220.847 1944.324,1221.74 
		1934.308,1222.996 1912.259,1225.815 1901.005,1226.971 1877.017,1229.45 1864.656,1230.459 1838.794,1232.557 1825.572,1233.302 
		1797.741,1234.817 1786.488,1235.195 1762.295,1235.926 1753.63,1236.094 1734.649,1236.368 1722.939,1236.473 1705.753,1236.535 
		1668.402,1236.39 1666.043,1236.372 1625.457,1235.692 1624.025,1235.659 1587.42,1234.37 1586.08,1234.312 1550.77,1232.091 
		1549.427,1231.995 1531.11,1230.278 1530.399,1230.206 1513.042,1228.08 1512.354,1227.99 1482.808,1222.836 1481.584,1222.61 
		1454.718,1215.568 1453.553,1215.247 1430.027,1206.657 1428.954,1206.247 1412.62,1198.826 1411.837,1198.457 1391.744,1187.79 
		1390.72,1187.229 1372.267,1176.031 1371.263,1175.411 1355.615,1164.774 1354.714,1164.158 1344.254,1156.356 1343.625,1155.891 
		1330.91,1145.639 1330.104,1145 1319.788,1136.336 1319.1,1135.779 1310.196,1128.539 1309.576,1128.061 1299.052,1120.398 
		1298.293,1119.879 1283.488,1111.333 1282.395,1110.741 1274.731,1107.352 1274.163,1107.118 1266.055,1104.241 1265.452,1104.044 
		1258.273,1102.067 1257.735,1101.933 1250.319,1100.424 1249.764,1100.323 1242.342,1099.34 1241.783,1099.278 1234.243,1098.796 
		1233.674,1098.771 1226.079,1098.804 1225.501,1098.817 1218.861,1099.266 1218.354,1099.31 1211.473,1100.179 1210.943,1100.254 
		1203.891,1101.588 1203.348,1101.697 1196.209,1103.523 1195.656,1103.669 1187.466,1106.395 1186.828,1106.609 1178.793,1110.004 
		1178.163,1110.269 1170.656,1114.156 1170.064,1114.458 1162.891,1118.896 1162.319,1119.238 1149.35,1129.111 1148.309,1129.873 
		1136.311,1140.543 1135.346,1141.363 1127.297,1148.573 1126.651,1149.129 1113.696,1159.718 1112.668,1160.536 1093.041,1173.846 
		1091.5,1174.878 1074.854,1184.233 1073.554,1184.962 1054.397,1194.125 1052.901,1194.842 1039.087,1200.481 1038.01,1200.924 
		1010.844,1209.854 1008.73,1210.56 993.136,1214.561 991.926,1214.88 974.882,1218.471 973.562,1218.761 955.085,1221.882 
		953.655,1222.136 933.854,1224.736 932.322,1224.952 889.532,1228.462 886.221,1228.766 855.272,1229.836 852.867,1229.939 
		821.714,1229.929 819.279,1229.946 788.859,1228.926 786.466,1228.864 757.634,1226.926 755.353,1226.791 716.987,1222.461 
		713.933,1222.146 680.391,1216.116 677.722,1215.676 663.376,1212.277 662.244,1212.031 648.269,1208.219 647.177,1207.943 
		626.46,1201.443 624.856,1200.977 592.917,1189.17 590.447,1188.324 561.527,1175.649 559.242,1174.734 539.995,1165.029 
		538.437,1164.322 527.267,1158.333 526.359,1157.893 510.76,1149.631 509.515,1149.02 488.712,1139.392 487.111,1138.676 
		470.474,1132.497 469.235,1132.032 450.021,1126.36 448.618,1125.93 429.62,1121.5 428.248,1121.16 407.165,1117.285 
		405.656,1116.982 379.023,1113.282 377.134,1112.988 348.456,1110.173 346.435,1109.942 316.284,1108.026 314.167,1107.861 
		283.169,1106.811 280.992,1106.709 227.894,1106.722 224.133,1106.678 198.264,1107.432 196.402,1107.465 171.398,1108.649 
		169.574,1108.715 140.115,1110.722 137.925,1110.84 	"/>
	<polyline fill="none" stroke="#DB2526" stroke-width="1" stroke-miterlimit="10" points="136.472,733.956 137.406,733.922 
		160.064,732.61 162.578,732.471 188.22,730.85 203.994,729.823 205.899,729.721 206.689,729.665 225.349,728.138 225.952,728.084 
		240.354,726.685 240.989,726.615 256.277,724.892 257.039,724.784 275.566,722.293 276.353,722.15 295.7,719.027 296.255,718.908 
		310.05,716.412 310.829,716.229 330.47,712.531 331.596,712.285 360.388,707.639 360.915,707.558 374.521,706.162 375.049,706.114 
		388.668,705.477 389.141,705.468 401.38,705.633 401.846,705.658 413.935,706.555 414.395,706.611 426.238,708.202 
		426.686,708.286 438.191,710.494 438.704,710.623 451.854,713.915 452.342,714.068 464.819,717.924 465.253,718.083 
		476.29,722.081 476.674,722.238 486.463,726.257 486.826,726.424 496.147,730.685 496.539,730.884 506.596,735.989 
		506.965,736.197 516.521,741.583 517.2,742.03 534.925,753.659 535.519,754.131 550.97,766.441 551.269,766.706 558.914,773.566 
		559.298,773.91 569.062,782.818 569.413,783.097 578.354,790.318 578.638,790.501 585.864,795.21 586.186,795.374 594.42,799.565 
		594.782,799.704 604.191,803.28 604.596,803.391 615.149,806.262 615.588,806.343 627.098,808.43 627.558,808.479 639.637,809.727 
		640.099,809.74 652.288,810.122 652.739,810.102 664.57,809.614 664.859,809.581 672.438,808.781 672.713,808.733 679.864,807.576 
		680.204,807.491 689.08,805.406 689.448,805.272 699.081,801.99 699.406,801.826 707.858,797.813 708.183,797.599 716.517,792.343 
		716.807,792.108 724.107,786.353 724.621,785.894 737.155,774.654 737.51,774.366 745.809,767.436 745.997,767.3 750.35,764.066 
		750.758,763.812 760.029,757.815 760.952,757.369 781.695,747.07 782.979,746.608 811.306,736.23 812.532,735.879 839.311,728.131 
		840.576,727.839 868.185,721.395 868.632,721.308 878.296,719.393 879.146,719.248 897.433,716.065 897.842,716.005 
		906.483,714.678 908.006,714.483 939.543,710.369 941.231,710.195 974.487,706.727 976.336,706.578 1011.534,703.739 
		1013.543,703.63 1051.771,701.623 1053.527,701.569 1087.62,700.662 1088.996,700.643 1116.297,700.38 1124.472,700.388 
		1147.059,700.451 1176.907,700.889 1189.66,701.062 1193.208,701.145 1234.483,702.394 1237.621,702.527 1274.607,704.395 
		1277.558,704.604 1312.709,707.391 1314.191,707.542 1332.124,709.534 1333.499,709.715 1350.249,712.076 1352.53,712.496 
		1380.439,717.961 1382.423,718.506 1407.169,725.691 1408.835,726.327 1430.249,734.918 1431.362,735.442 1446.324,742.811 
		1447.656,743.538 1466.377,754.102 1467.558,754.829 1485.108,765.898 1486.067,766.553 1501.22,777.032 1501.835,777.49 
		1512.135,785.15 1512.864,785.728 1525.711,795.767 1526.284,796.23 1537.108,804.703 1537.588,805.074 1547.227,812.146 
		1547.778,812.523 1559.354,819.97 1560.096,820.369 1576.249,828.516 1576.611,828.665 1584.804,831.792 1585.177,831.914 
		1593.706,834.473 1594.027,834.553 1601.483,836.226 1601.809,836.284 1609.441,837.465 1609.761,837.5 1617.35,838.151 
		1617.669,838.166 1625.353,838.313 1625.672,838.306 1633.409,837.947 1633.686,837.925 1640.459,837.211 1640.743,837.17 
		1647.771,836.052 1648.061,835.993 1655.283,834.437 1655.576,834.358 1662.918,832.343 1663.253,832.23 1671.73,829.335 
		1672.058,829.197 1680.442,825.692 1680.748,825.537 1688.653,821.598 1688.944,821.422 1696.571,816.986 1697.1,816.6 
		1711.038,806.855 1711.525,806.442 1724.434,796.003 1724.756,795.725 1733.292,788.684 1733.808,788.274 1747.237,777.914 
		1748.005,777.398 1767.85,764.303 1768.498,763.94 1785.129,754.666 1785.876,754.308 1804.957,745.149 1805.497,744.928 
		1819.224,739.233 1820.284,738.879 1847.156,729.712 1847.767,729.55 1863.122,725.35 1863.791,725.203 1880.535,721.352 
		1881.262,721.222 1899.396,717.785 1900.179,717.676 1919.638,714.709 1921.339,714.554 1963.654,710.215 1964.9,710.161 
		1995.885,708.498 1997.154,708.488 2028.801,707.937 2030.058,707.969 2061.485,708.485 2062.695,708.557 2093.021,710.057 
		2094.654,710.224 2135.731,713.976 2137.177,714.214 2173.241,719.579 2173.86,719.715 2189.051,722.716 2189.652,722.867 
		2204.218,726.205 2205.107,726.465 2226.352,732.117 2227.736,732.591 2260.647,742.889 2261.948,743.409 2293.384,754.732 
		2294.282,755.142 2316.374,764.071 2316.902,764.327 2329.836,769.948 2330.566,770.306 2348.079,778.189 2349.026,778.613 
		2370.751,788.006 2371.493,788.283 2387.81,794.462 2388.656,794.721 2406.83,800.543 2407.663,800.75 2425.212,805.428 
		2426.135,805.612 2445.279,809.839 2446.44,810.02 2470.27,814.229 2471.521,814.373 2496.88,817.788 2498.198,817.892 
		2524.718,820.475 2526.079,820.539 2553.438,822.308 2555.808,822.335 2603.697,823.637 2604.876,823.616 2629.042,823.546 
		2630.201,823.505 2654.317,823.012 2655.716,822.937 2685.35,821.789 2686.694,821.687 	"/>
	<polyline fill="none" stroke="#DB2526" stroke-width="1" stroke-miterlimit="10" points="139.526,245.24 156.3,242.915 
		172.678,240.288 189.966,237.439 201.492,235.384 213.656,233.111 229.753,229.948 246.748,226.42 269.536,221.51 293.651,216.096 
		304.151,213.85 315.296,211.441 325.771,209.409 336.903,207.293 346.42,205.765 356.532,204.236 366.146,203.11 376.354,202.052 
		386.066,201.398 396.368,200.873 406.134,200.731 416.479,200.766 428.001,201.252 440.195,201.992 451.317,203.125 
		463.106,204.537 472.851,206.085 483.223,207.907 491.567,209.698 500.505,211.753 508.014,213.812 516.122,216.144 
		523.627,218.741 531.817,221.656 538.371,224.492 545.607,227.659 556.599,233.959 568.926,240.981 577.646,247.79 587.62,255.394 
		591.65,259.214 596.348,263.499 601.275,268.445 607.104,274.018 611.663,277.966 617.052,282.444 620.921,284.955 
		625.443,287.822 630.032,289.981 635.345,292.466 640.709,294.218 646.88,296.25 652.893,297.552 659.797,299.08 666.213,299.906 
		673.599,300.894 680.081,301.238 687.583,301.667 693.811,301.549 701.075,301.434 706.779,300.885 713.496,300.255 
		716.964,299.671 721.081,298.983 724.213,298.251 727.961,297.378 731.678,296.178 736.159,294.734 740.009,292.979 
		744.694,290.848 747.924,288.825 751.897,286.345 754.987,283.827 758.836,280.71 761.549,278.079 764.964,274.788 
		769.961,269.944 776.311,263.788 779.914,260.955 784.535,257.286 786.475,255.996 788.981,254.305 793.138,251.948 
		798.552,248.828 807.658,244.832 819.748,239.438 831.614,235.36 847.802,229.744 858.724,226.609 873.908,222.244 885.177,219.54 
		900.99,215.764 904.962,214.938 910.581,213.781 918.142,212.386 928.902,210.422 932.483,209.832 937.637,208.996 950.72,207.157 
		969.875,204.502 983.634,202.959 1004.426,200.646 1018.874,199.351 1041.237,197.354 1056.569,196.314 1080.556,194.7 
		1093.779,194.063 1114.487,193.078 1124.818,192.731 1140.95,192.191 1166.76,191.619 1168.477,191.583 1170.811,191.566 
		1207.243,191.282 1215.653,191.394 1248.025,191.745 1255.771,192.041 1285.019,193.071 1292.636,193.614 1320.771,195.524 
		1324.783,195.95 1339.258,197.431 1343.075,197.956 1356.655,199.771 1363.103,201.029 1385.651,205.34 1391.31,207.047 
		1410.571,212.729 1415.177,214.791 1430.452,221.438 1433.406,223.213 1442.964,228.741 1446.394,231.294 1457.218,239.005 
		1460.401,241.758 1470.022,249.731 1473.021,252.51 1481.582,260.196 1483.9,262.388 1490.161,268.209 1493.492,271.319 
		1502.022,279.282 1505.216,282.109 1512.962,289.064 1516.017,291.523 1523.144,297.398 1526.943,300.04 1535.562,306.204 
		1540.961,309.124 1552.934,315.798 1555.703,316.934 1561.738,319.491 1564.637,320.439 1570.909,322.569 1573.454,323.219 
		1578.923,324.673 1581.532,325.171 1587.113,326.294 1589.709,326.634 1595.232,327.403 1597.862,327.597 1603.43,328.049 
		1606.078,328.099 1611.659,328.235 1613.984,328.165 1618.863,328.034 1621.293,327.852 1626.374,327.479 1628.897,327.174 
		1634.151,326.535 1636.756,326.099 1642.15,325.177 1645.228,324.504 1651.562,323.078 1654.706,322.214 1661.134,320.387 
		1664.22,319.369 1670.476,317.224 1673.593,316.032 1679.854,313.526 1685.908,310.771 1697.956,305.014 1703.796,301.894 
		1715.341,295.436 1719.111,293.248 1726.584,288.762 1732.082,285.447 1743.093,278.699 1750.237,274.396 1764.791,265.709 
		1770.233,262.61 1781.443,256.402 1787.434,253.31 1799.811,247.147 1804.062,245.199 1812.838,241.342 1821.142,238.14 
		1838.237,231.846 1842.99,230.336 1852.756,227.397 1857.954,225.977 1868.619,223.236 1874.282,221.927 1885.871,219.424 
		1892.004,218.244 1904.513,216.017 1918.159,214.102 1945.805,210.573 1956.206,209.628 1977.058,207.96 1988.184,207.326 
		2010.253,206.289 2021.965,205.96 2044.925,205.532 2057.038,205.499 2080.502,205.651 2098.497,206.117 2132.904,207.353 
		2150.145,208.44 2182.836,210.898 2190.239,211.618 2204.303,213.191 2211.25,214.053 2224.513,215.909 2234.058,217.456 
		2252.443,220.763 2265.925,223.7 2292.135,229.922 2304.192,233.089 2327.536,239.769 2335.35,242.184 2350.433,247.262 
		2354.966,248.792 2363.709,251.985 2370.071,254.2 2382.372,258.772 2390.485,261.551 2406.357,267.199 2412.239,269.105 
		2423.952,272.93 2430.078,274.774 2442.488,278.436 2448.035,279.95 2459.445,282.925 2465.229,284.319 2477.261,287.029 
		2484.273,288.456 2498.978,291.188 2506.394,292.389 2522.004,294.646 2529.808,295.607 2546.224,297.366 2554.327,298.093 
		2571.317,299.361 2585.456,300.105 2614.866,301.245 2621.886,301.411 2636.338,301.555 2643.211,301.602 2657.244,301.5 
		2665.474,301.408 2682.086,300.978 	"/>
</g>
<g id="pockets">
</g>
<g id="ids">
	<polyline fill="none" stroke="#622B8A" stroke-miterlimit="10" points="162.402,1016.535 162.402,1016.535 167.041,1028.983 
		173.311,1040.409 181.053,1050.695 190.107,1059.723 200.313,1067.375 211.513,1073.53 223.543,1078.074 236.247,1080.886 
		249.465,1081.851 314.841,1081.851 322.673,1081.149 330.045,1079.129 336.836,1075.91 342.921,1071.618 348.176,1066.373 
		352.479,1060.297 355.704,1053.515 357.73,1046.147 358.434,1038.319 357.73,1030.506 355.704,1023.147 352.479,1016.368 
		348.176,1010.291 342.921,1005.04 336.836,1000.74 330.045,997.516 322.673,995.49 314.841,994.788 293.045,994.788 
		285.214,995.49 277.842,997.516 271.053,1000.74 264.972,1005.04 259.717,1010.291 255.417,1016.368 252.191,1023.147 
		250.167,1030.506 249.465,1038.319 249.465,1081.851 	"/>
	<polyline fill="none" stroke="#622B8A" stroke-miterlimit="10" points="2700.7,873.672 2602.685,873.672 2624.481,895.461 	"/>
	<polyline fill="none" stroke="#622B8A" stroke-miterlimit="10" points="2699.408,790.795 2699.408,790.795 2700.26,788.517 
		2700.683,786.18 2700.694,783.839 2700.312,781.544 2699.553,779.351 2698.435,777.31 2696.975,775.475 2695.188,773.897 
		2693.095,772.632 2684.258,768.855 2675.164,766.024 2665.89,764.138 2656.501,763.191 2647.074,763.191 2637.684,764.138 
		2628.399,766.024 2619.293,768.855 2610.439,772.632 2609.546,773.112 2608.692,773.656 2607.883,774.261 2607.118,774.921 
		2606.406,775.633 2605.751,776.394 2605.156,777.197 2604.626,778.041 2604.164,778.92 2603.293,781.215 2602.856,783.565 
		2602.834,785.917 2603.209,788.218 2603.966,790.417 2605.084,792.46 2606.549,794.295 2608.343,795.872 2610.446,797.138 
		2619.281,800.895 2628.373,803.715 2637.648,805.592 2647.035,806.532 2656.461,806.532 2665.853,805.592 2675.141,803.715 
		2684.246,800.895 2693.102,797.138 2693.993,796.659 2694.844,796.119 2695.648,795.521 2696.408,794.862 2697.117,794.149 
		2697.774,793.384 2698.376,792.568 2698.922,791.706 2699.408,790.795 	"/>
	<polyline fill="none" stroke="#622B8A" stroke-miterlimit="10" points="2653.228,348.986 2653.228,305.455 2652.525,297.627 
		2650.501,290.26 2647.279,283.478 2642.984,277.402 2637.74,272.156 2631.671,267.863 2624.901,264.646 2617.558,262.624 
		2609.759,261.924 2587.962,261.924 2580.167,262.624 2572.822,264.646 2566.054,267.863 2559.984,272.156 2554.739,277.402 
		2550.442,283.478 2547.219,290.26 2545.194,297.627 2544.491,305.455 2544.491,327.253 2544.491,305.455 2543.789,297.627 
		2541.762,290.26 2538.536,283.478 2534.233,277.402 2528.978,272.156 2522.894,267.863 2516.104,264.646 2508.73,262.624 
		2500.898,261.924 2493.104,262.624 2485.761,264.646 2478.991,267.863 2472.922,272.156 2467.677,277.402 2463.38,283.478 
		2460.157,290.26 2458.133,297.627 2457.432,305.455 2457.432,348.986 	"/>
</g>
</svg>
