<?xml version="1.0" encoding="utf-8"?>
<!-- Generator: Adobe Illustrator 16.0.0, SVG Export Plug-In . SVG Version: 6.00 Build 0)  -->
<!DOCTYPE svg PUBLIC "-//W3C//DTD SVG 1.1//EN" "http://www.w3.org/Graphics/SVG/1.1/DTD/svg11.dtd">
<svg version="1.1" xmlns="http://www.w3.org/2000/svg" xmlns:xlink="http://www.w3.org/1999/xlink" x="0px" y="0px"
	 width="2834.646px" height="1417.322px" viewBox="0 0 2834.646 1417.322" enable-background="new 0 0 2834.646 1417.322"
	 xml:space="preserve">
<g id="profiles">
	<polyline fill="none" stroke="#0000FF" stroke-width="1" stroke-miterlimit="10" points="50.2,1052.019 50.2,1082.069 
		50.2,1094.142 50.2,1188.162 50.2,1200.011 50.2,1389.677 151.691,1389.677 216.876,1389.677 216.876,1322.015 216.876,1278.559 
		271.007,1278.559 305.771,1278.559 305.771,1346.219 305.771,1389.677 331.144,1389.677 347.441,1389.677 347.44,1322.015 
		347.441,1278.559 1179.644,1278.559 2475.353,1278.559 2475.353,1346.219 2475.353,1389.677 2500.726,1389.677 2517.021,1389.677 
		2517.021,1322.015 2517.021,1278.559 2571.15,1278.559 2605.917,1278.559 2605.917,1346.219 2605.917,1389.677 2707.408,1389.677 
		2772.595,1389.677 2772.595,1223.409 2772.595,1216.488 2772.595,1111.858 2772.595,1111.334 2772.595,1110.638 2772.595,1106.507 
		2772.595,1105.877 2772.595,1105.133 2772.595,1103.359 2772.595,1095.882 2772.595,1093.351 2772.595,1091.159 2772.595,1083.312 
		2772.595,1080.062 2765.213,1078.302 2762.313,1077.422 2739.003,1071.849 2733.981,1070.212 2725.001,1068 2722.051,1067.025 
		2705.641,1063.004 2700.193,1061.276 2689.764,1058.798 2686.241,1057.759 2679.777,1056.251 2677.574,1055.626 2664.998,1052.691 
		2660.697,1051.488 2649.439,1048.769 2645.617,1047.657 2635.027,1044.927 2631.503,1043.805 2621.562,1041.095 2618.337,1039.972 
		2608.782,1037.377 2605.735,1036.296 2596.12,1033.953 2593.043,1032.977 2584.684,1031.318 2581.955,1030.633 2573.207,1029.33 
		2570.287,1028.802 2561.179,1027.893 2558.085,1027.54 2548.739,1027.04 2545.537,1026.868 2536.136,1026.771 2532.919,1026.774 
		2523.635,1027.053 2520.487,1027.218 2511.462,1027.842 2508.454,1028.149 2506.002,1028.547 2496.144,1029.268 2484.829,1031.096 
		2481.733,1031.778 2469.077,1034.523 2465.045,1035.803 2452.927,1039.55 2449.175,1041.194 2431.566,1048.394 2426.185,1051.416 
		2406.835,1061.221 2400.947,1065.181 2380.349,1077.299 2374.198,1082.04 2362.122,1089.649 2358.597,1092.558 2352.968,1096.137 
		2351.338,1097.487 2340.688,1104.175 2337.604,1106.667 2318.499,1118.013 2312.887,1122.146 2287.265,1135.92 2279.522,1140.759 
		2272.37,1144.379 2270.175,1145.614 2252.289,1154.361 2246.732,1157.277 2230.71,1164.753 2225.655,1167.15 2209.509,1174.278 
		2204.333,1176.466 2194.052,1180.508 2176.178,1187.58 2167.192,1190.918 2166.78,1191.052 2155.196,1194.448 2154.457,1194.65 
		2144.747,1197.146 2144.122,1197.293 2133.253,1199.724 2132.547,1199.867 2118.694,1202.396 2117.784,1202.544 2102.56,1204.558 
		2101.547,1204.673 2090.216,1205.627 2089.452,1205.679 2072.634,1206.214 2071.484,1206.237 2045.457,1204.952 2043.639,1204.852 
		2030.843,1203.245 2029.937,1203.131 2016.886,1200.771 2015.95,1200.604 2004.06,1197.751 2003.198,1197.548 1991.354,1193.946 
		1990.485,1193.687 1978.824,1189.28 1977.961,1188.96 1966.618,1183.707 1965.769,1183.318 1952.848,1175.942 1951.87,1175.39 
		1939.714,1166.812 1938.786,1166.162 1928.183,1157.133 1927.37,1156.443 1918.134,1147.207 1917.423,1146.497 1908.8,1136.582 
		1908.138,1135.817 1899.034,1123.873 1898.338,1122.952 1889.834,1110.365 1889.185,1109.395 1873.373,1082.498 1872.167,1080.436 
		1857.317,1052.503 1856.177,1050.385 1847.953,1035.132 1847.308,1033.986 1835.749,1014.604 1834.841,1013.174 1823.747,997.842 
		1822.884,996.732 1814.132,986.895 1813.462,986.197 1804.013,977.508 1803.312,976.901 1793.212,969.483 1792.484,968.978 
		1781.856,962.93 1781.117,962.527 1770.129,957.939 1769.392,957.642 1758.247,954.578 1757.528,954.385 1746.423,952.873 
		1745.733,952.78 1734.859,952.816 1734.206,952.817 1727.094,953.686 1726.677,953.733 1719.793,955.246 1719.399,955.329 
		1710.509,958.359 1710.021,958.518 1699.769,963.726 1699.247,963.977 1689.608,970.803 1689.163,971.098 1679.005,980.635 
		1678.608,980.98 1669.294,992.116 1669.009,992.43 1653.257,1016.235 1653.073,1016.49 1645.169,1029.896 1643.741,1032.316 
		1643.733,1032.331 1639.246,1039.898 1639.173,1040.021 1630.353,1054.2 1629.958,1054.75 1612.235,1079.011 1611.046,1080.25 
		1588.179,1104.012 1586.194,1105.615 1564.056,1123.481 1561.034,1125.464 1536.878,1141.332 1535.497,1142.123 1526.86,1147.09 
		1523.988,1148.57 1507.546,1157.127 1506.03,1157.833 1498.388,1161.439 1492.638,1163.754 1465.798,1174.714 1459.213,1176.781 
		1433.51,1184.945 1425.974,1186.668 1400.607,1192.507 1391.449,1193.804 1364.236,1197.727 1355.09,1198.37 1330.47,1200.214 
		1322.629,1200.388 1302.771,1200.942 1291.343,1200.786 1272.456,1200.575 1257.583,1199.892 1230.438,1198.398 1204.886,1195.652 
		1186.363,1193.834 1163.824,1190.043 1147.573,1187.467 1126.609,1182.508 1111.442,1179.146 1100.917,1175.992 1093.229,1173.877 
		1083.481,1170.418 1076.278,1168.113 1060.199,1160.6 1048.076,1155.555 1034.04,1145.688 1023.157,1138.832 1011.16,1126.669 
		1001.639,1117.9 993.217,1107.414 986.442,1099.702 975.797,1084.657 967.159,1073.409 957.297,1057.25 949.252,1044.833 
		941.064,1029.157 934.376,1016.771 929.018,1005.438 924.642,996.344 918.086,981.985 912.74,970.357 907.147,958.568 
		902.602,948.913 897.498,939.109 893.346,930.951 887.146,920.667 882.073,911.956 873.611,901.23 866.628,891.977 862.523,888.26 
		859.104,885.012 854.992,882.301 851.551,879.907 848.084,878.405 845.177,877.054 841.746,876.258 838.863,875.505 
		835.559,875.371 832.781,875.178 829.525,875.61 826.792,875.891 823.591,876.822 820.912,877.512 818.146,878.681 
		815.836,879.568 812.975,881.095 810.573,882.267 807.629,884.156 805.146,885.617 802.138,887.865 799.587,889.618 
		796.081,892.634 793.082,895.003 789.564,898.457 786.525,901.194 783.151,904.915 780.199,907.893 776.882,911.948 
		773.939,915.228 767.741,923.844 762.122,930.92 756.368,939.923 750.996,947.485 747.315,953.513 743.804,958.681 
		738.346,967.569 733.048,975.35 725.638,986.684 718.31,996.897 712.48,1004.994 706.625,1012.509 700.199,1020.575 
		693.668,1028.249 689.195,1033.331 684.602,1038.271 676.175,1046.686 667.429,1055.05 662.789,1059.067 657.907,1063.16 
		652.957,1066.992 647.703,1070.962 642.434,1074.561 636.788,1078.355 631.2,1081.67 625.148,1085.234 613.051,1090.827 
		599.746,1097.033 590.819,1099.946 580.78,1103.339 571.513,1105.413 560.881,1107.966 551.476,1109.204 540.457,1110.882 
		531.167,1111.344 520.029,1112.173 507.171,1111.717 491.281,1111.633 480.04,1110.247 465.544,1109.021 460.976,1108.179 
		454.864,1107.336 450.633,1106.393 444.843,1105.402 438.903,1103.784 430.575,1102.008 421.412,1098.857 408.16,1095.176 
		398.708,1091.231 384.545,1086.299 377.417,1082.82 366.333,1078.245 362.142,1075.921 355.414,1072.762 350.015,1069.355 
		341.084,1064.611 335.208,1060.338 325.088,1054.208 321.27,1051.252 314.46,1046.882 310.629,1043.958 303.65,1039.544 
		300.242,1037.08 293.923,1033.288 290.439,1030.954 283.882,1027.31 279.804,1024.851 271.992,1020.962 267.876,1018.815 
		259.847,1015.392 255.677,1013.592 247.391,1010.715 243.1,1009.261 234.425,1006.952 226.509,1005.193 210.283,1002.51 
		205.954,1001.937 196.92,1001.139 192.291,1000.746 182.541,1000.282 176.364,1000.023 163.242,999.887 156.581,999.861 
		142.274,1000.188 135.145,1000.379 119.663,1001.146 108.298,1001.82 95.328,1002.707 89.654,1004.093 85.755,1004.789 
		84.177,1004.9 75.469,1006.252 62.1,1007.286 59.892,1007.334 57.833,1007.328 51.505,1007.391 50.2,1007.404 50.2,1010.43 
		50.2,1010.468 50.2,1010.501 50.2,1010.617 50.2,1023.193 50.2,1023.517 50.2,1023.686 50.2,1023.864 50.2,1052.019 	"/>
	<polyline fill="none" stroke="#0000FF" stroke-width="1" stroke-miterlimit="10" points="2767.618,259.275 2767.618,238.997 
		2767.618,230.852 2767.618,167.406 2767.618,159.411 2767.618,31.425 2699.135,31.425 2600.941,31.425 2600.941,77.083 
		2600.941,142.544 2564.416,142.544 2512.05,142.544 2512.05,96.886 2512.05,31.425 2494.927,31.425 2470.378,31.425 
		2470.378,77.083 2470.378,142.544 1216.807,142.544 342.467,142.544 342.467,96.886 342.467,31.425 325.346,31.425 300.798,31.425 
		300.798,77.083 300.798,142.544 264.271,142.544 211.903,142.544 211.903,96.886 211.903,31.425 143.417,31.425 45.226,31.425 
		45.226,281.878 45.226,292.302 45.226,296.697 45.226,298.22 45.226,298.261 45.452,298.224 45.885,298.146 66.1,294.941 
		74.464,293.764 98.055,290.272 119.927,286.161 126.244,285.183 132.142,284.021 147.34,281.532 161.648,278.546 174.467,276.243 
		186.717,273.449 198.823,271.048 210.589,268.111 228.564,263.312 240.286,260.976 247.651,259.163 254.224,257.61 
		261.772,255.599 270.606,253.441 276.62,251.736 283.584,249.865 290.116,247.94 297.618,245.766 305.729,243.288 314.96,240.373 
		323.656,237.662 333.465,234.304 339.807,232.372 346.903,229.864 356.129,227.325 366.373,223.853 380.235,221.337 
		395.487,217.483 402.129,217.111 409.399,216.243 416.075,216.553 423.366,216.517 429.368,217.438 435.92,218.2 441.839,219.746 
		448.297,221.283 454.075,223.428 460.381,225.703 465.967,228.395 472.069,231.337 478.417,235.167 485.358,239.413 
		491.351,243.827 497.908,248.742 503.191,253.326 508.975,258.423 513.66,263.071 518.784,268.22 523.261,273.205 528.146,278.7 
		533.007,284.742 538.296,291.372 542.954,297.811 548.006,304.848 556.731,318.878 566.151,334.144 573.746,349.059 
		581.936,365.24 585.629,373.543 589.629,382.545 594.259,393.299 599.304,404.96 603.518,413.655 608.117,423.087 611.559,428.754 
		615.301,434.9 619.279,439.946 623.587,445.418 628.199,449.731 633.171,454.402 638.41,457.879 644.034,461.641 649.805,464.192 
		655.982,466.944 662.084,468.503 668.602,470.172 674.792,470.704 681.4,471.252 687.434,470.753 693.872,470.178 697.746,469.281 
		701.88,468.28 705.542,466.96 709.448,465.495 714.007,463.085 718.868,460.424 723.837,456.575 729.137,452.342 733.496,447.574 
		738.154,442.347 742.425,436.021 747.004,429.105 750.682,422.093 754.655,414.439 760.755,400.553 767.44,385.419 
		771.362,376.789 775.719,367.366 777.761,363.342 780.042,358.936 784.381,351.49 789.242,343.312 798.975,330.637 
		809.917,316.612 823.38,303.904 838.556,289.723 851.629,280.067 866.345,269.274 880.272,260.978 895.891,251.735 
		900.852,249.215 906.412,246.413 915.832,242.191 926.405,237.497 930.834,235.741 935.83,233.78 951.635,228.462 969.635,222.466 
		985.526,218.249 1003.986,213.38 1020.31,210.096 1039.523,206.23 1057.5,203.985 1078.613,201.31 1095.272,200.394 
		1114.611,199.264 1128.354,199.148 1144.151,198.941 1162.614,199.384 1176.325,199.672 1186.783,200.186 1221.325,202.269 
		1228.903,202.958 1268.73,207.099 1275.43,208.062 1310.825,213.702 1317.067,215.062 1350.156,222.847 1353.271,223.779 
		1369.831,229.066 1372.693,230.144 1387.908,236.208 1392.567,238.624 1417.268,252.129 1421.259,255.191 1442.435,272.318 
		1445.785,275.865 1463.729,295.894 1466.026,298.856 1478.567,315.836 1481.408,319.993 1497.303,344.164 1499.927,348.403 
		1515.062,373.543 1517.289,377.447 1530.511,401.042 1532.003,403.823 1541.098,420.927 1542.946,424.499 1554.524,446.755 
		1556.075,449.698 1566.146,468.367 1567.522,470.775 1576.723,486.274 1578.36,488.761 1589.542,504.932 1591.782,507.576 
		1607.253,524.828 1608.358,525.806 1616.05,532.156 1617.181,532.932 1625.063,537.888 1626.04,538.375 1632.837,541.386 
		1633.825,541.709 1640.717,543.575 1641.691,543.727 1648.489,544.408 1649.472,544.399 1656.331,543.97 1657.317,543.804 
		1664.219,542.286 1665.077,542.018 1671.124,539.849 1672.015,539.455 1678.294,536.426 1679.209,535.9 1685.683,531.963 
		1686.612,531.3 1693.219,526.429 1694.294,525.497 1701.968,518.74 1703.034,517.629 1710.682,509.664 1711.69,508.43 
		1718.962,499.648 1719.938,498.271 1727.013,488.521 1728.806,485.52 1741.86,464.397 1743.517,461.201 1755.613,438.788 
		1756.701,436.636 1764.591,421.55 1766.281,418.379 1778.427,396.13 1780.894,392.108 1798.388,363.799 1800.444,360.936 
		1814.933,340.718 1817.29,337.873 1833.862,317.72 1835.56,315.939 1847.453,303.27 1850.772,300.373 1873.954,279.619 
		1875.852,278.271 1889.036,268.536 1891.104,267.286 1905.448,258.176 1907.69,257.044 1923.217,248.708 1925.626,247.712 
		1942.313,240.292 1947.586,238.781 1984.136,227.199 1988.034,226.568 2015.167,221.444 2019.191,221.168 2047.331,218.551 
		2051.374,218.621 2079.808,218.479 2083.759,218.874 2111.683,221.049 2117.094,222.134 2155.56,228.885 2160.339,230.478 
		2194.231,240.583 2196.237,241.474 2210.306,247.085 2212.217,248.071 2225.502,254.252 2228.271,255.919 2247.337,266.292 
		2251.652,269.349 2281.329,288.377 2285.582,291.811 2315.395,313.491 2318.474,316.265 2340.412,334.061 2342.227,335.835 
		2355.152,347.326 2357.582,349.846 2374.635,366.293 2377.555,369.344 2397.36,389.454 2399.489,391.498 2413.437,405.103 
		2415.765,407.061 2430.688,420.233 2432.912,421.834 2446.925,432.729 2449.329,434.201 2464.296,444.34 2467.271,445.839 
		2485.552,456.321 2488.7,457.575 2507.854,466.52 2511.143,467.51 2531.033,474.782 2534.441,475.509 2555.068,481.111 
		2561.134,481.794 2598.309,487.785 2601.445,487.889 2621.054,489.362 2624.249,489.325 2644.563,489.891 2648.586,489.663 
		2674.707,489.193 2678.792,488.779 2705.932,487.098 2710.065,486.507 2738.171,483.682 2754.999,481.281 2767.618,479.6 
		2767.618,478.909 2767.618,478.807 2767.618,477.698 2767.618,476.647 2767.618,476.291 2767.618,475.24 2767.618,474.38 
		2767.618,473.619 2767.618,455.247 2767.618,452.726 2767.618,450.105 2767.618,448.884 2767.618,447.443 2767.618,446.316 
		2767.618,444.776 2767.618,443.723 2767.618,442.768 2767.618,439.46 2767.618,432.866 2767.618,430.928 2767.618,429.906 
		2767.618,428.831 2767.618,259.275 	"/>
	<polyline fill="none" stroke="#0000FF" stroke-width="1" stroke-miterlimit="10" points="52.846,620.391 52.846,636.09 
		52.846,887.436 187.343,887.436 219.522,887.436 219.522,797.772 219.522,776.317 291.252,776.317 308.417,776.317 
		308.417,865.981 308.417,887.436 342.041,887.436 350.087,887.436 350.087,797.772 350.087,776.317 760.921,776.317 
		2477.998,776.317 2477.998,865.981 2477.998,887.436 2511.622,887.436 2519.667,887.436 2519.667,797.772 2519.667,776.317 
		2591.399,776.317 2608.561,776.317 2608.561,865.981 2608.561,887.436 2743.059,887.436 2775.238,887.436 2775.238,805.355 
		2775.238,801.939 2775.238,696.256 2775.238,673.016 2775.238,636.396 2775.238,586.153 2775.238,581.432 2771.84,581.627 
		2748.872,582.557 2740.446,582.89 2739.904,582.907 2739.352,582.951 2732.919,583.715 2726.424,584.186 2721.263,585.166 
		2714.595,585.643 2709.172,586.726 2689.968,587.688 2674.094,590.621 2664.157,590.647 2656.021,591.677 2645.987,591.273 
		2637.895,591.804 2627.729,590.975 2619.599,591.016 2609.217,589.824 2600.87,589.464 2590.201,587.989 2581.485,587.344 
		2570.539,585.636 2561.41,584.778 2550.272,582.865 2540.8,581.819 2529.591,579.709 2519.905,578.475 2497.772,573.668 
		2478.333,570.567 2457.112,565.062 2438.229,561.087 2418.011,555.107 2399.919,550.419 2387.855,546.682 2377.062,543.621 
		2354.573,536.73 2334.552,530.925 2319.971,526.614 2307.097,522.869 2297.989,520.208 2289.992,517.849 2272.229,512.565 
		2256.691,507.788 2240.913,502.782 2227.108,498.184 2212.571,493.102 2199.8,488.427 2186.607,483.364 2174.985,478.743 
		2162.802,473.894 2152.112,469.507 2140.241,465.094 2129.952,461.109 2119.8,457.925 2111.118,455.016 2100.583,452.428 
		2091.666,450.01 2080.819,448.102 2071.705,446.252 2060.803,445.066 2051.679,443.839 2041.087,443.372 2032.248,442.776 
		2022.313,442.978 2014.046,442.968 2005.068,443.769 1997.622,444.277 1986.551,445.769 1983.303,446.302 1980.28,447.017 
		1965.834,450.632 1964.956,450.95 1947.618,457.789 1946.81,458.196 1931.151,466.776 1930.013,467.516 1908.157,482.904 
		1906.94,483.861 1883.621,503.516 1882.4,504.642 1859.021,527.573 1858.345,528.253 1845.457,542.038 1845.146,542.352 
		1839.259,548.684 1838.677,549.258 1827.532,560.824 1826.454,561.765 1805.729,580.58 1804.167,581.655 1774.015,602.967 
		1773.551,603.234 1764.636,608.513 1763.423,609.129 1740.169,621.198 1739.013,621.678 1716.968,631.044 1715.736,631.448 
		1692.304,639.316 1691.747,639.468 1688.548,640.189 1667.286,645.166 1657.64,647.409 1654.632,648.041 1646.151,649.447 
		1645.452,649.555 1631.64,651.507 1631.06,651.58 1619.685,652.856 1619.038,652.919 1606.475,653.991 1605.653,654.049 
		1589.882,654.918 1588.98,654.952 1571.94,655.333 1571.268,655.343 1558.757,655.283 1557.754,655.274 1539.376,654.713 
		1537.797,654.643 1509.495,652.713 1508.692,652.648 1494.706,651.159 1493.87,651.062 1479.463,649.058 1478.683,648.935 
		1465.392,646.55 1464.594,646.383 1451.157,643.324 1450.352,643.106 1436.896,639.255 1436.094,638.976 1422.765,634.23 
		1421.828,633.813 1406.334,626.94 1405.431,626.431 1390.559,618.258 1389.759,617.709 1376.594,609.045 1375.896,608.478 
		1364.328,599.665 1363.68,599.058 1352.864,589.74 1352.187,589.019 1340.803,578.061 1340.179,577.316 1329.575,566.104 
		1328.403,564.561 1308.291,541.588 1307.079,540.042 1286.391,517.249 1285.642,516.434 1273.01,504.391 1271.883,503.392 
		1253.158,488.58 1252.076,487.832 1234.167,476.591 1233.361,476.133 1219.918,469.174 1219.117,468.787 1205.567,462.81 
		1204.789,462.491 1191.467,457.508 1190.733,457.259 1177.872,453.254 1177.189,453.068 1164.919,450.026 1164.288,449.902 
		1152.563,447.795 1151.972,447.727 1140.645,446.528 1140.085,446.511 1128.972,446.186 1128.609,446.201 1121.165,446.451 
		1120.812,446.482 1113.379,447.091 1112.912,447.16 1102.767,448.528 1102.211,448.651 1089.468,451.177 1088.935,451.335 
		1075.709,454.826 1075.146,455.034 1059.722,460.158 1059.228,460.38 1043.631,466.682 1042.888,467.099 1014.125,481.525 
		1013.87,481.695 996.174,492.081 996.117,492.119 987.664,497.337 987.62,497.37 981.996,500.892 971.496,507.481 971.396,507.537 
		941.677,525.326 940.931,525.723 906.202,543.223 904.509,543.998 872.587,557.408 870.337,558.29 836.351,571.032 833.195,572.16 
		820.969,576.491 819.722,576.918 796.642,584.75 793.951,585.636 783.138,589.136 781.79,589.562 744.134,600.696 738.569,602.323 
		701.985,611.257 695.668,612.819 659.943,619.749 652.946,621.171 617.304,626.796 609.6,628.107 580.697,632.087 574.04,633.09 
		552.847,635.726 547.779,636.423 539.88,637.337 521.608,639.377 501.805,641.485 484.146,643.168 463.758,644.102 
		442.837,645.266 423.856,645.232 403.957,645.367 384.684,644.773 364.174,644.274 353.497,643.847 342.047,643.432 
		331.279,642.943 319.697,642.442 299.479,640.917 277.708,639.295 256.938,635.678 234.629,631.869 214.523,625.521 
		193.09,618.946 178.104,612.69 162.31,606.279 142.946,596.46 122.854,586.532 104.665,574.455 86.165,562.501 82.321,559.448 
		64.859,544.433 52.846,534.295 52.846,553.239 52.846,553.899 52.846,554.288 52.846,568.334 52.846,568.913 52.846,578.373 
		52.846,578.985 52.846,585.177 52.846,588.596 52.846,589.736 52.846,620.391 	"/>
</g>
<g id="follow_x5F_paths">
	<polyline fill="none" stroke="#DB2526" stroke-width="1" stroke-miterlimit="10" points="2689.444,1181.496 2685.924,1181.08 
		2679.459,1180.477 2677.258,1180.227 2664.68,1179.053 2660.379,1178.571 2649.121,1177.484 2645.3,1177.039 2634.709,1175.947 
		2631.185,1175.499 2621.242,1174.415 2618.019,1173.966 2608.465,1172.927 2605.416,1172.495 2595.802,1171.558 2592.724,1171.167 
		2584.365,1170.503 2581.636,1170.229 2572.889,1169.709 2569.968,1169.497 2560.859,1169.134 2557.767,1168.992 2548.419,1168.793 
		2545.219,1168.724 2535.817,1168.685 2532.601,1168.686 2523.316,1168.798 2520.169,1168.863 2511.143,1169.113 2508.136,1169.235 
		2505.683,1169.396 2495.825,1169.684 2484.511,1170.415 2481.415,1170.688 2468.759,1171.786 2464.726,1172.297 2452.608,1173.796 
		2448.854,1174.454 2431.248,1177.334 2425.866,1178.543 2406.517,1182.464 2400.629,1184.048 2380.028,1188.896 2373.882,1190.792 
		2361.803,1193.836 2358.279,1194.999 2352.649,1196.431 2351.02,1196.971 2340.37,1199.646 2337.286,1200.644 2318.181,1205.182 
		2312.568,1206.835 2286.946,1212.345 2279.202,1214.28 2272.052,1215.728 2269.855,1216.222 2251.97,1219.721 2246.414,1220.887 
		2230.391,1223.877 2225.337,1224.836 2209.188,1227.688 2204.015,1228.562 2193.733,1230.179 2175.859,1233.009 2166.874,1234.344 
		2166.461,1234.397 2154.878,1235.756 2154.139,1235.836 2144.43,1236.835 2143.804,1236.894 2132.935,1237.866 2132.228,1237.923 
		2118.374,1238.936 2117.466,1238.994 2102.241,1239.8 2101.228,1239.845 2089.896,1240.228 2089.134,1240.248 2072.313,1240.462 
		2071.166,1240.471 2045.139,1239.957 2043.32,1239.917 2030.524,1239.274 2029.618,1239.229 2016.567,1238.285 2015.632,1238.218 
		2003.741,1237.077 2002.88,1236.996 1991.034,1235.555 1990.167,1235.451 1978.505,1233.688 1977.642,1233.56 1966.3,1231.459 
		1965.45,1231.304 1952.528,1228.353 1951.552,1228.133 1939.396,1224.701 1938.468,1224.441 1927.864,1220.83 1927.052,1220.553 
		1917.813,1216.859 1917.104,1216.575 1908.481,1212.609 1907.819,1212.303 1898.718,1207.525 1898.019,1207.157 1889.516,1202.123 
		1888.866,1201.734 1873.055,1190.976 1871.848,1190.15 1857.001,1178.978 1855.856,1178.13 1847.635,1172.029 1846.989,1171.571 
		1835.43,1163.818 1834.521,1163.246 1823.429,1157.113 1822.565,1156.669 1813.812,1152.734 1813.144,1152.455 1803.695,1148.979 
		1802.992,1148.736 1792.892,1145.77 1792.165,1145.567 1781.538,1143.148 1780.8,1142.986 1769.811,1141.151 1769.073,1141.033 
		1757.929,1139.808 1757.21,1139.73 1746.104,1139.126 1745.414,1139.088 1734.541,1139.103 1733.888,1139.104 1726.774,1139.45 
		1726.358,1139.47 1719.475,1140.075 1719.081,1140.108 1710.188,1141.32 1709.702,1141.384 1699.45,1143.467 1698.929,1143.567 
		1689.289,1146.297 1688.846,1146.415 1678.687,1150.23 1678.289,1150.369 1668.976,1154.823 1668.688,1154.948 1652.937,1164.47 
		1652.755,1164.573 1644.851,1169.935 1643.423,1170.902 1643.415,1170.908 1638.927,1173.936 1638.853,1173.985 1630.034,1179.657 
		1629.64,1179.877 1611.915,1189.581 1610.727,1190.076 1587.86,1199.581 1585.876,1200.222 1563.737,1207.368 1560.716,1208.162 
		1536.56,1214.509 1535.179,1214.825 1526.541,1216.812 1523.669,1217.405 1507.228,1220.827 1505.713,1221.109 1498.068,1222.552 
		1492.319,1223.478 1465.479,1227.861 1458.894,1228.688 1433.188,1231.955 1425.655,1232.644 1400.289,1234.979 1391.13,1235.499 
		1363.918,1237.067 1354.771,1237.324 1330.151,1238.062 1322.309,1238.132 1302.451,1238.353 1291.023,1238.291 1272.138,1238.207 
		1257.266,1237.934 1230.12,1237.336 1204.567,1236.237 1186.045,1235.51 1163.507,1233.994 1147.255,1232.963 1126.291,1230.979 
		1111.124,1229.635 1100.599,1228.374 1092.909,1227.527 1083.163,1226.144 1075.959,1225.222 1059.881,1222.216 1047.757,1220.198 
		1033.721,1216.252 1022.839,1213.509 1010.842,1208.644 1001.319,1205.137 992.899,1200.942 986.124,1197.857 975.478,1191.84 
		966.841,1187.34 956.978,1180.876 948.934,1175.909 940.746,1169.639 934.058,1164.685 928.701,1160.151 924.324,1156.514 
		917.768,1150.77 912.421,1146.119 906.83,1141.403 902.281,1137.542 897.18,1133.62 893.027,1130.356 886.826,1126.243 
		881.756,1122.759 873.292,1118.469 866.31,1114.768 862.204,1113.28 858.787,1111.981 854.674,1110.896 851.232,1109.939 
		847.767,1109.338 844.858,1108.798 841.427,1108.479 838.544,1108.178 835.239,1108.124 832.463,1108.048 829.205,1108.22 
		826.475,1108.333 823.271,1108.705 820.593,1108.981 817.828,1109.449 815.516,1109.804 812.655,1110.415 810.255,1110.883 
		807.31,1111.639 804.828,1112.223 801.819,1113.123 799.268,1113.823 795.761,1115.03 792.764,1115.978 789.246,1117.359 
		786.206,1118.454 782.832,1119.942 779.881,1121.134 776.562,1122.755 773.622,1124.067 767.421,1127.514 761.805,1130.344 
		756.049,1133.945 750.677,1136.971 746.996,1139.382 743.485,1141.449 738.027,1145.004 732.729,1148.116 725.319,1152.65 
		717.991,1156.735 712.162,1159.974 706.307,1162.98 699.881,1166.207 693.348,1169.276 688.876,1171.309 684.283,1173.285 
		675.856,1176.65 667.11,1179.997 662.469,1181.603 657.589,1183.24 652.639,1184.773 647.385,1186.361 642.115,1187.801 
		636.469,1189.318 630.882,1190.644 624.83,1192.07 612.731,1194.307 599.425,1196.79 590.5,1197.955 580.46,1199.312 
		571.193,1200.142 560.562,1201.163 551.157,1201.658 540.138,1202.329 530.847,1202.514 519.708,1202.846 506.852,1202.663 
		490.964,1202.63 479.722,1202.075 465.226,1201.585 460.656,1201.248 454.545,1200.911 450.313,1200.533 444.523,1200.138 
		438.584,1199.49 430.257,1198.778 421.093,1197.519 407.842,1196.046 398.39,1194.469 384.226,1192.496 377.098,1191.104 
		366.015,1189.274 361.824,1188.345 355.096,1187.081 349.696,1185.719 340.767,1183.82 334.89,1182.111 324.77,1179.66 
		320.951,1178.478 314.142,1176.729 310.31,1175.56 303.332,1173.794 299.923,1172.809 293.602,1171.291 290.12,1170.358 
		283.563,1168.9 279.483,1167.916 271.675,1166.36 267.559,1165.502 259.527,1164.134 255.359,1163.413 247.072,1162.262 
		242.78,1161.68 234.107,1160.758 226.191,1160.054 209.964,1158.98 205.635,1158.751 196.6,1158.433 191.972,1158.274 
		182.223,1158.089 176.045,1157.985 162.923,1157.931 156.262,1157.921 141.955,1158.052 	"/>
	<polyline fill="none" stroke="#DB2526" stroke-width="1" stroke-miterlimit="10" points="126.376,209.199 132.272,208.733 
		147.472,207.738 161.78,206.544 174.599,205.623 186.848,204.506 198.955,203.544 210.721,202.37 228.697,200.451 240.417,199.516 
		247.784,198.791 254.355,198.17 261.905,197.365 270.738,196.502 276.753,195.82 283.716,195.071 290.248,194.302 297.75,193.432 
		305.859,192.441 315.093,191.274 323.789,190.19 333.598,188.847 339.939,188.074 347.036,187.071 356.262,186.056 
		366.505,184.666 380.367,183.66 395.619,182.119 402.262,181.971 409.532,181.623 416.206,181.747 423.498,181.732 429.5,182.102 
		436.051,182.406 441.969,183.024 448.429,183.639 454.206,184.497 460.513,185.407 466.1,186.483 472.2,187.66 478.55,189.192 
		485.489,190.891 491.483,192.656 498.04,194.622 503.324,196.456 509.106,198.494 513.792,200.354 518.916,202.413 
		523.392,204.407 528.278,206.605 533.14,209.022 538.427,211.675 543.087,214.25 548.138,217.064 556.864,222.677 566.284,228.782 
		573.876,234.749 582.067,241.221 585.761,244.543 589.761,248.144 594.391,252.444 599.434,257.109 603.648,260.587 
		608.249,264.36 611.69,266.627 615.434,269.086 619.412,271.104 623.719,273.293 628.33,275.018 633.301,276.887 638.541,278.277 
		644.165,279.782 649.938,280.803 656.115,281.903 662.216,282.526 668.735,283.194 674.925,283.407 681.532,283.627 
		687.567,283.427 694.004,283.196 697.879,282.838 702.012,282.438 705.675,281.909 709.58,281.323 714.138,280.36 719,279.295 
		723.969,277.756 729.268,276.062 733.629,274.155 738.286,272.064 742.556,269.534 747.135,266.769 750.814,263.963 
		754.788,260.901 760.885,255.347 767.572,249.293 771.494,245.841 775.851,242.071 777.894,240.462 780.174,238.7 784.513,235.722 
		789.375,232.451 799.107,227.38 810.051,221.77 823.511,216.688 838.688,211.015 851.761,207.152 866.476,202.835 880.403,199.517 
		896.022,195.819 900.984,194.812 906.544,193.691 915.964,192.002 926.536,190.124 930.969,189.422 935.963,188.638 
		951.767,186.511 969.767,184.111 985.657,182.425 1004.118,180.478 1020.44,179.164 1039.656,177.618 1057.633,176.72 
		1078.744,175.649 1095.403,175.283 1114.744,174.831 1128.487,174.785 1144.284,174.702 1162.746,174.879 1176.457,174.994 
		1186.915,175.199 1221.457,176.033 1229.036,176.309 1268.862,177.965 1275.561,178.351 1310.958,180.606 1317.199,181.15 
		1350.288,184.265 1353.403,184.637 1369.964,186.752 1372.825,187.184 1388.04,189.608 1392.698,190.575 1417.399,195.978 
		1421.391,197.202 1442.565,204.053 1445.917,205.472 1463.862,213.483 1466.157,214.668 1478.699,221.46 1481.54,223.123 
		1497.436,232.792 1500.059,234.487 1515.194,244.543 1517.421,246.104 1530.644,255.542 1532.136,256.654 1541.23,263.496 
		1543.077,264.926 1554.656,273.827 1556.208,275.005 1566.278,282.473 1567.653,283.436 1576.854,289.636 1578.493,290.63 
		1589.675,297.099 1591.914,298.156 1607.384,305.057 1608.489,305.448 1616.181,307.988 1617.313,308.299 1625.195,310.28 
		1626.173,310.476 1632.968,311.681 1633.958,311.809 1640.849,312.556 1641.823,312.616 1648.622,312.89 1649.604,312.885 
		1656.464,312.714 1657.449,312.647 1664.352,312.041 1665.21,311.933 1671.257,311.065 1672.147,310.908 1678.427,309.695 
		1679.341,309.485 1685.814,307.911 1686.745,307.646 1693.351,305.697 1694.427,305.324 1702.1,302.621 1703.166,302.177 
		1710.814,298.991 1711.821,298.498 1719.095,294.985 1720.069,294.434 1727.146,290.534 1728.937,289.334 1741.992,280.885 
		1743.649,279.605 1755.745,270.642 1756.833,269.779 1764.722,263.746 1766.414,262.478 1778.559,253.577 1781.024,251.969 
		1798.521,240.645 1800.577,239.5 1815.064,231.412 1817.425,230.274 1833.993,222.214 1835.692,221.502 1847.585,216.434 
		1850.905,215.275 1874.086,206.974 1875.983,206.434 1889.167,202.54 1891.236,202.04 1905.579,198.396 1907.821,197.943 
		1923.348,194.609 1925.759,194.211 1942.444,191.242 1947.719,190.639 1984.268,186.005 1988.167,185.753 2015.3,183.703 
		2019.323,183.593 2047.464,182.546 2051.509,182.574 2079.94,182.517 2083.888,182.675 2111.814,183.545 2117.224,183.979 
		2155.692,186.68 2160.472,187.316 2194.363,191.359 2196.369,191.715 2210.437,193.96 2212.349,194.354 2225.635,196.826 
		2228.403,197.493 2247.47,201.643 2251.784,202.865 2281.461,210.477 2285.714,211.85 2315.526,220.521 2318.604,221.632 
		2340.544,228.75 2342.359,229.46 2355.284,234.056 2357.716,235.064 2374.767,241.644 2377.687,242.863 2397.492,250.907 
		2399.621,251.725 2413.568,257.167 2415.897,257.95 2430.82,263.219 2433.044,263.858 2447.056,268.217 2449.462,268.806 
		2464.429,272.861 2467.401,273.461 2485.684,277.654 2488.833,278.156 2507.985,281.733 2511.275,282.129 2531.165,285.038 
		2534.574,285.329 2555.201,287.569 2561.265,287.843 2598.441,290.24 2601.577,290.281 2621.187,290.871 2624.381,290.855 
		2644.695,291.082 2648.719,290.99 2674.841,290.803 2678.925,290.637 	"/>
	<polyline fill="none" stroke="#DB2526" stroke-width="1" stroke-miterlimit="10" points="2689.835,689.951 2673.961,691.124 
		2664.024,691.135 2655.888,691.548 2645.855,691.385 2637.763,691.598 2627.599,691.266 2619.468,691.282 2609.083,690.806 
		2600.738,690.662 2590.069,690.071 2581.354,689.812 2570.406,689.131 2561.279,688.787 2550.14,688.021 2540.667,687.604 
		2529.459,686.76 2519.774,686.266 2497.64,684.343 2478.201,683.103 2456.981,680.901 2438.098,679.311 2417.878,676.919 
		2399.786,675.044 2387.724,673.549 2376.93,672.324 2354.442,669.568 2334.419,667.246 2319.839,665.521 2306.966,664.023 
		2297.856,662.959 2289.86,662.016 2272.098,659.901 2256.56,657.991 2240.78,655.989 2226.978,654.149 2212.439,652.117 
		2199.667,650.247 2186.476,648.222 2174.853,646.374 2162.67,644.434 2151.98,642.678 2140.108,640.914 2129.82,639.32 
		2119.667,638.045 2110.985,636.882 2100.45,635.848 2091.533,634.879 2080.688,634.117 2071.572,633.377 2060.67,632.902 
		2051.547,632.411 2040.954,632.225 2032.116,631.986 2022.183,632.067 2013.913,632.062 2004.937,632.384 1997.489,632.587 
		1986.418,633.184 1983.171,633.397 1980.148,633.683 1965.702,635.128 1964.823,635.256 1947.485,637.992 1946.677,638.154 
		1931.02,641.587 1929.882,641.882 1908.024,648.038 1906.81,648.42 1883.489,656.283 1882.269,656.732 1858.89,665.905 
		1858.213,666.177 1845.325,671.691 1845.015,671.817 1839.126,674.35 1838.542,674.579 1827.4,679.206 1826.321,679.582 
		1805.597,687.107 1804.034,687.538 1773.884,696.062 1773.419,696.169 1764.503,698.281 1763.29,698.528 1740.037,703.355 
		1738.882,703.548 1716.837,707.294 1715.604,707.455 1692.173,710.603 1691.616,710.663 1688.416,710.952 1667.153,712.942 
		1657.51,713.84 1654.499,714.092 1646.02,714.654 1645.32,714.698 1631.51,715.479 1630.927,715.508 1619.554,716.019 
		1618.905,716.044 1606.343,716.473 1605.521,716.495 1589.75,716.843 1588.848,716.857 1571.808,717.009 1571.136,717.013 
		1558.625,716.989 1557.622,716.985 1539.244,716.761 1537.665,716.732 1509.362,715.961 1508.56,715.936 1494.575,715.339 
		1493.737,715.301 1479.331,714.499 1478.551,714.45 1465.259,713.496 1464.462,713.429 1451.024,712.206 1450.219,712.119 
		1436.765,710.578 1435.961,710.466 1422.635,708.568 1421.696,708.401 1406.202,705.651 1405.299,705.448 1390.427,702.179 
		1389.627,701.96 1376.462,698.494 1375.763,698.267 1364.196,694.742 1363.548,694.499 1352.732,690.772 1352.055,690.483 
		1340.672,686.1 1340.047,685.802 1329.442,681.317 1328.271,680.7 1308.159,671.511 1306.947,670.893 1286.259,661.776 
		1285.51,661.45 1272.877,656.632 1271.75,656.233 1253.025,650.308 1251.943,650.009 1234.035,645.512 1233.229,645.329 
		1219.787,642.545 1218.985,642.391 1205.435,640 1204.658,639.872 1191.334,637.879 1190.601,637.779 1177.74,636.177 
		1177.058,636.104 1164.787,634.888 1164.156,634.837 1152.432,633.994 1151.84,633.967 1140.514,633.486 1139.952,633.48 
		1128.84,633.351 1128.477,633.356 1121.032,633.457 1120.68,633.469 1113.246,633.712 1112.781,633.74 1102.635,634.287 
		1102.08,634.336 1089.337,635.347 1088.802,635.41 1075.578,636.807 1075.013,636.889 1059.59,638.939 1059.096,639.028 
		1043.499,641.548 1042.757,641.716 1013.994,647.485 1013.738,647.554 996.042,651.708 995.985,651.724 987.532,653.811 
		987.487,653.824 981.864,655.232 971.364,657.868 971.266,657.891 941.544,665.007 940.798,665.165 906.07,672.166 
		904.376,672.476 872.455,677.839 870.205,678.192 836.217,683.289 833.064,683.74 820.836,685.473 819.589,685.644 
		796.509,688.776 793.819,689.131 783.007,690.529 781.659,690.701 744,695.154 738.438,695.805 701.854,699.378 695.538,700.003 
		659.81,702.775 652.814,703.345 617.171,705.595 609.469,706.119 580.564,707.71 573.908,708.111 552.715,709.166 547.646,709.444 
		539.746,709.811 521.476,710.627 501.673,711.47 484.015,712.143 463.626,712.517 442.704,712.982 423.724,712.969 
		403.826,713.023 384.551,712.786 364.041,712.585 353.364,712.415 341.914,712.249 331.147,712.054 319.566,711.853 
		299.346,711.243 277.575,710.594 256.806,709.147 234.498,707.624 214.391,705.085 192.957,702.455 177.972,699.952 
		162.18,697.388 142.814,693.46 	"/>
</g>
<g id="pockets">
</g>
<g id="ids">
	<polyline fill="none" stroke="#622B8A" stroke-miterlimit="10" points="1838.306,162.675 1740.29,162.675 1762.086,184.465 	"/>
	<polyline fill="none" stroke="#622B8A" stroke-miterlimit="10" points="1838.437,221.722 1740.423,221.722 1762.219,243.512 	"/>
	<polyline fill="none" stroke="#622B8A" stroke-miterlimit="10" points="2088.241,615.044 2088.241,571.513 2152.998,611.736 
		2153.058,611.786 2153.117,611.832 2153.178,611.877 2153.24,611.919 2153.304,611.96 2153.372,612.003 2153.443,612.043 
		2153.516,612.083 2153.594,612.125 2157.16,613.785 2160.856,614.755 2164.6,615.06 2168.307,614.719 2171.894,613.76 
		2175.276,612.206 2178.372,610.081 2181.098,607.404 2183.368,604.209 2185.007,600.632 2185.961,596.929 2186.257,593.184 
		2185.912,589.478 2184.95,585.894 2183.392,582.515 2181.261,579.421 2178.575,576.702 2175.359,574.434 2169.877,571.574 	"/>
	<polyline fill="none" stroke="#622B8A" stroke-miterlimit="10" points="2088.241,673.602 2186.259,673.602 2164.462,651.811 	"/>
	<polyline fill="none" stroke="#622B8A" stroke-miterlimit="10" points="128.682,1103.169 226.696,1103.169 204.899,1081.379 	"/>
	<polyline fill="none" stroke="#622B8A" stroke-miterlimit="10" points="226.696,1172.617 226.696,1172.617 224.358,1166.382 
		221.208,1160.66 217.325,1155.511 212.788,1150.992 207.675,1147.164 202.066,1144.084 196.038,1141.811 189.674,1140.403 
		183.049,1139.922 150.47,1139.922 146.556,1140.274 142.87,1141.286 139.476,1142.899 136.434,1145.048 133.807,1147.674 
		131.656,1150.712 130.045,1154.102 129.032,1157.781 128.682,1161.688 129.032,1165.603 130.045,1169.286 131.656,1172.677 
		133.807,1175.714 136.434,1178.337 139.476,1180.483 142.87,1182.093 146.556,1183.103 150.47,1183.454 161.314,1183.454 
		165.226,1183.103 168.908,1182.093 172.295,1180.483 175.328,1178.337 177.945,1175.714 180.088,1172.677 181.691,1169.286 
		182.699,1165.603 183.049,1161.688 183.049,1139.922 	"/>
	<line fill="none" stroke="#622B8A" stroke-miterlimit="10" x1="116.429" y1="1137.195" x2="116.429" y2="1186.204"/>
	<polyline fill="none" stroke="#622B8A" stroke-miterlimit="10" points="2088.108,615.044 2088.108,571.513 2152.866,611.736 
		2152.926,611.786 2152.985,611.832 2153.046,611.877 2153.108,611.919 2153.173,611.96 2153.24,612.003 2153.311,612.043 
		2153.384,612.083 2153.462,612.125 2157.028,613.785 2160.724,614.755 2164.468,615.06 2168.175,614.719 2171.762,613.76 
		2175.144,612.206 2178.239,610.081 2180.966,607.404 2183.236,604.209 2184.874,600.632 2185.829,596.929 2186.124,593.184 
		2185.78,589.478 2184.817,585.894 2183.259,582.515 2181.129,579.421 2178.443,576.702 2175.227,574.434 2169.745,571.574 	"/>
	<polyline fill="none" stroke="#622B8A" stroke-miterlimit="10" points="2088.11,673.602 2186.126,673.602 2164.33,651.811 	"/>
</g>
</svg>
