<?xml version="1.0" encoding="utf-8"?>
<!-- Generator: Adobe Illustrator 16.0.0, SVG Export Plug-In . SVG Version: 6.00 Build 0)  -->
<!DOCTYPE svg PUBLIC "-//W3C//DTD SVG 1.1//EN" "http://www.w3.org/Graphics/SVG/1.1/DTD/svg11.dtd">
<svg version="1.1" xmlns="http://www.w3.org/2000/svg" xmlns:xlink="http://www.w3.org/1999/xlink" x="0px" y="0px"
	 width="2834.646px" height="1417.322px" viewBox="0 0 2834.646 1417.322" enable-background="new 0 0 2834.646 1417.322"
	 xml:space="preserve">
<g id="profiles">
	<polyline fill="none" stroke="#0000FF" stroke-width="1" stroke-miterlimit="10" points="52.84,938.708 52.84,943.906 
		52.84,944.516 52.84,948.07 52.84,949.944 52.84,951.916 52.84,1262.873 52.84,1273.378 52.84,1277.598 52.84,1310.467 
		52.84,1314.609 52.84,1380.915 88.32,1380.915 219.518,1380.915 219.518,1357.262 219.518,1269.797 238.44,1269.797 
		308.411,1269.797 308.411,1293.451 308.411,1380.915 317.282,1380.915 350.082,1380.915 350.082,1357.262 350.082,1269.797 
		2025.021,1269.797 2477.993,1269.797 2477.993,1293.451 2477.993,1380.915 2486.863,1380.915 2519.662,1380.915 2519.662,1357.262 
		2519.662,1269.797 2538.585,1269.797 2608.558,1269.797 2608.558,1293.451 2608.558,1380.915 2644.038,1380.915 2775.234,1380.915 
		2775.234,1235.541 2775.234,1219.124 2775.234,1207.936 2775.234,1194.967 2775.234,1180.407 2775.234,1164.447 2775.234,1147.378 
		2775.234,1082.651 2775.234,1078.609 2774.604,1078.626 2766.586,1079.193 2758.411,1080.111 2735.909,1082.634 2729.874,1083.698 
		2713.218,1086.595 2707.017,1088.11 2689.874,1092.264 2682.608,1094.743 2662.494,1101.645 2655.178,1105.089 2634.904,1114.833 
		2629.853,1117.789 2615.844,1126.234 2608.879,1130.928 2589.55,1144.398 2579.76,1151.119 2552.502,1170.334 2547.999,1172.881 
		2535.418,1180.063 2530.948,1181.91 2518.442,1186.996 2514.433,1187.939 2503.197,1190.378 2499.217,1190.581 2488.067,1190.839 
		2484.133,1190.334 2473.115,1188.518 2469.244,1187.38 2458.418,1183.743 2453.936,1181.723 2441.396,1175.493 2437.098,1172.94 
		2425.049,1165.219 2421.23,1162.502 2410.5,1154.373 2407.129,1151.627 2397.61,1143.473 2394.44,1140.575 2385.432,1132.002 
		2382.076,1128.558 2372.475,1118.397 2369.362,1114.794 2360.385,1104.179 2354.771,1096.451 2338.433,1073.703 2333.589,1065.529 
		2319.343,1041.413 2316.919,1036.844 2309.719,1023.318 2306.6,1017.371 2297.267,999.71 2294.452,994.894 2286.006,980.529 
		2283.8,977.408 2277.186,968.053 2274.755,965.304 2267.484,957.027 2264.801,954.724 2256.785,947.753 2253.871,945.959 
		2245.165,940.488 2242.081,939.255 2232.849,935.451 2229.696,934.811 2220.232,932.791 2217.135,932.756 2207.783,932.568 
		2204.853,933.133 2195.954,934.769 2194.116,935.469 2188.51,937.558 2186.804,938.494 2181.58,941.321 2179.505,942.925 
		2173.121,947.801 2170.913,950.217 2164.087,957.608 2162.177,960.453 2156.235,969.204 2154.352,972.804 2148.462,983.938 
		2146.778,987.755 2141.487,999.619 2138.432,1006.788 2128.779,1029.23 2126.648,1033.521 2119.896,1047.075 2118.763,1049.058 
		2115.161,1055.352 2112.737,1059.018 2105.01,1070.708 2099.621,1077.007 2082.322,1097.261 2075.185,1103.562 2052.013,1124.016 
		2045.63,1128.522 2024.731,1143.237 2018.586,1146.725 1998.378,1158.133 1996.312,1159.114 1989.498,1162.326 1985.635,1163.923 
		1972.851,1169.15 1971.018,1169.814 1964.926,1171.996 1957.983,1174.152 1934.748,1181.284 1926.876,1183.312 1900.176,1190.129 
		1891.511,1191.946 1861.845,1198.112 1852.694,1199.516 1821.229,1204.271 1813.605,1205.063 1787.387,1207.719 1781.611,1208.148 
		1761.78,1209.573 1743.308,1210.567 1735.111,1211.019 1719.293,1211.612 1699.104,1212.343 1673.347,1212.575 1661.392,1212.697 
		1637.853,1211.828 1626.961,1211.46 1603.767,1208.927 1593.061,1207.806 1580.782,1205.478 1575.12,1204.436 1563.297,1201.318 
		1557.85,1199.918 1537.267,1191.766 1527.792,1188.092 1508.665,1176.279 1499.86,1170.958 1482.999,1156.072 1475.23,1149.383 
		1463.623,1136.308 1458.272,1130.449 1444.183,1111.411 1437.714,1102.925 1424.922,1082.633 1419.093,1073.656 1408.275,1054.022 
		1403.403,1045.414 1396.177,1030.752 1392.961,1024.381 1384.216,1004.753 1380.396,996.311 1373.396,979.442 1370.399,972.255 
		1364.428,957.976 1361.908,951.934 1354.822,936.604 1351.866,930.15 1341.603,912.604 1337.347,905.239 1331.853,898.038 
		1329.573,895.013 1323.625,888.688 1321.159,886.032 1315.795,881.482 1313.571,879.571 1307.952,875.865 1305.625,874.309 
		1299.943,871.595 1297.594,870.458 1291.779,868.697 1289.375,867.96 1283.494,867.194 1281.065,866.879 1275.894,867.056 
		1273.762,867.139 1268.366,868.174 1266.146,868.617 1260.59,870.611 1258.31,871.458 1252.66,874.479 1250.354,875.758 
		1243.85,880.552 1241.2,882.577 1234.793,888.797 1232.2,891.418 1226.189,898.735 1223.771,901.812 1217.995,910.324 
		1215.688,913.896 1205.129,933.204 1200.957,941.278 1191.022,962.464 1187.123,971.288 1180.373,985.703 1177.714,991.689 
		1166.771,1012.932 1162.42,1021.725 1145.845,1048.441 1139.165,1059.46 1125.2,1078.2 1119.527,1085.907 1103.57,1104.189 
		1097.067,1111.688 1085.613,1122.881 1080.938,1127.459 1058.479,1145.011 1049.302,1152.159 1036.435,1159.915 1031.169,1163.055 
		1017.124,1169.927 1011.376,1172.695 996.177,1178.566 989.957,1180.912 973.709,1185.696 967.067,1187.587 932.165,1193.723 
		917.926,1196.076 892.899,1197.651 882.731,1198.175 857.753,1197.697 847.659,1197.374 823.479,1195.031 813.773,1193.944 
		791.027,1189.925 781.979,1188.154 751.821,1179.437 739.966,1175.696 713.373,1163.461 703.026,1158.289 691.486,1151.267 
		686.992,1148.317 675.654,1140.347 671.216,1137.007 654.355,1123.271 647.699,1117.529 622.165,1092.532 612.019,1082.106 
		590.186,1055.709 581.55,1044.715 567.957,1024.964 562.607,1016.748 554.839,1004.736 551.784,999.75 540.604,983.35 
		536.193,976.564 520.332,957.711 513.997,949.952 500.765,938.06 495.41,933.191 479.853,922.487 473.496,918.128 457.961,909.967 
		451.572,906.662 434.212,899.72 427.04,896.927 404.966,890.56 395.821,888.021 371.92,883.487 362.003,881.709 336.837,879.002 
		326.394,877.98 300.645,877.011 289.961,876.704 246.729,878.62 228.821,879.566 208.44,881.982 200.014,883.054 180.928,886.295 
		173.053,887.706 151.552,892.732 142.702,894.895 123.788,900.927 116.03,903.499 99.781,910.447 93.147,913.392 89.284,915.754 
		73.708,924.876 56.496,936.407 52.84,938.708 	"/>
	<polyline fill="none" stroke="#0000FF" stroke-width="1" stroke-miterlimit="10" points="2613.039,496.998 2613.039,595.465 
		2613.039,608.117 2534.268,608.117 2524.146,608.117 2524.146,509.65 2524.146,496.998 2487.223,496.998 2482.477,496.998 
		2482.476,595.465 2482.476,608.117 2240.188,608.117 354.563,608.117 354.563,509.65 354.563,496.998 317.639,496.998 
		312.895,496.998 312.895,595.465 312.895,608.117 234.122,608.117 224,608.117 224,509.65 224,496.998 76.302,496.998 
		57.323,496.998 57.323,545.405 57.323,547.42 57.323,609.746 57.323,623.453 57.323,645.047 57.323,674.679 57.323,717.345 
		57.323,781.527 57.323,801.688 57.323,823.177 57.323,833.135 57.841,833.077 58.789,832.993 86.013,830.418 95.982,829.48 
		104.496,828.795 105.997,828.229 112.301,825.128 115.545,823.766 125.669,818.503 129.221,816.949 140.514,810.91 
		151.132,806.395 185.359,788.596 190.646,786.708 207.656,779.041 212.724,777.653 228.89,771.789 233.855,770.892 
		249.643,766.803 254.739,766.282 271.064,763.552 276.508,763.273 294.233,761.395 300.104,761.271 319.596,759.927 
		325.842,759.935 346.954,759.039 353.452,759.19 375.735,758.813 388.951,759.663 434.983,760.949 447.818,762.633 493.362,767.21 
		505.495,769.627 549.198,777.286 556.297,778.983 582.165,784.674 595.005,788.023 642.111,799.648 650.071,801.874 
		679.558,809.892 684.389,811.324 702.385,816.603 711.578,819.566 745.987,830.704 753.986,833.573 784.265,844.607 
		791.572,847.482 819.605,858.681 826.159,861.439 851.601,872.266 857.472,874.801 880.421,884.808 885.857,887.067 
		907.12,896.058 911.534,897.707 928.775,904.378 933.173,905.779 950.328,911.549 954.718,912.664 971.846,917.353 
		976.163,918.146 993.036,921.587 997.164,922.051 1013.333,924.173 1017.151,924.338 1032.128,925.25 1035.527,925.157 
		1048.851,925.047 1053.198,924.73 1063.133,923.679 1080.185,921.279 1080.651,921.196 1099.738,916.249 1099.999,916.195 
		1118.029,909.657 1118.265,909.588 1143.696,897.466 1143.987,897.355 1170.487,881.554 1170.722,881.439 1196.979,862.77 
		1197.125,862.684 1211.616,851.335 1211.669,851.303 1218.257,846.041 1218.274,846.029 1230.606,836.304 1230.616,836.296 
		1236.868,831.741 1252.908,820.052 1252.975,820.01 1284.69,800.844 1284.74,800.817 1294.151,795.944 1294.298,795.873 
		1319.157,784.55 1319.335,784.481 1343.227,775.561 1343.441,775.494 1369.004,767.972 1370.039,767.761 1405.035,760.733 
		1411.503,759.947 1417.324,759.173 1422.57,758.7 1432.37,758.031 1436.672,757.803 1444.714,757.575 1449.452,757.481 
		1458.311,757.542 1464.234,757.646 1475.309,758.17 1481.67,758.551 1493.551,759.657 1498.186,760.103 1506.83,761.255 
		1513.563,762.146 1526.091,764.324 1536.262,766.182 1555.084,770.529 1560.023,771.657 1569.132,774.208 1574.172,775.521 
		1583.449,778.427 1588.071,779.793 1596.576,782.741 1601.239,784.295 1609.83,787.564 1614.51,789.323 1623.155,792.925 
		1627.82,794.897 1636.486,798.831 1641.983,801.453 1652.275,806.542 1657.671,809.435 1667.892,814.911 1672.803,817.805 
		1682.245,823.181 1686.705,826 1695.408,831.163 1699.733,834.044 1708.308,839.255 1713.045,842.54 1722.604,848.418 
		1727.195,851.678 1736.611,857.456 1745.618,863.857 1764.393,875.038 1773.444,881.058 1792.426,891.41 1797.603,894.48 
		1808.385,899.723 1815.576,903.417 1830.38,909.714 1836.845,912.464 1850.037,917.17 1854.719,918.85 1864.252,921.744 
		1868.886,923.174 1878.351,925.65 1882.869,926.834 1892.164,928.894 1896.521,929.834 1905.575,931.484 1909.746,932.193 
		1918.522,933.444 1922.52,933.927 1931.037,934.786 1934.892,935.054 1943.2,935.531 1946.946,935.595 1955.105,935.701 
		1957.584,935.635 1963.022,935.506 1965.469,935.357 1970.865,935.071 1974.153,934.748 1981.446,934.133 1985.5,933.556 
		1994.562,932.453 1998.687,931.678 2008.029,930.173 2012.756,929.062 2023.666,926.864 2028.374,925.526 2039.521,922.82 
		2048.11,919.834 2069.322,913.542 2074.496,911.465 2088.072,906.811 2090.498,905.79 2097.123,903.398 2101.724,901.422 
		2114.668,896.618 2123.01,893.091 2147.879,883.805 2157.042,880.249 2186.879,869.568 2194.525,866.841 2221.971,857.414 
		2229.359,854.895 2258.483,845.068 2260.911,844.259 2271.396,840.752 2275.813,839.308 2295.741,832.719 2297.69,832.097 
		2307.105,829.034 2313.675,827.047 2347.093,816.584 2352.85,815.029 2386.352,805.415 2391.365,804.236 2424.838,795.621 
		2429.233,794.715 2462.854,786.963 2465.973,786.383 2493.15,780.681 2495.217,780.327 2515.105,776.469 2521.154,775.458 
		2536.614,772.656 2568.15,766.027 2569.536,765.742 2569.948,765.696 2606.082,760.626 2606.384,760.608 2641.315,758.011 
		2641.56,758.009 2678.343,757.259 2678.448,757.263 2699.273,757.565 2699.369,757.569 2720.582,758.378 2720.744,758.392 
		2760.978,761.679 2770.778,762.982 2776.807,763.979 2779.718,764.588 2779.718,734.779 2779.718,496.998 2632.018,496.998 
		2613.039,496.998 	"/>
	<polyline fill="none" stroke="#0000FF" stroke-width="1" stroke-miterlimit="10" points="2768.573,375.282 2770.271,375.146 
		2770.271,367.725 2770.271,261.474 2770.271,248.085 2770.271,33.746 2655.576,33.746 2603.594,33.746 2603.594,110.209 
		2603.594,144.865 2542.424,144.865 2514.699,144.865 2514.699,68.402 2514.699,33.746 2486.025,33.746 2473.028,33.746 
		2473.029,110.209 2473.029,144.865 1809.373,144.865 345.116,144.865 345.116,68.402 345.116,33.746 316.443,33.746 
		303.448,33.746 303.448,110.209 303.448,144.865 242.277,144.865 214.554,144.865 214.554,68.402 214.554,33.746 99.859,33.746 
		47.876,33.746 47.876,166.339 47.876,171.859 47.876,316.584 47.876,316.708 47.876,316.873 47.876,321.541 52.588,322.162 
		59.399,323.323 60.811,323.581 73.964,326.177 75.391,326.46 88.682,329.281 90.12,329.59 103.499,332.631 104.941,332.962 
		118.34,336.217 119.779,336.57 133.111,340.021 134.536,340.394 147.703,344.025 149.103,344.416 162.008,348.202 163.373,348.609 
		188.059,356.54 190.642,357.38 213.528,365.566 215.893,366.422 237.209,374.568 239.382,375.407 251.995,380.239 253.271,380.731 
		276.911,389.27 279.265,390.126 294.832,395.229 296.366,395.734 306.197,398.792 307.16,399.093 326.492,404.988 328.358,405.559 
		345.554,411.029 347.19,411.551 362.907,417.122 364.38,417.646 378.558,423.277 379.864,423.801 393.125,429.272 394.327,429.774 
		407.756,434.742 408.952,435.192 421.009,438.684 422.07,438.997 435.15,441.683 436.287,441.922 450.284,443.702 451.487,443.859 
		466.036,444.699 467.272,444.774 481.849,444.704 483.067,444.699 497.19,443.79 498.355,443.715 511.618,442.062 512.695,441.925 
		525.146,439.606 525.894,439.434 526.359,439.308 528.975,438.624 542.491,434.894 544.906,433.996 559.72,427.855 561.938,426.72 
		575.326,419.082 578.492,417.024 597.384,403.38 600.861,400.708 621.431,383.287 625.047,380.107 646.067,359.742 
		648.128,357.797 659.859,345.538 660.812,344.636 666.194,339.003 668.005,337.345 678.203,327.058 681.541,324.326 
		700.431,307.606 705.147,304.445 732.087,285.505 733.45,284.705 741.249,279.998 744.726,278.13 764.7,267.285 767.903,265.776 
		786.391,257.207 789.703,255.865 808.951,248.434 837.05,239.925 839.603,239.123 841.811,238.515 850.287,236.767 858.938,235.13 
		863.483,234.361 870.672,233.278 874.446,232.778 882.437,231.833 886.637,231.41 896.729,230.575 902.041,230.217 
		913.023,229.735 918.815,229.551 926.935,229.457 931.227,229.444 943.232,229.688 949.601,229.844 968.234,231.117 
		978.187,231.762 987.439,232.84 992.412,233.374 1001.943,234.868 1007.096,235.611 1015.871,237.414 1020.639,238.323 
		1029.475,240.65 1034.302,241.841 1043.09,244.777 1047.917,246.305 1056.545,249.922 1061.309,251.834 1071.214,257.075 
		1076.711,259.883 1086.061,266.128 1091.271,269.511 1099.391,276.16 1103.933,279.786 1110.92,286.592 1114.831,290.318 
		1121.226,297.573 1124.802,301.551 1131.368,310.17 1135.036,314.895 1140.997,323.816 1144.318,328.707 1155.271,347.287 
		1161.377,357.453 1172.464,376.222 1178.756,386.46 1185.606,396.5 1189.571,401.958 1199.962,414.436 1206.043,421.187 
		1216.28,430.78 1222.283,435.931 1230.158,441.932 1234.747,445.128 1242.845,450.321 1247.517,453.066 1255.631,457.416 
		1260.252,459.702 1268.221,463.195 1272.688,465.017 1280.402,467.645 1284.656,469.01 1292.102,470.771 1296.147,471.684 
		1303.373,472.587 1307.26,473.062 1314.335,473.127 1318.119,473.177 1322.829,472.766 1325.348,472.572 1330.019,471.812 
		1332.518,471.447 1338.782,469.888 1342.142,469.14 1349.779,466.426 1353.892,465.122 1361.559,461.509 1365.691,459.784 
		1374.332,454.627 1378.979,452.191 1387.395,446.014 1391.889,443.128 1406.718,429.372 1414.42,423.11 1423.116,413.506 
		1427.488,409.241 1431.556,404.491 1433.554,402.416 1441.318,393.199 1445,389.281 1459.811,372.688 1466.319,366.057 
		1485.049,349 1492.469,342.787 1511.323,329.25 1518.102,324.754 1539.977,311.685 1547.119,307.706 1555.328,303.288 
		1557.892,301.994 1574.021,293.963 1578.764,291.729 1586.518,288.158 1588.717,287.193 1617.155,275.682 1624.477,272.845 
		1653.771,263.66 1660.533,261.625 1691.132,254.746 1697.469,253.374 1730.76,248.314 1736.948,247.385 1766.403,244.395 
		1771.43,243.854 1794.512,242.32 1798.233,242.033 1802.283,241.832 1826,241.003 1832.984,240.915 1864.267,240.945 
		1873.298,241.395 1904.898,242.969 1904.99,242.98 1941.213,246.765 1941.362,246.789 1976.356,251.836 1976.448,251.854 
		1995.03,254.859 1995.12,254.876 2013.304,258.017 2013.453,258.058 2046.183,265.221 2046.292,265.266 2078.161,276.965 
		2078.204,276.991 2094.261,286.418 2107.663,294.285 2107.705,294.308 2129.07,310.254 2129.162,310.317 2156.214,334.09 
		2156.453,334.281 2181.109,361.814 2181.455,362.17 2201.393,390.832 2201.778,391.351 2214.458,412.487 2214.759,412.955 
		2229.588,439.426 2230.024,440.155 2241.851,461.78 2242.26,462.487 2252.387,480.856 2252.78,481.539 2264.428,501.38 
		2264.937,502.226 2280.071,523.385 2280.824,524.428 2287.938,531.847 2288.312,532.237 2295.279,537.74 2295.664,538.049 
		2301.371,541.271 2301.698,541.463 2307.16,543.492 2307.484,543.62 2312.524,544.598 2312.831,544.667 2317.542,544.86 
		2317.837,544.881 2322.183,544.479 2322.458,544.464 2326.053,543.775 2326.286,543.74 2329.967,542.761 2330.211,542.707 
		2333.969,541.438 2334.226,541.365 2338.05,539.811 2338.319,539.715 2342.779,537.589 2343.107,537.451 2347.615,534.976 
		2347.961,534.808 2352.345,532.104 2352.695,531.914 2357.086,528.934 2357.453,528.71 2365.911,522.276 2366.677,521.752 
		2374.816,514.863 2375.614,514.252 2380.893,509.534 2381.438,509.088 2389.171,501.983 2390.025,501.257 2400.037,491.975 
		2401.236,490.926 2408.603,484.182 2409.532,483.361 2417.107,476.6 2418.111,475.722 2423.076,471.437 2423.753,470.854 
		2432.483,463.704 2433.731,462.668 2438.262,459.192 2438.924,458.668 2443.569,455.292 2444.262,454.763 2449.029,451.511 
		2449.758,450.981 2454.645,447.878 2455.407,447.352 2465.522,441.692 2467.168,440.657 2474.371,437.234 2475.581,436.558 
		2482.918,433.561 2484.189,432.92 2491.575,430.354 2492.9,429.752 2500.228,427.59 2501.594,427.031 2511.997,424.462 
		2514.053,423.702 2523.743,421.671 2525.795,420.971 2530.004,420.162 2530.935,419.853 2534.997,419.112 2535.927,418.812 
		2541.85,417.824 2543.261,417.384 2552.553,416.17 2554.887,415.514 2564.376,414.748 2566.877,414.153 2574.166,413.82 
		2576.174,413.4 2580.657,413.271 2581.938,413.018 2588.067,412.903 2589.895,412.549 2597.107,412.48 2599.373,412.046 
		2604.277,412.018 2605.876,411.712 2610.822,411.674 2612.477,411.36 2616.85,411.291 2618.343,411.002 2622.776,410.872 
		2624.321,410.56 2629.498,410.298 2631.344,409.899 2636.577,409.482 2638.484,409.033 2643.782,408.438 2645.757,407.928 
		2651.155,407.155 2653.206,406.584 2662.801,404.881 2666.528,403.766 2671.567,402.747 2673.551,402.128 2678.775,401.011 
		2680.85,400.351 2687.587,398.838 2690.288,397.963 2697.324,396.319 2700.172,395.385 2707.5,393.615 2710.495,392.624 
		2715.761,390.929 2721.078,389.639 2727.354,385.934 2730.046,384.546 2732.156,383.732 2739.624,380.536 2742.88,379.761 
		2754.418,376.664 2760.949,375.996 2768.573,375.282 	"/>
</g>
<g id="follow_x5F_paths">
	<polyline fill="none" stroke="#DB2526" stroke-width="1" stroke-miterlimit="10" points="2686.189,1190.325 2678.925,1191.316 
		2658.81,1194.077 2651.493,1195.455 2631.22,1199.353 2626.168,1200.534 2612.158,1203.913 2605.194,1205.791 2585.864,1211.179 
		2576.074,1213.867 2548.817,1221.553 2544.314,1222.571 2531.733,1225.444 2527.264,1226.184 2514.759,1228.217 2510.746,1228.595 
		2499.514,1229.571 2495.531,1229.651 2484.384,1229.755 2480.447,1229.552 2469.433,1228.826 2465.56,1228.372 2454.733,1226.917 
		2450.251,1226.108 2437.712,1223.616 2433.411,1222.595 2421.363,1219.506 2417.546,1218.42 2406.815,1215.168 2403.444,1214.07 
		2393.927,1210.808 2390.756,1209.649 2381.745,1206.22 2378.392,1204.842 2368.79,1200.778 2365.678,1199.336 2356.7,1195.091 
		2351.087,1192 2334.747,1182.9 2329.904,1179.631 2315.657,1169.984 2313.234,1168.156 2306.034,1162.747 2302.914,1160.367 
		2293.582,1153.303 2290.768,1151.377 2282.321,1145.631 2280.114,1144.383 2273.501,1140.642 2271.07,1139.541 2263.801,1136.23 
		2261.115,1135.309 2253.101,1132.521 2250.187,1131.803 2241.48,1129.615 2238.396,1129.121 2229.162,1127.6 2226.012,1127.343 
		2216.548,1126.535 2213.45,1126.522 2204.1,1126.447 2201.168,1126.671 2192.27,1127.327 2190.433,1127.606 2184.824,1128.442 
		2183.119,1128.817 2177.896,1129.947 2175.82,1130.589 2169.437,1132.54 2167.229,1133.506 2160.402,1136.462 2158.491,1137.601 
		2152.551,1141.101 2150.667,1142.541 2144.777,1146.995 2143.094,1148.521 2137.803,1153.267 2134.745,1156.135 2125.095,1165.111 
		2122.964,1166.828 2116.211,1172.249 2115.078,1173.042 2111.477,1175.56 2109.053,1177.026 2101.324,1181.703 2095.937,1184.222 
		2078.638,1192.323 2071.5,1194.844 2048.328,1203.025 2041.945,1204.828 2021.047,1210.714 2014.901,1212.109 1994.693,1216.672 
		1992.628,1217.064 1985.813,1218.35 1981.949,1218.988 1969.166,1221.08 1967.333,1221.345 1961.24,1222.218 1954.3,1223.08 
		1931.063,1225.934 1923.191,1226.744 1896.49,1229.471 1887.826,1230.197 1858.16,1232.664 1849.01,1233.226 1817.545,1235.127 
		1809.921,1235.444 1783.702,1236.507 1777.927,1236.679 1758.096,1237.249 1739.623,1237.646 1731.427,1237.827 1715.608,1238.064 
		1695.419,1238.356 1669.662,1238.449 1657.707,1238.498 1634.168,1238.15 1623.276,1238.003 1600.08,1236.99 1589.376,1236.542 
		1577.1,1235.61 1571.436,1235.193 1559.612,1233.947 1554.164,1233.387 1533.58,1230.125 1524.107,1228.656 1504.98,1223.931 
		1496.177,1221.803 1479.314,1215.848 1471.546,1213.172 1459.938,1207.942 1454.588,1205.6 1440.499,1197.983 1434.029,1194.589 
		1421.238,1186.473 1415.407,1182.881 1404.59,1175.027 1399.718,1171.584 1392.491,1165.72 1389.277,1163.171 1380.531,1155.321 
		1376.711,1151.943 1369.712,1145.196 1366.716,1142.321 1360.743,1136.609 1358.225,1134.192 1351.138,1128.061 1348.183,1125.479 
		1337.917,1118.461 1333.66,1115.515 1328.168,1112.634 1325.889,1111.425 1319.939,1108.894 1317.475,1107.832 1312.11,1106.012 
		1309.887,1105.248 1304.269,1103.766 1301.939,1103.143 1296.26,1102.058 1293.908,1101.603 1288.094,1100.898 1285.69,1100.604 
		1279.81,1100.297 1277.381,1100.17 1272.209,1100.242 1270.076,1100.275 1264.683,1100.688 1262.463,1100.867 1256.904,1101.664 
		1254.625,1102.002 1248.977,1103.21 1246.669,1103.722 1240.164,1105.64 1237.517,1106.45 1231.109,1108.938 1228.517,1109.986 
		1222.505,1112.913 1220.088,1114.144 1214.311,1117.549 1212.004,1118.978 1201.443,1126.701 1197.272,1129.93 1187.337,1138.405 
		1183.438,1141.934 1176.688,1147.7 1174.03,1150.095 1163.087,1158.591 1158.735,1162.109 1142.16,1172.796 1135.481,1177.203 
		1121.517,1184.699 1115.845,1187.782 1099.886,1195.095 1093.385,1198.095 1081.929,1202.571 1077.253,1204.403 1054.795,1211.423 
		1045.618,1214.283 1032.749,1217.385 1027.486,1218.642 1013.439,1221.39 1007.691,1222.497 992.491,1224.845 986.272,1225.784 
		970.025,1227.698 963.382,1228.454 928.481,1230.908 914.24,1231.85 889.216,1232.479 879.047,1232.688 854.069,1232.498 
		843.975,1232.369 819.795,1231.431 810.089,1230.997 787.344,1229.388 778.293,1228.681 748.137,1225.194 736.282,1223.698 
		709.689,1218.804 699.342,1216.735 687.802,1213.926 683.307,1212.746 671.97,1209.558 667.531,1208.222 650.671,1202.728 
		644.015,1200.431 618.481,1190.432 608.336,1186.262 586.501,1175.703 577.866,1171.305 564.273,1163.405 558.922,1160.118 
		551.154,1155.314 548.099,1153.319 536.92,1146.759 532.509,1144.045 516.647,1136.503 510.313,1133.399 497.08,1128.644 
		491.726,1126.695 476.168,1122.414 469.811,1120.67 454.275,1117.407 447.888,1116.084 430.527,1113.308 423.355,1112.19 
		401.282,1109.644 392.137,1108.628 368.235,1106.814 358.318,1106.103 333.151,1105.02 322.709,1104.611 296.96,1104.223 
		286.275,1104.101 243.045,1104.867 225.137,1105.246 204.756,1106.211 196.328,1106.642 177.243,1107.937 169.368,1108.502 
		147.867,1110.512 	"/>
	<polyline fill="none" stroke="#DB2526" stroke-width="1" stroke-miterlimit="10" points="137.867,696.032 148.485,694.226 
		182.714,687.106 188.001,686.352 205.01,683.284 210.076,682.729 226.243,680.383 231.209,680.024 246.996,678.389 
		252.093,678.181 268.417,677.089 273.861,676.978 291.585,676.226 297.457,676.177 316.948,675.64 323.195,675.643 
		344.307,675.284 350.806,675.345 373.09,675.193 386.306,675.533 432.337,676.049 445.172,676.721 490.717,678.553 
		502.849,679.519 546.553,682.583 553.65,683.261 579.521,685.538 592.358,686.878 639.465,691.527 647.426,692.418 
		676.911,695.625 681.743,696.197 699.738,698.31 708.932,699.495 743.342,703.949 751.34,705.097 781.618,709.511 788.926,710.661 
		816.96,715.142 823.513,716.245 848.954,720.575 854.824,721.588 877.774,725.592 883.211,726.496 904.475,730.091 
		908.889,730.751 926.129,733.419 930.526,733.98 947.683,736.288 952.071,736.733 969.2,738.609 973.517,738.927 990.39,740.303 
		994.518,740.488 1010.687,741.338 1014.506,741.403 1029.481,741.769 1032.881,741.731 1046.204,741.687 1050.552,741.56 
		1060.487,741.14 1077.538,740.18 1078.005,740.147 1097.094,738.168 1097.353,738.146 1115.382,735.531 1115.618,735.504 
		1141.05,730.655 1141.342,730.61 1167.842,724.29 1168.075,724.244 1194.333,716.776 1194.479,716.742 1208.972,712.202 
		1209.022,712.19 1215.611,710.085 1215.628,710.08 1227.961,706.19 1227.97,706.187 1234.225,704.365 1250.264,699.688 
		1250.328,699.672 1282.044,692.006 1282.094,691.996 1291.506,690.046 1291.653,690.018 1316.51,685.488 1316.688,685.46 
		1340.581,681.893 1340.796,681.866 1366.357,678.857 1367.393,678.773 1402.389,675.961 1408.855,675.647 1414.68,675.337 
		1419.924,675.148 1429.724,674.88 1434.025,674.79 1442.067,674.698 1446.806,674.661 1455.664,674.686 1461.588,674.727 
		1472.662,674.936 1479.023,675.088 1490.905,675.531 1495.539,675.71 1504.184,676.17 1510.917,676.527 1523.445,677.398 
		1533.615,678.142 1552.438,679.88 1557.378,680.331 1566.485,681.351 1571.525,681.876 1580.803,683.039 1585.426,683.586 
		1593.933,684.766 1598.594,685.386 1607.185,686.694 1611.863,687.398 1620.51,688.838 1625.176,689.627 1633.841,691.201 
		1639.338,692.25 1649.63,694.285 1655.024,695.442 1665.243,697.633 1670.157,698.79 1679.6,700.94 1684.059,702.069 
		1692.762,704.133 1697.087,705.286 1705.66,707.371 1710.399,708.684 1719.957,711.035 1724.549,712.341 1733.965,714.651 
		1742.972,717.211 1761.747,721.684 1770.798,724.091 1789.778,728.232 1794.957,729.46 1805.738,731.558 1812.93,733.035 
		1827.734,735.553 1834.199,736.654 1847.392,738.536 1852.071,739.208 1861.605,740.365 1866.239,740.938 1875.704,741.928 
		1880.224,742.402 1889.518,743.225 1893.875,743.602 1902.929,744.263 1907.1,744.546 1915.877,745.046 1919.873,745.239 
		1928.392,745.583 1932.245,745.69 1940.554,745.881 1944.301,745.906 1952.459,745.949 1954.938,745.922 1960.377,745.87 
		1962.822,745.811 1968.219,745.697 1971.508,745.568 1978.801,745.321 1982.854,745.091 1991.916,744.649 1996.04,744.339 
		2005.384,743.738 2010.109,743.293 2021.02,742.414 2025.728,741.878 2036.875,740.796 2045.465,739.602 2066.677,737.084 
		2071.85,736.254 2085.427,734.393 2087.853,733.984 2094.477,733.027 2099.076,732.237 2112.022,730.315 2120.363,728.904 
		2145.233,725.191 2154.396,723.768 2184.233,719.496 2191.88,718.404 2219.324,714.634 2226.713,713.626 2255.837,709.695 
		2258.267,709.372 2268.75,707.969 2273.167,707.392 2293.096,704.757 2295.044,704.507 2304.459,703.283 2311.027,702.487 
		2344.445,698.302 2350.203,697.68 2383.705,693.834 2388.719,693.363 2422.192,689.917 2426.587,689.555 2460.207,686.454 
		2463.324,686.221 2490.504,683.941 2492.569,683.799 2512.459,682.255 2518.509,681.852 2533.969,680.731 2565.505,678.08 
		2566.892,677.965 2567.302,677.947 2603.436,675.919 2603.736,675.911 2638.67,674.873 2638.914,674.872 2675.695,674.571 
		2675.803,674.573 	"/>
	<polyline fill="none" stroke="#DB2526" stroke-width="1" stroke-miterlimit="10" points="133.243,233.252 134.669,233.401 
		147.835,234.853 149.235,235.01 162.14,236.524 163.506,236.687 188.191,239.859 190.774,240.195 213.66,243.471 216.023,243.812 
		237.342,247.071 239.514,247.405 252.128,249.338 253.402,249.536 277.043,252.951 279.397,253.293 294.964,255.334 
		296.498,255.536 306.328,256.761 307.292,256.88 326.625,259.238 328.491,259.467 345.686,261.655 347.322,261.864 
		363.039,264.093 364.512,264.302 378.69,266.554 379.996,266.765 393.257,268.952 394.459,269.153 407.888,271.14 409.085,271.32 
		421.142,272.717 422.202,272.843 435.282,273.916 436.419,274.012 450.417,274.724 451.62,274.788 466.169,275.123 
		467.403,275.152 481.979,275.125 483.2,275.123 497.323,274.759 498.487,274.73 511.749,274.068 512.828,274.013 525.277,273.086 
		526.026,273.018 526.491,272.966 529.106,272.693 542.623,271.201 545.037,270.841 559.851,268.385 562.07,267.932 
		575.459,264.876 578.624,264.053 597.517,258.595 600.992,257.527 621.562,250.558 625.18,249.286 646.2,241.14 648.26,240.361 
		659.991,235.458 660.943,235.098 666.327,232.844 668.137,232.182 678.336,228.066 681.674,226.974 700.562,220.286 
		705.28,219.021 732.22,211.445 733.581,211.125 741.381,209.243 744.858,208.496 764.833,204.157 768.035,203.555 786.522,200.126 
		789.836,199.59 809.083,196.617 837.182,193.214 839.735,192.893 841.943,192.649 850.42,191.95 859.071,191.295 863.615,190.987 
		870.805,190.554 874.579,190.354 882.569,189.976 886.769,189.808 896.861,189.474 902.174,189.33 913.156,189.137 
		918.948,189.063 927.067,189.026 931.359,189.021 943.364,189.118 949.731,189.182 968.367,189.69 978.319,189.948 
		987.571,190.379 992.545,190.593 1002.076,191.19 1007.227,191.488 1016.003,192.208 1020.771,192.572 1029.606,193.503 
		1034.434,193.98 1043.222,195.155 1048.049,195.766 1056.678,197.212 1061.441,197.977 1071.346,200.073 1076.844,201.196 
		1086.191,203.695 1091.403,205.047 1099.523,207.708 1104.062,209.158 1111.052,211.88 1114.962,213.371 1121.357,216.271 
		1124.935,217.864 1131.501,221.311 1135.168,223.201 1141.129,226.77 1144.45,228.726 1155.402,236.159 1161.51,240.224 
		1172.597,247.731 1178.888,251.827 1185.738,255.843 1189.703,258.026 1200.094,263.018 1206.174,265.719 1216.412,269.555 
		1222.416,271.615 1230.29,274.016 1234.879,275.294 1242.977,277.372 1247.648,278.47 1255.764,280.21 1260.385,281.124 
		1268.354,282.521 1272.819,283.25 1280.534,284.301 1284.788,284.847 1292.233,285.552 1296.279,285.916 1303.505,286.278 
		1307.391,286.467 1314.468,286.494 1318.251,286.513 1322.961,286.35 1325.48,286.272 1330.15,285.968 1332.649,285.821 
		1338.914,285.199 1342.273,284.899 1349.911,283.814 1354.021,283.292 1361.69,281.847 1365.824,281.157 1374.464,279.095 
		1379.11,278.119 1387.526,275.65 1392.019,274.494 1406.851,268.992 1414.552,266.487 1423.249,262.645 1427.621,260.939 
		1431.688,259.039 1433.686,258.209 1441.45,254.523 1445.132,252.956 1459.943,246.318 1466.452,243.665 1485.181,236.843 
		1492.601,234.358 1511.455,228.943 1518.234,227.145 1540.108,221.918 1547.251,220.325 1555.461,218.559 1558.021,218.041 
		1574.153,214.828 1578.896,213.935 1586.649,212.507 1588.85,212.121 1617.288,207.516 1624.609,206.381 1653.902,202.707 
		1660.665,201.893 1691.267,199.142 1697.601,198.593 1730.892,196.569 1737.08,196.196 1766.536,195.001 1771.562,194.785 
		1794.644,194.171 1798.365,194.058 1802.415,193.976 1826.132,193.644 1833.116,193.609 1864.397,193.621 1873.433,193.801 
		1905.03,194.431 1905.122,194.436 1941.345,195.949 1941.494,195.959 1976.488,197.978 1976.58,197.984 1995.163,199.186 
		1995.252,199.193 2013.436,200.45 2013.586,200.466 2046.314,203.332 2046.425,203.35 2078.293,208.029 2078.337,208.04 
		2094.393,211.811 2107.795,214.957 2107.837,214.966 2129.203,221.344 2129.295,221.37 2156.346,230.879 2156.585,230.956 
		2181.241,241.969 2181.587,242.111 2201.524,253.576 2201.91,253.783 2214.591,262.239 2214.892,262.425 2229.72,273.014 
		2230.156,273.306 2241.983,281.955 2242.392,282.237 2252.52,289.586 2252.912,289.859 2264.56,297.795 2265.068,298.133 
		2280.203,306.597 2280.956,307.015 2288.071,309.982 2288.445,310.138 2295.411,312.339 2295.796,312.462 2301.503,313.752 
		2301.83,313.828 2307.292,314.64 2307.616,314.691 2312.656,315.083 2312.963,315.109 2317.675,315.187 2317.969,315.196 
		2322.313,315.035 2322.591,315.029 2326.185,314.754 2326.418,314.739 2330.1,314.348 2330.344,314.326 2334.101,313.818 
		2334.357,313.789 2338.183,313.168 2338.452,313.129 2342.911,312.279 2343.24,312.224 2347.747,311.233 2348.094,311.167 
		2352.478,310.085 2352.827,310.009 2357.219,308.816 2357.585,308.727 2366.043,306.154 2366.809,305.944 2374.948,303.189 
		2375.746,302.944 2381.024,301.058 2381.57,300.878 2389.303,298.036 2390.157,297.746 2400.169,294.033 2401.368,293.614 
		2408.734,290.916 2409.664,290.587 2417.239,287.883 2418.243,287.532 2423.208,285.818 2423.885,285.585 2432.615,282.726 
		2433.863,282.31 2438.394,280.92 2439.057,280.71 2443.701,279.359 2444.395,279.148 2449.161,277.848 2449.891,277.636 
		2454.777,276.395 2455.539,276.184 2465.654,273.92 2467.301,273.505 2474.504,272.137 2475.713,271.867 2483.051,270.668 
		2484.321,270.412 2491.707,269.385 2493.032,269.144 2500.359,268.279 2501.727,268.055 2512.129,267.029 2514.185,266.724 
		2523.876,265.912 2525.927,265.631 2530.136,265.308 2531.066,265.184 2535.13,264.888 2536.058,264.768 2541.981,264.373 
		2543.393,264.196 2552.686,263.711 2555.019,263.449 2564.51,263.143 2567.01,262.904 2574.299,262.771 2576.307,262.603 
		2580.789,262.551 2582.07,262.45 2588.199,262.404 2590.026,262.263 2597.24,262.235 2599.505,262.061 2604.41,262.05 
		2606.009,261.928 2610.954,261.913 2612.608,261.788 2616.979,261.76 2618.474,261.644 2622.908,261.593 2624.453,261.467 
		2629.631,261.363 2631.475,261.203 2636.709,261.036 2638.616,260.856 2643.914,260.618 2645.89,260.414 2651.287,260.104 
		2653.338,259.878 2662.933,259.196 2666.66,258.749 2671.7,258.343 2673.683,258.095 2678.907,257.647 2680.981,257.383 	"/>
</g>
<g id="pockets">
</g>
<g id="ids">
	<polyline fill="none" stroke="#622B8A" stroke-miterlimit="10" points="2320.344,1230.814 2320.344,1230.814 2315.669,1218.343 
		2309.368,1206.899 2301.603,1196.602 2292.526,1187.564 2282.302,1179.907 2271.084,1173.747 2259.028,1169.202 2246.3,1166.388 
		2233.048,1165.425 2167.893,1165.425 2160.062,1166.127 2152.69,1168.153 2145.902,1171.378 2139.819,1175.677 2134.565,1180.928 
		2130.267,1187.005 2127.04,1193.784 2125.017,1201.144 2124.312,1208.956 2125.017,1216.785 2127.04,1224.152 2130.267,1230.935 
		2134.565,1237.009 2139.819,1242.254 2145.902,1246.547 2152.69,1249.766 2160.062,1251.786 2167.893,1252.487 2189.579,1252.487 
		2197.405,1251.786 2204.767,1249.766 2211.541,1246.547 2217.606,1242.254 2222.843,1237.009 2227.125,1230.935 2230.335,1224.152 
		2232.35,1216.785 2233.048,1208.956 2233.048,1165.425 	"/>
	<line fill="none" stroke="#622B8A" stroke-miterlimit="10" x1="2099.809" y1="1159.973" x2="2099.809" y2="1257.988"/>
	<polyline fill="none" stroke="#622B8A" stroke-miterlimit="10" points="2020.57,777.282 2020.57,820.814 1955.814,780.589 
		1955.755,780.542 1955.695,780.494 1955.635,780.45 1955.571,780.408 1955.508,780.366 1955.439,780.323 1955.369,780.283 
		1955.296,780.243 1955.219,780.201 1951.652,778.542 1947.955,777.571 1944.212,777.267 1940.506,777.607 1936.919,778.566 
		1933.536,780.121 1930.439,782.247 1927.714,784.921 1925.443,788.119 1923.808,791.695 1922.851,795.396 1922.558,799.143 
		1922.9,802.848 1923.862,806.434 1925.419,809.812 1927.552,812.905 1930.236,815.625 1933.452,817.893 1938.936,820.752 	"/>
	<polyline fill="none" stroke="#622B8A" stroke-miterlimit="10" points="2020.566,740.519 2020.566,718.754 2020.215,714.838 
		2019.203,711.155 2017.594,707.763 2015.445,704.726 2012.823,702.104 2009.788,699.958 2006.403,698.348 2002.731,697.338 
		1998.832,696.987 1987.934,696.987 1984.036,697.338 1980.364,698.348 1976.979,699.958 1973.944,702.104 1971.322,704.726 
		1969.175,707.763 1967.563,711.155 1966.551,714.838 1966.198,718.754 1966.198,729.65 1966.198,718.754 1965.849,714.838 
		1964.834,711.155 1963.221,707.763 1961.069,704.726 1958.441,702.104 1955.399,699.958 1952.005,698.348 1948.318,697.338 
		1944.402,696.987 1940.505,697.338 1936.833,698.348 1933.448,699.958 1930.414,702.104 1927.791,704.726 1925.644,707.763 
		1924.031,711.155 1923.019,714.838 1922.668,718.754 1922.668,740.519 	"/>
	<polyline fill="none" stroke="#622B8A" stroke-miterlimit="10" points="2436.539,318.572 2338.523,318.572 2360.32,340.362 	"/>
	<polyline fill="none" stroke="#622B8A" stroke-miterlimit="10" points="2414.808,281.818 2414.808,281.818 2418.723,281.468 
		2422.401,280.456 2425.789,278.842 2428.821,276.692 2431.438,274.068 2433.581,271.029 2435.186,267.639 2436.193,263.96 
		2436.543,260.053 2436.193,256.146 2435.186,252.468 2433.581,249.078 2431.438,246.039 2428.821,243.415 2425.789,241.266 
		2422.401,239.651 2418.723,238.639 2414.808,238.287 2403.966,238.287 2400.05,238.639 2396.363,239.651 2392.969,241.263 
		2389.928,243.413 2387.301,246.037 2385.15,249.075 2383.538,252.465 2382.526,256.145 2382.176,260.053 2382.526,263.962 
		2383.538,267.642 2385.152,271.031 2387.303,274.071 2389.933,276.695 2392.974,278.844 2396.365,280.456 2400.051,281.468 
		2403.966,281.818 2414.808,281.818 	"/>
	<polyline fill="none" stroke="#622B8A" stroke-miterlimit="10" points="2360.378,238.287 2360.378,238.287 2356.48,238.639 
		2352.809,239.651 2349.425,241.263 2346.392,243.413 2343.768,246.037 2341.619,249.075 2340.008,252.465 2338.994,256.145 
		2338.644,260.053 2338.994,263.962 2340.008,267.642 2341.619,271.031 2343.768,274.071 2346.392,276.695 2349.425,278.844 
		2352.809,280.456 2356.48,281.468 2360.378,281.818 2364.294,281.468 2367.98,280.456 2371.376,278.842 2374.418,276.692 
		2377.045,274.068 2379.196,271.029 2380.81,267.639 2381.822,263.96 2382.176,260.053 2381.822,256.146 2380.81,252.468 
		2379.196,249.078 2377.045,246.039 2374.418,243.415 2371.376,241.266 2367.98,239.651 2364.294,238.639 2360.378,238.287 	"/>
</g>
</svg>
