<?xml version="1.0" encoding="utf-8"?>
<!-- Generator: Adobe Illustrator 16.0.0, SVG Export Plug-In . SVG Version: 6.00 Build 0)  -->
<!DOCTYPE svg PUBLIC "-//W3C//DTD SVG 1.1//EN" "http://www.w3.org/Graphics/SVG/1.1/DTD/svg11.dtd">
<svg version="1.1" xmlns="http://www.w3.org/2000/svg" xmlns:xlink="http://www.w3.org/1999/xlink" x="0px" y="0px"
	 width="2834.646px" height="1417.322px" viewBox="0 0 2834.646 1417.322" enable-background="new 0 0 2834.646 1417.322"
	 xml:space="preserve">
<g id="profiles">
	<polyline fill="none" stroke="#0000FF" stroke-width="1" stroke-miterlimit="10" points="45.279,320.354 45.279,294.211 
		45.279,283.711 45.279,201.92 45.279,191.613 45.279,26.62 133.567,26.62 211.957,26.62 211.957,85.479 211.957,137.736 
		259.045,137.736 300.851,137.736 300.851,78.878 300.851,26.62 322.924,26.62 342.521,26.62 342.521,85.479 342.521,137.736 
		1343.271,137.736 2470.432,137.736 2470.432,78.878 2470.432,26.62 2492.504,26.62 2512.102,26.62 2512.102,85.479 
		2512.102,137.736 2559.188,137.736 2600.996,137.736 2600.996,78.878 2600.996,26.62 2689.285,26.62 2767.675,26.62 
		2767.675,226.561 2767.675,234.883 2767.675,299.418 2767.675,300.343 2767.675,301.569 2767.675,303.981 2767.675,305.288 
		2767.675,306.834 2767.675,310.516 2767.675,314.352 2767.675,321.626 2767.675,327.928 2767.675,330.315 2767.675,331.79 
		2767.675,336.266 2767.675,338.636 2767.675,339.13 2767.675,339.782 2767.427,339.824 2754.989,341.303 2748.489,342.054 
		2741.933,342.679 2735.314,343.164 2732.168,343.308 2725.507,343.646 2722.348,343.74 2715.667,343.93 2712.499,343.971 
		2705.827,344.016 2702.652,344.005 2696.014,343.905 2688.406,343.583 2686.19,343.665 2684.877,343.729 2672.613,343.812 
		2670.043,343.797 2656.84,342.85 2654.217,342.688 2641.027,340.894 2637.049,340.392 2617.393,336.261 2612.884,335.374 
		2590.938,329.005 2585.896,327.72 2561.779,319.138 2558.69,318.254 2544.093,312.556 2542.633,312.122 2535.751,309.366 
		2532.972,308.525 2519.929,303.246 2514.99,301.722 2491.826,292.356 2485.39,290.324 2455.1,278.196 2453.341,277.623 
		2445.022,274.28 2440.676,272.814 2420.101,264.421 2416.28,263.058 2398.135,255.469 2394.365,254.051 2376.388,246.369 
		2353.707,236.659 2348.537,234.492 2346.635,233.696 2338.814,230.64 2335.201,229.27 2326.637,226.055 2323.609,224.978 
		2316.416,222.474 2313.017,221.361 2304.936,218.79 2300.579,217.549 2290.225,214.701 2285.404,213.612 2273.948,211.135 
		2270.344,210.541 2261.775,209.205 2256.41,208.699 2243.667,207.585 2235.401,207.721 2215.759,208.123 2211.739,208.597 
		2202.184,209.74 2198.13,210.5 2188.474,212.306 2184.822,213.24 2176.115,215.459 2172.518,216.629 2163.934,219.41 
		2160.432,220.811 2152.063,224.149 2148.69,225.775 2140.625,229.662 2136.812,231.882 2127.688,237.207 2124.106,239.731 
		2115.541,245.799 2112.394,248.429 2104.881,254.759 2102.093,257.453 2095.455,263.932 2092.787,266.852 2086.462,273.863 
		2083.555,277.443 2076.693,286.009 2073.889,289.859 2067.306,299.041 2062.014,307.5 2049.626,327.581 2045.021,336.614 
		2034.153,357.948 2031.936,362.978 2026.613,374.813 2023.866,381.324 2017.144,396.597 2014.65,401.864 2008.501,414.177 
		2006.45,417.62 2001.43,425.645 1999.037,428.726 1993.26,435.896 1990.459,438.553 1983.791,444.729 1980.587,446.905 
		1973.052,451.963 1969.502,453.604 1961.233,457.436 1957.462,458.504 1948.738,461.02 1944.896,461.495 1936.044,462.655 
		1932.286,462.533 1923.635,462.333 1921.219,461.925 1915.644,461.051 1913.356,460.397 1908.074,458.961 1905.217,457.703 
		1898.598,454.908 1895.467,452.809 1888.182,448.113 1885.427,445.427 1878.979,439.4 1876.29,435.74 1869.957,427.518 
		1867.668,423.369 1862.249,414.036 1858.566,405.616 1849.849,386.649 1847.541,381.312 1842.176,369.308 1840.979,366.801 
		1838.237,361.171 1835.691,356.52 1829.931,346.077 1824.164,338.135 1811.341,320.363 1803.141,312.312 1785.21,294.472 
		1776.911,288.15 1758.978,274.311 1749.748,268.636 1729.971,256.298 1726.597,254.518 1719.427,250.67 1712.972,247.65 
		1699.295,241.121 1696.249,239.854 1689.832,237.123 1679.117,233.323 1656.601,225.132 1646.165,222.222 1624.418,216.001 
		1613.905,213.803 1592.177,209.163 1580.343,207.682 1556.13,204.574 1544.687,204.016 1521.546,202.805 1511.823,202.824 
		1492.335,202.791 1469.551,203.613 1460.145,203.984 1431.96,206.204 1414.617,207.54 1381.765,211.766 1366.21,213.739 
		1337.209,219.226 1323.563,221.786 1296.888,228.98 1284.398,232.317 1271.306,237.006 1265.188,239.168 1253.365,244.4 
		1247.849,246.802 1229.188,258.088 1220.487,263.25 1205.136,277.184 1197.982,283.551 1185.359,299.61 1179.49,306.952 
		1170.704,320.447 1166.634,326.607 1155.365,345.706 1150.175,354.395 1139.333,374.177 1134.382,383.169 1124.898,401.636 
		1120.608,410.031 1114.087,423.29 1111.158,429.308 1102.756,446.376 1099.012,454.091 1091.503,468.271 1088.177,474.662 
		1081.145,486.366 1078.038,491.637 1069.38,503.734 1065.562,509.186 1053.678,521.695 1048.44,527.332 1042.66,531.672 
		1040.113,533.626 1034.3,536.775 1031.737,538.193 1026.809,539.876 1024.637,540.635 1019.712,541.401 1017.543,541.753 
		1012.738,541.618 1010.623,541.569 1005.814,540.609 1003.698,540.194 998.885,538.456 996.767,537.698 992.562,535.584 
		990.714,534.66 986.358,531.918 984.441,530.719 979.955,527.336 977.979,525.854 973.395,521.834 971.373,520.069 
		966.042,514.673 963.685,512.301 958.355,506.113 955.995,503.386 950.917,496.708 948.66,493.757 943.714,486.461 
		941.508,483.226 932.408,467.679 928.324,460.749 920.029,444.44 916.274,437.117 910.996,426.163 908.592,421.211 
		900.695,405.005 897.072,397.628 886.005,376.841 880.886,367.277 871.789,352.29 867.549,345.325 857.099,330.244 
		852.191,323.171 844.662,313.583 841.104,309.051 826.402,293.049 819.407,285.42 811.041,277.724 807.035,274.024 
		797.928,266.661 793.545,263.102 783.667,256.183 778.89,252.816 768.227,246.455 763.043,243.338 739.425,232.737 
		727.844,227.485 709.999,222.152 701.165,219.47 682.332,215.951 672.934,214.148 653.562,212.469 643.816,211.575 
		624.483,211.641 614.673,211.621 587.744,214.317 573.928,215.618 550.381,220.494 538.138,222.941 528.611,225.688 
		523.609,227.087 514.819,230.088 510.175,231.631 497.874,236.648 491.319,239.251 472.151,248.708 461.818,253.692 
		441.503,265.291 430.4,271.509 414.824,281.706 406.209,287.25 397.041,294.098 391.923,297.856 380.223,307.949 373.633,313.534 
		361.07,326.318 353.909,333.469 345.742,342.43 341.04,347.489 332.733,356.449 327.916,361.546 320.393,369.197 316,373.58 
		308.187,380.927 303.599,385.162 294.311,393.045 288.822,397.617 279.317,404.668 273.665,408.783 263.89,414.883 
		258.041,418.463 247.781,423.588 241.606,426.615 222.102,433.262 210.277,437.212 199.229,439.633 192.49,441.079 
		180.412,442.957 173.018,444.083 156.552,445.7 146.429,446.672 128.274,447.553 117.064,448.081 97.25,448.265 84.965,448.368 
		60.951,447.84 50.233,447.591 45.478,447.83 45.279,447.836 45.279,447.826 45.279,446.906 45.279,446.571 45.279,445.172 
		45.279,443.537 45.279,442.229 45.279,441.28 45.279,430.766 45.279,429.938 45.279,425.413 45.279,424.953 45.279,422.517 
		45.279,422.067 45.279,419.508 45.279,419.064 45.279,418.662 45.279,417.269 45.279,407.084 45.279,406.116 45.279,405.606 
		45.279,405.068 45.279,320.354 	"/>
	<polyline fill="none" stroke="#0000FF" stroke-width="1" stroke-miterlimit="10" points="40.649,791.146 40.649,763.051 
		40.649,751.765 40.649,663.858 40.649,652.781 40.649,475.452 135.54,475.452 207.327,475.452 207.327,538.711 207.327,586.57 
		257.935,586.57 296.221,586.57 296.221,523.31 296.221,475.452 319.943,475.452 337.891,475.452 337.891,538.711 337.891,586.57 
		1254.367,586.57 2465.801,586.57 2465.801,523.31 2465.801,475.452 2489.524,475.452 2507.471,475.452 2507.471,538.711 
		2507.471,586.57 2558.08,586.57 2596.366,586.57 2596.366,523.31 2596.366,475.452 2691.257,475.452 2763.043,475.452 
		2763.043,658.556 2763.043,666.177 2763.043,750.76 2763.043,751.483 2763.043,752.446 2763.043,755.717 2763.043,756.686 
		2763.043,757.832 2763.043,760.558 2763.043,766.215 2763.043,771.118 2763.043,775.364 2763.043,780.482 2763.043,783.642 
		2763.043,785.741 2763.043,789.248 2763.043,790.524 2763.043,790.797 2763.043,791.046 2762.378,791.248 2760,791.715 
		2759.402,791.857 2751.881,793.264 2751.511,793.35 2736.941,796.119 2736.228,796.286 2723.135,798.863 2722.499,799.018 
		2710.008,801.586 2709.41,801.739 2697.469,804.263 2696.911,804.415 2685.31,806.81 2684.776,806.955 2673.165,809.117 
		2672.631,809.247 2662.71,810.794 2662.248,810.885 2652.07,812.13 2651.591,812.201 2641.168,813.113 2640.67,813.163 
		2630.084,813.728 2629.575,813.754 2618.947,813.974 2618.436,813.979 2607.883,813.867 2607.38,813.852 2596.992,813.428 
		2596.508,813.395 2593.235,813.123 2586.624,812.732 2585.806,812.712 2576.131,811.936 2571.511,811.604 2555.933,809.42 
		2555.201,809.261 2539.962,805.974 2539.257,805.755 2516.857,799.018 2515.819,798.594 2491.065,788.964 2489.907,788.377 
		2463.156,776.038 2461.905,775.302 2445.968,767.36 2445.226,766.894 2437.757,763.11 2437.411,762.89 2423.278,755.74 
		2422.619,755.326 2397.455,742.937 2396.26,742.228 2363.067,726.708 2361.443,725.834 2352.276,721.658 2351.821,721.428 
		2329.055,711.139 2327.911,710.579 2307.713,701.524 2306.682,701.044 2286.531,692.13 2285.491,691.671 2283.85,690.995 
		2257.568,680.011 2254.013,678.616 2248.809,676.49 2248.289,676.29 2247.844,676.129 2236.171,672.08 2235.797,671.956 
		2225.984,668.867 2225.565,668.741 2214.544,665.626 2214.009,665.489 2199.898,662.106 2199.31,661.99 2183.726,659.126 
		2183.287,659.065 2171.642,657.573 2170.992,657.524 2153.671,656.389 2152.67,656.416 2125.896,657.277 2125.41,657.336 
		2112.317,658.94 2111.825,659.032 2098.539,661.494 2098.096,661.606 2086.06,664.612 2085.622,664.752 2073.699,668.532 
		2073.271,668.701 2061.598,673.275 2061.184,673.474 2049.887,678.851 2049.418,679.123 2036.598,686.569 2036.156,686.882 
		2024.106,695.44 2023.719,695.77 2013.175,704.732 2012.832,705.069 2003.569,714.244 2003.245,714.61 1994.494,724.507 
		1994.142,724.953 1984.754,736.975 1984.416,737.454 1975.506,750.251 1974.869,751.302 1958.184,779.025 1957.605,780.154 
		1942.574,809.328 1942.276,809.966 1934.526,826.042 1934.133,826.875 1923.867,847.481 1923.495,848.165 1913.896,864.646 
		1913.588,865.098 1905.883,875.769 1905.528,876.18 1896.922,885.668 1896.514,886.028 1886.923,894.171 1886.462,894.471 
		1875.956,901.128 1875.447,901.36 1864.209,906.407 1863.665,906.563 1852.007,909.909 1851.447,909.984 1839.719,911.585 
		1839.158,911.576 1827.707,911.438 1827.337,911.385 1819.929,910.347 1819.569,910.255 1812.501,908.503 1812.04,908.319 
		1803.097,904.862 1802.57,904.542 1792.578,898.681 1792.087,898.249 1783.066,890.681 1782.552,890.059 1773.482,879.685 
		1773.005,878.925 1765.076,867.095 1764.241,865.42 1751.394,841.167 1750.812,839.936 1743.165,824.494 1742.844,823.86 
		1739.065,816.604 1738.371,815.365 1730.659,801.867 1729,799.549 1712.552,776.568 1709.872,773.852 1687.63,751.074 
		1684.492,748.605 1662.583,731.213 1658.646,728.708 1634.649,713.272 1633.062,712.399 1624.433,707.591 1621.275,706.04 
		1604.844,697.838 1603.269,697.145 1595.601,693.708 1589.854,691.54 1562.96,681.178 1556.867,679.375 1531.046,671.584 
		1524.456,670.14 1498.826,664.443 1491.03,663.407 1462.918,659.595 1455.156,659.147 1428.879,657.534 1422.189,657.485 
		1400.434,657.231 1385.355,657.606 1368.745,658.115 1327.016,660.982 1325.366,661.088 1280.18,666.482 1278.982,666.618 
		1239.172,673.795 1238.165,673.972 1201.408,683.364 1200.506,683.586 1182.297,689.637 1181.853,689.778 1165.223,696.479 
		1164.819,696.633 1138.045,711.125 1137.39,711.457 1114.753,729.831 1114.187,730.261 1095.242,752.095 1094.752,752.627 
		1081.521,771.201 1081.169,771.667 1064.331,798.129 1063.87,798.821 1047.984,826.73 1047.532,827.5 1034.01,854.07 
		1033.611,854.847 1024.541,874.009 1024.269,874.591 1012.873,899.079 1012.517,899.858 1002.54,920.104 1002.217,920.775 
		992.96,937.566 992.651,938.146 981.291,955.644 980.896,956.277 965.299,974.465 964.727,975.161 957.129,981.474 
		956.844,981.722 949.207,986.315 948.914,986.5 942.451,988.999 942.198,989.102 935.762,990.334 935.505,990.387 929.256,990.4 
		929.003,990.406 922.786,989.334 922.531,989.295 916.35,987.232 916.094,987.15 910.721,984.611 910.495,984.509 904.928,981.206 
		904.689,981.07 898.956,976.988 898.706,976.817 892.846,971.96 892.585,971.752 885.761,965.232 885.445,964.945 878.609,957.471 
		878.284,957.131 871.749,949.064 871.427,948.686 865.029,939.873 864.702,939.445 852.85,920.683 852.199,919.708 841.29,900.025 
		840.643,898.927 833.671,885.696 833.234,884.918 822.835,865.346 822.138,864.116 807.734,839.024 806.688,837.301 
		795.032,819.219 794.136,817.892 780.946,799.732 779.874,798.312 770.481,786.777 769.689,785.835 751.596,766.623 
		749.981,764.951 739.787,755.705 738.849,754.87 727.824,746.021 726.779,745.193 714.895,736.865 713.735,736.06 700.975,728.381 
		699.693,727.611 671.659,714.72 668.682,713.344 647.624,706.719 645.292,705.971 623.158,701.417 620.605,700.869 597.908,698.41 
		595.185,698.085 572.573,697.604 569.749,697.507 538.271,699.741 534.113,699.967 506.49,704.662 502.62,705.236 491.375,707.963 
		489.743,708.315 479.331,711.33 477.778,711.732 463.165,716.827 460.903,717.535 438.169,727.279 434.466,728.722 410.51,740.829 
		406.405,742.737 388.063,753.453 384.787,755.223 373.946,762.438 371.952,763.665 358.031,774.303 355.379,776.169 
		340.289,789.642 337.283,792.094 327.424,801.537 325.397,803.306 315.391,812.738 313.284,814.548 304.259,822.591 
		302.322,824.166 292.983,831.873 290.943,833.41 279.88,841.649 277.416,843.324 266.123,850.655 263.556,852.171 251.975,858.467 
		249.295,859.787 237.195,865.027 234.347,866.14 211.567,872.815 206.08,874.248 193.291,876.618 190.171,877.123 176.279,878.913 
		172.856,879.287 154.04,880.752 149.351,881.044 128.728,881.728 123.532,881.834 101.139,881.781 95.435,881.708 79.13,881.18 
		65.091,880.489 61.429,880.126 55.289,880.076 46.134,880.077 43.819,879.913 40.649,879.937 40.649,879.271 40.649,879.077 
		40.649,878.852 40.649,876.698 40.649,876.395 40.649,873.042 40.649,872.777 40.649,867.615 40.649,867.411 40.649,864.642 
		40.649,864.419 40.649,861.519 40.649,861.278 40.649,861.061 40.649,860.306 40.649,848.925 40.649,848.28 40.649,847.941 
		40.649,847.583 40.649,791.146 	"/>
	<polyline fill="none" stroke="#0000FF" stroke-width="1" stroke-miterlimit="10" points="81.394,1117.939 81.394,1142.126 
		81.394,1151.843 81.394,1227.517 81.394,1237.054 81.394,1389.712 163.083,1389.712 248.072,1389.712 248.072,1335.253 
		248.072,1278.595 291.639,1278.595 336.966,1278.595 336.966,1333.054 336.966,1389.712 357.388,1389.712 378.636,1389.712 
		378.636,1335.253 378.636,1278.595 1463.659,1278.595 2506.547,1278.595 2506.547,1333.054 2506.547,1389.712 2526.969,1389.712 
		2548.217,1389.712 2548.217,1335.253 2548.217,1278.595 2591.783,1278.595 2637.111,1278.595 2637.111,1333.054 2637.111,1389.712 
		2718.801,1389.712 2803.789,1389.712 2803.789,1172.935 2803.789,1163.91 2803.789,1119.422 2803.789,1118.3 2803.789,1116.806 
		2803.789,1115.255 2803.789,1113.608 2803.789,1111.661 2803.789,1107.027 2803.789,1105.01 2803.789,1095.362 2803.789,1088.895 
		2803.789,1088.534 2796.088,1088.155 2786.874,1088.204 2781.511,1088.462 2769.118,1089.227 2766.219,1089.598 2748.403,1091.849 
		2741.801,1092.951 2721.566,1096.938 2714.086,1098.583 2691.414,1104.362 2686.787,1105.511 2672.859,1109.495 2670.658,1110.062 
		2664.055,1112.021 2659.856,1113.126 2647.297,1116.928 2639.801,1118.942 2617.456,1125.839 2607.642,1128.557 2578.459,1137.774 
		2575.77,1138.548 2567.77,1141.151 2561.125,1143.144 2541.356,1149.812 2535.518,1151.685 2518.123,1157.888 2512.369,1159.854 
		2495.188,1166.311 2473.009,1174.903 2465.43,1177.462 2462.247,1178.796 2455.539,1181.366 2451.336,1182.862 2442.968,1185.966 
		2439.478,1187.157 2432.489,1189.61 2428.593,1190.853 2420.766,1193.396 2415.801,1194.8 2405.792,1197.649 2400.319,1198.901 
		2389.26,1201.411 2385.181,1202.112 2376.915,1203.487 2370.864,1204.118 2358.582,1205.3 2349.294,1205.251 2330.403,1204.97 
		2325.902,1204.485 2316.738,1203.413 2312.204,1202.604 2302.965,1200.886 2298.885,1199.872 2290.574,1197.757 2286.562,1196.476 
		2278.385,1193.827 2274.482,1192.286 2266.526,1189.12 2262.773,1187.327 2255.119,1183.659 2250.878,1181.212 2242.23,1176.212 
		2238.249,1173.433 2230.133,1167.758 2226.635,1164.866 2219.502,1158.958 2216.403,1156.001 2210.082,1149.952 2207.115,1146.748 
		2201.063,1140.189 2197.828,1136.266 2191.224,1128.227 2188.102,1124.008 2181.729,1115.358 2175.845,1106.095 2163.817,1087.083 
		2158.717,1077.204 2148.289,1056.909 2145.85,1051.416 2140.872,1040.123 2137.869,1033.021 2131.744,1018.412 2129.031,1012.675 
		2123.498,1000.868 2121.265,997.127 2116.707,989.419 2114.097,986.082 2108.762,979.193 2105.697,976.327 2099.43,970.4 
		2095.914,968.07 2088.719,963.236 2084.813,961.497 2076.82,957.873 2072.668,956.771 2064.166,954.446 2059.936,954.002 
		2051.271,953.021 2047.135,953.239 2038.665,953.609 2036.005,954.117 2030.556,955.103 2028.041,955.883 2022.893,957.427 
		2019.755,958.894 2013.332,961.823 2009.9,964.225 2002.878,969.06 1999.867,972.097 1993.71,978.24 1990.78,982.341 
		1984.796,990.658 1982.31,995.278 1977.239,1004.665 1973.235,1013.972 1965.098,1032.91 1962.586,1038.761 1957.487,1050.675 
		1956.185,1053.411 1953.541,1058.982 1950.764,1064.047 1945.135,1074.354 1938.847,1082.959 1926.097,1100.458 1917.214,1109.114 
		1899.195,1126.71 1890.293,1133.436 1872.224,1147.115 1862.416,1153.089 1842.502,1165.247 1838.946,1167.101 1831.723,1170.878 
		1824.938,1174.011 1811.163,1180.39 1807.974,1181.694 1801.509,1184.354 1790.304,1188.253 1767.626,1196.183 1756.76,1199.147 
		1734.846,1205.165 1723.949,1207.39 1702.035,1211.899 1689.848,1213.382 1665.329,1216.39 1653.629,1216.937 1630.034,1218.044 
		1620.141,1218.015 1600.156,1217.948 1575.719,1216.981 1567.214,1216.634 1562.583,1216.261 1555.375,1215.677 1520.072,1212.841 
		1507.477,1211.218 1470.509,1206.386 1459.416,1204.29 1426.844,1198.065 1416.666,1195.315 1386.786,1187.165 1381.801,1185.368 
		1367.182,1180.05 1362.689,1178.042 1349.533,1172.104 1342.468,1167.782 1321.821,1155.005 1316.028,1149.71 1299.165,1134.073 
		1294.412,1128.03 1280.614,1110.185 1277.312,1105.132 1267.722,1090.212 1263.492,1083.096 1251.18,1062.056 1247.101,1054.739 
		1235.204,1033.093 1231.616,1026.313 1221.137,1006.249 1218.651,1001.394 1211.391,987.021 1208.175,980.77 1198.757,962.255 
		1195.879,957.062 1187.427,941.675 1184.735,937.401 1176.812,924.728 1173.51,920.323 1163.762,907.264 1159.233,902.709 
		1145.868,889.228 1143.662,887.639 1137.162,882.96 1134.938,881.798 1128.396,878.402 1126.507,877.774 1120.955,875.961 
		1119.062,875.667 1113.505,874.854 1111.651,874.89 1106.221,875.06 1104.359,875.403 1098.912,876.486 1097.043,877.119 
		1091.573,879.066 1089.937,879.841 1085.15,882.205 1083.448,883.21 1078.481,886.269 1076.726,887.511 1071.599,891.28 
		1069.8,892.757 1064.554,897.238 1062.455,899.226 1056.34,905.237 1054.235,907.521 1048.11,914.417 1046.097,916.887 
		1040.244,924.334 1038.273,927.036 1032.557,935.175 1028.901,940.945 1018.336,958.307 1014.965,964.368 1005.271,982.604 
		1003.107,986.679 996.911,998.94 993.653,1004.969 984.348,1023.128 979.765,1030.868 966.681,1054.201 962.917,1059.787 
		952.147,1076.649 947.837,1082.278 935.454,1099.286 932.354,1102.868 923.426,1113.706 917.391,1119.688 899.947,1137.813 
		896.521,1140.688 886.585,1149.42 882.858,1152.167 872.038,1160.524 867.997,1163.1 856.252,1170.954 851.893,1173.315 
		839.202,1180.532 829.553,1184.427 801.39,1196.417 794.102,1198.333 772.774,1204.304 765.08,1205.509 742.519,1209.358 
		734.597,1209.843 711.333,1211.524 703.412,1211.321 680.125,1210.942 669.045,1209.614 636.469,1205.964 626.695,1203.759 
		598.036,1197.501 594.048,1196.278 582.395,1192.794 578.689,1191.464 567.903,1187.669 562.682,1185.458 547.53,1179.14 
		539.359,1175.015 515.662,1163.157 507.021,1158.163 481.823,1143.674 475.195,1139.321 455.81,1126.591 451.891,1123.678 
		440.438,1115.126 435.394,1110.842 420.722,1098.226 415.232,1092.814 399.399,1076.812 395.795,1073.026 385.468,1061.793 
		381.783,1058.016 371.269,1046.771 367.923,1043.552 358.391,1033.937 354.909,1030.85 345.003,1021.606 340.855,1018.302 
		329.069,1008.373 324.815,1005.427 312.741,996.536 308.364,994.002 295.935,986.308 291.35,984.194 278.297,977.729 
		269.636,975.041 244.802,966.682 239.935,965.734 225.856,962.711 220.566,962.005 205.168,959.686 197.994,959.126 
		176.987,957.171 169.116,956.944 145.935,955.952 137.38,956.04 112.057,955.966 88.731,956.614 81.394,956.942 81.394,959.275 
		81.394,959.738 81.394,961.334 81.394,979.007 81.394,980.398 81.394,984.29 81.394,985.003 81.394,987.107 81.394,987.783 
		81.394,990.003 81.394,990.65 81.394,991.236 81.394,993.268 81.394,1002.255 81.394,1003.546 81.394,1004.228 81.394,1004.944 
		81.394,1117.939 	"/>
</g>
<g id="follow_x5F_paths">
	<polyline fill="none" stroke="#DB2526" stroke-width="1" stroke-miterlimit="10" points="2686.215,225.717 2678.606,225.587 
		2676.39,225.621 2675.077,225.646 2662.813,225.679 2660.243,225.674 2647.039,225.294 2644.416,225.229 2631.228,224.513 
		2627.249,224.311 2607.593,222.659 2603.083,222.304 2581.139,219.757 2576.097,219.243 2551.979,215.81 2548.892,215.457 
		2534.294,213.178 2532.831,213.003 2525.951,211.901 2523.172,211.563 2510.129,209.453 2505.19,208.843 2482.026,205.098 
		2475.591,204.284 2445.301,199.433 2443.539,199.204 2435.223,197.867 2430.875,197.28 2410.301,193.923 2406.48,193.378 
		2388.336,190.342 2384.565,189.775 2366.586,186.702 2343.906,182.819 2338.736,181.952 2336.835,181.633 2329.014,180.411 
		2325.401,179.862 2316.837,178.577 2313.809,178.146 2306.615,177.144 2303.217,176.699 2295.135,175.67 2290.779,175.174 
		2280.425,174.035 2275.604,173.6 2264.148,172.609 2260.543,172.372 2251.976,171.837 2246.61,171.634 2233.867,171.188 
		2225.602,171.243 2205.958,171.403 2201.94,171.594 2192.385,172.051 2188.33,172.354 2178.673,173.077 2175.022,173.451 
		2166.314,174.338 2162.719,174.807 2154.133,175.918 2150.631,176.479 2142.263,177.814 2138.89,178.465 2130.823,180.02 
		2127.012,180.908 2117.888,183.037 2114.306,184.047 2105.741,186.475 2102.593,187.526 2095.08,190.058 2092.293,191.135 
		2085.654,193.728 2082.987,194.896 2076.662,197.7 2073.755,199.133 2066.893,202.559 2064.089,204.098 2057.506,207.771 
		2052.214,211.154 2039.826,219.187 2035.219,222.8 2024.352,231.334 2022.137,233.346 2016.813,238.08 2014.065,240.685 
		2007.345,246.794 2004.85,248.9 1998.701,253.826 1996.649,255.203 1991.63,258.413 1989.237,259.646 1983.459,262.513 
		1980.659,263.576 1973.991,266.046 1970.787,266.917 1963.251,268.94 1959.702,269.597 1951.433,271.129 1947.662,271.557 
		1938.938,272.562 1935.097,272.753 1926.244,273.216 1922.486,273.168 1913.836,273.088 1911.418,272.925 1905.844,272.575 
		1903.557,272.313 1898.274,271.739 1895.416,271.236 1888.8,270.118 1885.666,269.277 1878.381,267.4 1875.626,266.325 
		1869.18,263.915 1866.489,262.45 1860.157,259.162 1857.869,257.502 1852.449,253.77 1848.766,250.4 1840.049,242.813 
		1837.741,240.68 1832.374,235.878 1831.177,234.876 1828.438,232.623 1825.892,230.762 1820.131,226.586 1814.364,223.408 
		1801.541,216.299 1793.341,213.08 1775.41,205.942 1767.111,203.415 1749.177,197.878 1739.948,195.608 1720.171,190.674 
		1716.797,189.962 1709.628,188.423 1703.171,187.215 1689.495,184.603 1686.449,184.096 1680.031,183.003 1669.317,181.483 
		1646.801,178.208 1636.365,177.043 1614.619,174.555 1604.105,173.675 1582.377,171.819 1570.542,171.228 1546.33,169.984 
		1534.885,169.761 1511.746,169.277 1502.022,169.284 1482.534,169.271 1459.75,169.6 1450.345,169.749 1422.161,170.636 
		1404.816,171.171 1371.965,172.861 1356.41,173.65 1327.409,175.845 1313.764,176.869 1287.088,179.747 1274.599,181.082 
		1261.505,182.957 1255.389,183.822 1243.565,185.915 1238.049,186.876 1219.389,191.39 1210.687,193.454 1195.336,199.027 
		1188.183,201.575 1175.559,207.998 1169.69,210.936 1160.905,216.334 1156.835,218.797 1145.563,226.437 1140.375,229.912 
		1129.532,237.825 1124.581,241.422 1115.099,248.81 1110.809,252.167 1104.287,257.471 1101.358,259.878 1092.956,266.705 
		1089.212,269.791 1081.703,275.463 1078.376,278.02 1071.344,282.701 1068.238,284.81 1059.58,289.648 1055.762,291.829 
		1043.877,296.833 1038.641,299.087 1032.859,300.824 1030.313,301.605 1024.499,302.865 1021.938,303.432 1017.01,304.104 
		1014.837,304.41 1009.912,304.715 1007.743,304.855 1002.938,304.802 1000.823,304.783 996.015,304.398 993.898,304.232 
		989.083,303.537 986.967,303.234 982.762,302.388 980.914,302.02 976.559,300.922 974.642,300.442 970.155,299.09 968.178,298.497 
		963.596,296.888 961.573,296.184 956.242,294.024 953.885,293.074 948.556,290.6 946.195,289.509 941.118,286.838 938.859,285.657 
		933.912,282.738 931.707,281.444 922.608,275.226 918.523,272.454 910.229,265.932 906.475,263.002 901.195,258.62 898.791,256.64 
		890.895,250.157 887.273,247.206 876.204,238.892 871.085,235.065 861.987,229.07 857.749,226.284 847.298,220.252 
		842.391,217.423 834.861,213.587 831.305,211.774 816.603,205.374 809.607,202.323 801.24,199.244 797.235,197.764 
		788.128,194.819 783.746,193.395 773.867,190.628 769.09,189.281 758.428,186.736 753.243,185.49 729.625,181.25 718.043,179.149 
		700.199,177.016 691.366,175.943 672.532,174.535 663.134,173.812 643.762,173.142 634.017,172.785 614.684,172.811 
		604.873,172.803 577.943,173.882 564.128,174.401 540.581,176.352 528.337,177.331 518.811,178.43 513.81,178.99 505.019,180.191 
		500.373,180.808 488.074,182.812 481.519,183.854 462.353,187.639 452.019,189.632 431.703,194.271 420.601,196.758 
		405.025,200.837 396.41,203.055 387.24,205.793 382.123,207.297 370.423,211.334 363.833,213.568 351.27,218.683 344.109,221.542 
		335.942,225.126 331.24,227.15 322.934,230.734 318.116,232.773 310.593,235.834 306.2,237.587 298.386,240.526 293.799,242.22 
		284.51,245.372 279.022,247.201 269.518,250.021 263.864,251.668 254.09,254.108 248.24,255.54 237.981,257.59 231.807,258.801 
		212.302,261.46 200.478,263.039 189.429,264.007 182.689,264.586 170.611,265.338 163.217,265.788 146.751,266.435 
		136.629,266.823 	"/>
	<polyline fill="none" stroke="#DB2526" stroke-width="1" stroke-miterlimit="10" points="2681.625,684.738 2681.093,684.795 
		2669.48,685.661 2668.946,685.713 2659.025,686.332 2658.563,686.368 2648.385,686.867 2647.905,686.896 2637.482,687.26 
		2636.985,687.28 2626.398,687.506 2625.89,687.517 2615.263,687.604 2614.752,687.605 2604.197,687.562 2603.695,687.555 
		2593.308,687.385 2592.822,687.372 2589.551,687.264 2582.939,687.108 2582.121,687.1 2572.446,686.789 2567.827,686.656 
		2552.248,685.782 2551.517,685.719 2536.277,684.403 2535.572,684.316 2513.173,681.622 2512.135,681.452 2487.381,677.6 
		2486.224,677.365 2459.472,672.429 2458.221,672.135 2442.282,668.958 2441.542,668.772 2434.072,667.259 2433.726,667.171 
		2419.593,664.311 2418.934,664.145 2393.771,659.189 2392.575,658.905 2359.384,652.697 2357.76,652.348 2348.593,650.677 
		2348.137,650.586 2325.37,646.469 2324.226,646.247 2304.028,642.624 2302.998,642.432 2282.848,638.866 2281.806,638.682 
		2280.165,638.412 2253.885,634.02 2250.328,633.46 2245.124,632.61 2244.604,632.53 2244.158,632.466 2232.486,630.846 
		2232.112,630.796 2222.301,629.562 2221.881,629.511 2210.859,628.265 2210.323,628.21 2196.216,626.857 2195.625,626.811 
		2180.041,625.665 2179.602,625.64 2167.957,625.044 2167.308,625.024 2149.986,624.57 2148.985,624.581 2122.21,624.926 
		2121.726,624.949 2108.633,625.591 2108.141,625.627 2094.854,626.612 2094.411,626.657 2082.376,627.859 2081.938,627.916 
		2070.014,629.427 2069.587,629.495 2057.913,631.324 2057.499,631.403 2046.202,633.554 2045.733,633.663 2032.913,636.642 
		2032.472,636.768 2020.423,640.19 2020.035,640.322 2009.489,643.907 2009.147,644.042 1999.885,647.712 1999.56,647.858 
		1990.81,651.816 1990.458,651.995 1981.069,656.804 1980.731,656.996 1971.821,662.115 1971.185,662.535 1954.499,673.624 
		1953.921,674.076 1938.89,685.746 1938.593,686 1930.843,692.431 1930.448,692.764 1920.182,701.007 1919.81,701.28 
		1910.212,707.873 1909.903,708.053 1902.197,712.322 1901.844,712.486 1893.237,716.282 1892.83,716.425 1883.238,719.684 
		1882.777,719.803 1872.271,722.465 1871.763,722.558 1860.524,724.578 1859.98,724.64 1848.322,725.978 1847.763,726.007 
		1836.033,726.648 1835.474,726.645 1824.022,726.589 1823.652,726.568 1816.244,726.153 1815.885,726.116 1808.816,725.416 
		1808.355,725.343 1799.412,723.959 1798.885,723.831 1788.894,721.486 1788.402,721.314 1779.381,718.287 1778.867,718.038 
		1769.798,713.888 1769.32,713.585 1761.392,708.853 1760.557,708.182 1747.71,698.481 1747.127,697.988 1739.48,691.812 
		1739.159,691.558 1735.381,688.656 1734.687,688.161 1726.974,682.761 1725.314,681.834 1708.867,672.642 1706.188,671.554 
		1683.945,662.444 1680.808,661.457 1658.898,654.5 1654.962,653.497 1630.965,647.323 1629.378,646.974 1620.748,645.051 
		1617.591,644.43 1601.158,641.149 1599.584,640.873 1591.916,639.498 1586.17,638.63 1559.276,634.485 1553.182,633.765 
		1527.361,630.648 1520.771,630.071 1495.142,627.792 1487.346,627.378 1459.234,625.852 1451.472,625.673 1425.194,625.028 
		1418.505,625.008 1396.749,624.906 1381.671,625.057 1365.06,625.261 1323.331,626.407 1321.682,626.449 1276.495,628.607 
		1275.298,628.662 1235.487,631.533 1234.48,631.603 1197.724,635.359 1196.821,635.449 1178.611,637.87 1178.168,637.926 
		1161.539,640.605 1161.134,640.667 1134.359,646.464 1133.704,646.597 1111.069,653.947 1110.501,654.119 1091.558,662.853 
		1091.067,663.065 1077.837,670.495 1077.485,670.681 1060.646,681.266 1060.186,681.542 1044.3,692.707 1043.847,693.015 
		1030.325,703.643 1029.926,703.954 1020.857,711.617 1020.584,711.852 1009.188,721.645 1008.832,721.957 998.854,730.056 
		998.532,730.324 989.275,737.041 988.967,737.272 977.606,744.271 977.212,744.525 961.614,751.801 961.042,752.079 
		953.445,754.604 953.159,754.703 945.522,756.541 945.229,756.614 938.767,757.614 938.514,757.655 932.076,758.148 
		931.819,758.169 925.571,758.175 925.318,758.177 919.102,757.748 918.846,757.733 912.665,756.907 912.408,756.875 
		907.036,755.859 906.811,755.818 901.243,754.496 901.005,754.442 895.271,752.81 895.021,752.741 889.162,750.799 
		888.899,750.715 882.076,748.107 881.761,747.992 874.925,745.002 874.599,744.867 868.064,741.639 867.741,741.488 
		861.345,737.963 861.018,737.792 849.165,730.287 848.515,729.897 837.605,722.024 836.957,721.586 829.986,716.292 
		829.55,715.981 819.15,708.153 818.454,707.661 804.05,697.624 803.004,696.935 791.349,689.702 790.451,689.171 777.262,681.907 
		776.189,681.339 766.797,676.726 766.005,676.349 747.911,668.664 746.297,667.994 736.103,664.296 735.164,663.962 
		724.141,660.422 723.096,660.092 711.209,656.761 710.051,656.438 697.291,653.367 696.009,653.059 667.975,647.902 
		664.997,647.352 643.939,644.702 641.607,644.403 619.474,642.581 616.921,642.362 594.223,641.379 591.5,641.249 568.889,641.056 
		566.064,641.018 534.585,641.911 530.429,642.001 502.806,643.878 498.935,644.108 487.69,645.199 486.059,645.34 475.646,646.547 
		474.094,646.708 459.481,648.744 457.22,649.028 434.485,652.927 430.781,653.503 406.824,658.346 402.721,659.109 
		384.379,663.396 381.103,664.104 370.262,666.989 368.268,667.48 354.347,671.736 351.694,672.481 336.604,677.871 
		333.599,678.853 323.739,682.629 321.713,683.337 311.707,687.11 309.601,687.833 300.574,691.051 298.638,691.681 
		289.299,694.764 287.26,695.378 276.195,698.675 273.731,699.344 262.438,702.277 259.871,702.883 248.291,705.4 245.61,705.929 
		233.512,708.025 230.662,708.471 207.883,711.141 202.395,711.713 189.606,712.662 186.486,712.863 172.594,713.579 
		169.172,713.729 150.355,714.315 145.667,714.432 	"/>
	<polyline fill="none" stroke="#DB2526" stroke-width="1" stroke-miterlimit="10" points="2717.883,1198.604 2710.401,1199.263 
		2687.729,1201.575 2683.102,1202.034 2669.176,1203.628 2666.974,1203.854 2660.37,1204.638 2656.172,1205.079 2643.612,1206.601 
		2636.117,1207.407 2613.771,1210.165 2603.958,1211.251 2574.774,1214.938 2572.085,1215.249 2564.085,1216.29 2557.44,1217.087 
		2537.672,1219.755 2531.833,1220.503 2514.438,1222.985 2508.685,1223.771 2491.504,1226.354 2469.323,1229.79 2461.745,1230.815 
		2458.562,1231.347 2451.854,1232.376 2447.652,1232.974 2439.282,1234.216 2435.793,1234.692 2428.805,1235.673 2424.909,1236.171 
		2417.082,1237.188 2412.115,1237.749 2402.106,1238.89 2396.635,1239.39 2385.575,1240.394 2381.496,1240.675 2373.23,1241.224 
		2367.18,1241.478 2354.897,1241.948 2345.61,1241.929 2326.719,1241.817 2322.219,1241.624 2313.054,1241.194 2308.52,1240.87 
		2299.28,1240.185 2295.201,1239.778 2286.89,1238.933 2282.878,1238.421 2274.699,1237.36 2270.799,1236.745 2262.843,1235.478 
		2259.089,1234.761 2251.434,1233.294 2247.193,1232.313 2238.546,1230.313 2234.564,1229.202 2226.448,1226.933 2222.951,1225.776 
		2215.818,1223.413 2212.719,1222.229 2206.397,1219.81 2203.431,1218.528 2197.379,1215.905 2194.144,1214.335 2187.539,1211.12 
		2184.418,1209.433 2178.044,1205.974 2172.16,1202.267 2160.133,1194.663 2155.031,1190.712 2144.604,1182.593 2142.166,1180.396 
		2137.188,1175.878 2134.185,1173.038 2128.06,1167.194 2125.347,1164.899 2119.813,1160.177 2117.58,1158.681 2113.022,1155.598 
		2110.412,1154.263 2105.077,1151.507 2102.013,1150.36 2095.745,1147.99 2092.229,1147.058 2085.033,1145.124 2081.129,1144.429 
		2073.135,1142.979 2068.983,1142.538 2060.481,1141.608 2056.252,1141.431 2047.587,1141.038 2043.451,1141.126 2034.98,1141.273 
		2032.32,1141.477 2026.871,1141.871 2024.356,1142.183 2019.208,1142.8 2016.07,1143.387 2009.647,1144.558 2006.217,1145.519 
		1999.193,1147.453 1996.182,1148.667 1990.025,1151.126 1987.096,1152.766 1981.111,1156.093 1978.625,1157.94 1973.555,1161.696 
		1969.551,1165.419 1961.414,1172.993 1958.901,1175.333 1953.803,1180.099 1952.5,1181.194 1949.856,1183.423 1947.079,1185.448 
		1941.45,1189.571 1935.162,1193.013 1922.412,1200.013 1913.529,1203.476 1895.511,1210.513 1886.608,1213.204 1868.539,1218.675 
		1858.731,1221.065 1838.817,1225.929 1835.262,1226.669 1828.038,1228.181 1821.252,1229.433 1807.479,1231.985 1804.29,1232.507 
		1797.823,1233.571 1786.619,1235.13 1763.941,1238.302 1753.075,1239.487 1731.161,1241.896 1720.265,1242.784 1698.35,1244.589 
		1686.163,1245.183 1661.645,1246.384 1649.944,1246.604 1626.35,1247.046 1616.456,1247.036 1596.472,1247.009 1572.034,1246.622 
		1563.529,1246.483 1558.898,1246.333 1551.69,1246.101 1516.388,1244.966 1503.792,1244.315 1466.823,1242.384 1455.731,1241.546 
		1423.159,1239.056 1412.981,1237.956 1383.102,1234.694 1378.115,1233.976 1363.498,1231.849 1359.005,1231.048 1345.849,1228.671 
		1338.782,1226.942 1318.137,1221.831 1312.344,1219.714 1295.48,1213.458 1290.726,1211.042 1276.93,1203.903 1273.628,1201.882 
		1264.036,1195.915 1259.807,1193.067 1247.495,1184.651 1243.416,1181.726 1231.521,1173.065 1227.932,1170.354 1217.452,1162.329 
		1214.969,1160.388 1207.706,1154.638 1204.49,1152.138 1195.071,1144.731 1192.194,1142.655 1183.741,1136.5 1181.051,1134.79 
		1173.128,1129.72 1169.824,1127.958 1160.076,1122.735 1155.549,1120.913 1142.183,1115.521 1139.978,1114.884 1133.478,1113.013 
		1131.253,1112.548 1124.712,1111.19 1122.822,1110.938 1117.271,1110.214 1115.377,1110.097 1109.819,1109.771 1107.969,1109.786 
		1102.536,1109.854 1100.677,1109.99 1095.227,1110.424 1093.358,1110.677 1087.889,1111.456 1086.252,1111.766 1081.466,1112.712 
		1079.765,1113.114 1074.797,1114.337 1073.041,1114.834 1067.914,1116.341 1066.115,1116.933 1060.87,1118.724 1058.771,1119.521 
		1052.655,1121.925 1050.551,1122.839 1044.427,1125.597 1042.412,1126.584 1036.559,1129.562 1034.589,1130.644 1028.872,1133.899 
		1025.217,1136.207 1014.651,1143.152 1011.279,1145.577 1001.587,1152.871 999.423,1154.501 993.227,1159.405 989.969,1161.817 
		980.663,1169.081 976.08,1172.177 962.996,1181.511 959.233,1183.745 948.464,1190.489 944.151,1192.741 931.77,1199.544 
		928.671,1200.978 919.742,1205.312 913.707,1207.704 896.262,1214.956 892.836,1216.104 882.901,1219.597 879.174,1220.696 
		868.354,1224.04 864.313,1225.069 852.567,1228.212 848.208,1229.155 835.518,1232.042 825.868,1233.601 797.704,1238.397 
		790.417,1239.163 769.09,1241.552 761.395,1242.034 738.834,1243.573 730.912,1243.767 707.648,1244.44 699.729,1244.358 
		676.441,1244.206 665.361,1243.675 632.784,1242.216 623.012,1241.333 594.353,1238.829 590.363,1238.341 578.709,1236.946 
		575.005,1236.415 564.218,1234.897 558.997,1234.013 543.846,1231.485 535.676,1229.835 511.978,1225.093 503.337,1223.095 
		478.139,1217.3 471.512,1215.558 452.125,1210.466 448.205,1209.3 436.753,1205.88 431.709,1204.165 417.036,1199.12 
		411.548,1196.956 395.715,1190.554 392.11,1189.04 381.783,1184.546 378.099,1183.036 367.584,1178.538 364.238,1177.249 
		354.706,1173.403 351.225,1172.169 341.318,1168.472 337.171,1167.149 325.385,1163.179 321.131,1162 309.057,1158.444 
		304.68,1157.431 292.251,1154.353 287.665,1153.507 274.611,1150.921 265.951,1149.846 241.117,1146.502 236.251,1146.123 
		222.172,1144.914 216.882,1144.632 201.483,1143.704 194.31,1143.48 173.302,1142.698 	"/>
</g>
<g id="pockets">
</g>
<g id="ids">
	<polyline fill="none" stroke="#622B8A" stroke-miterlimit="10" points="96.519,392.902 194.534,392.902 172.735,414.693 	"/>
	<polyline fill="none" stroke="#622B8A" stroke-miterlimit="10" points="118.309,301.726 118.309,356.15 194.534,334.415 	"/>
	<line fill="none" stroke="#622B8A" stroke-miterlimit="10" x1="96.519" y1="318.04" x2="140.049" y2="318.04"/>
	<polyline fill="none" stroke="#622B8A" stroke-miterlimit="10" points="119.131,762.187 217.146,762.187 195.35,783.977 	"/>
	<polyline fill="none" stroke="#622B8A" stroke-miterlimit="10" points="119.131,725.434 119.131,703.668 119.481,699.762 
		120.494,696.082 122.105,692.692 124.257,689.653 126.884,687.028 129.925,684.879 133.319,683.266 137.005,682.254 
		140.92,681.902 151.763,681.902 155.677,682.254 159.357,683.266 162.744,684.878 165.777,687.026 168.394,689.651 
		170.536,692.689 172.142,696.08 173.147,699.76 173.498,703.668 173.498,725.434 217.146,725.434 217.146,681.902 	"/>
	<polyline fill="none" stroke="#622B8A" stroke-miterlimit="10" points="159.876,1103.024 257.892,1103.024 236.094,1081.235 	"/>
	<polyline fill="none" stroke="#622B8A" stroke-miterlimit="10" points="159.879,1139.778 159.879,1161.544 160.229,1165.458 
		161.24,1169.143 162.852,1172.532 165,1175.569 167.622,1178.192 170.656,1180.339 174.042,1181.948 177.714,1182.96 
		181.613,1183.31 192.512,1183.31 196.408,1182.96 200.081,1181.948 203.466,1180.339 206.501,1178.192 209.123,1175.569 
		211.271,1172.532 212.883,1169.143 213.895,1165.458 214.247,1161.544 214.247,1150.646 214.247,1161.544 214.598,1165.458 
		215.611,1169.143 217.223,1172.532 219.375,1175.569 222.004,1178.192 225.045,1180.339 228.44,1181.948 232.127,1182.96 
		236.043,1183.31 239.939,1182.96 243.611,1181.948 246.996,1180.339 250.031,1178.192 252.654,1175.569 254.802,1172.532 
		256.412,1169.143 257.426,1165.458 257.777,1161.544 257.777,1139.778 	"/>
</g>
</svg>
