<?xml version="1.0" encoding="utf-8"?>
<!-- Generator: Adobe Illustrator 16.0.0, SVG Export Plug-In . SVG Version: 6.00 Build 0)  -->
<!DOCTYPE svg PUBLIC "-//W3C//DTD SVG 1.1//EN" "http://www.w3.org/Graphics/SVG/1.1/DTD/svg11.dtd">
<svg version="1.1" xmlns="http://www.w3.org/2000/svg" xmlns:xlink="http://www.w3.org/1999/xlink" x="0px" y="0px"
	 width="2834.646px" height="1417.321px" viewBox="0 0 2834.646 1417.321" enable-background="new 0 0 2834.646 1417.321"
	 xml:space="preserve">
<g id="profiles">
	<polyline fill="none" stroke="#0000FF" stroke-width="1" stroke-miterlimit="10" points="45.328,1133.628 45.328,1155.86 
		45.328,1164.792 45.328,1234.353 45.328,1243.118 45.328,1383.44 120.416,1383.44 212.006,1383.44 212.006,1333.382 
		212.006,1272.322 252.053,1272.322 300.899,1272.322 300.899,1322.38 300.899,1383.44 319.672,1383.44 342.57,1383.44 
		342.57,1333.382 342.57,1272.322 1511.868,1272.322 2470.481,1272.322 2470.481,1322.38 2470.481,1383.44 2489.254,1383.44 
		2512.15,1383.44 2512.15,1333.382 2512.15,1272.322 2552.197,1272.322 2601.045,1272.322 2601.045,1322.38 2601.045,1383.44 
		2676.133,1383.44 2767.723,1383.44 2767.723,1149.823 2767.723,1140.101 2767.723,1115.658 2767.723,1114.336 2767.723,1112.577 
		2767.723,1111.886 2767.723,1109.901 2767.723,1107.553 2767.723,1101.965 2767.723,1101.77 2767.723,1099.866 2764.811,1100.22 
		2760.781,1100.893 2756.228,1101.894 2743.936,1104.294 2725.04,1108.179 2724.24,1108.378 2715.221,1110.304 2714.844,1110.401 
		2697.603,1114.164 2696.895,1114.35 2666.03,1121.239 2664.805,1121.569 2624.48,1130.896 2622.927,1131.326 2611.929,1133.983 
		2611.507,1134.105 2584.499,1140.973 2583.475,1141.28 2559.959,1147.752 2559.07,1148.036 2536.104,1154.863 2535.233,1155.159 
		2531.547,1156.401 2510.572,1162.92 2504.444,1164.501 2494.562,1167.919 2493.25,1168.321 2480.075,1172.458 2479.316,1172.714 
		2468.575,1176.083 2467.95,1176.288 2456.101,1179.911 2455.405,1180.13 2440.474,1184.44 2439.587,1184.692 2423.324,1188.903 
		2422.349,1189.138 2410.333,1191.792 2409.606,1191.931 2391.929,1194.894 2390.848,1195.034 2363.958,1196.741 2362.292,1196.776 
		2349.324,1196.155 2348.516,1196.087 2335.468,1194.39 2334.649,1194.259 2322.923,1191.751 2322.183,1191.577 2310.64,1188.138 
		2309.911,1187.911 2298.673,1183.569 2297.96,1183.291 2287.134,1178.105 2286.443,1177.776 2274.188,1170.591 2273.405,1170.136 
		2261.886,1161.937 2261.147,1161.416 2251.016,1152.896 2250.363,1152.353 2241.386,1143.669 2240.804,1143.112 2232.222,1133.747 
		2231.664,1133.144 2222.321,1121.726 2221.712,1120.983 2212.726,1108.755 2212.136,1107.954 2195.244,1081.204 2194.121,1079.437 
		2179.466,1050.97 2178.484,1049.071 2171.435,1033.245 2170.962,1032.187 2162.224,1011.728 2161.639,1010.353 2153.722,993.835 
		2153.191,992.72 2146.692,981.96 2146.259,981.233 2138.696,971.646 2138.185,970.996 2129.351,962.787 2128.751,962.229 
		2118.653,955.587 2117.968,955.136 2106.789,950.225 2106.026,949.889 2094.163,946.839 2093.354,946.628 2081.282,945.504 
		2080.458,945.423 2068.664,946.231 2067.859,946.28 2060.272,947.88 2059.759,947.983 2052.585,950.382 2052.097,950.539 
		2043.152,954.968 2042.545,955.26 2032.765,962.42 2032.104,962.894 2023.516,971.86 2022.937,972.454 2014.551,984.47 
		2013.989,985.263 2006.823,998.716 2006.349,999.601 1994.656,1026.548 1993.899,1028.298 1986.479,1045.185 1986.009,1046.271 
		1982.151,1054.165 1981.907,1054.669 1973.691,1069.292 1973.179,1070.216 1954.613,1095.128 1953.483,1096.663 1927.401,1121.759 
		1925.853,1123.26 1899.956,1142.644 1898.449,1143.777 1870.2,1160.822 1868.587,1161.799 1858.395,1167.056 1857.817,1167.356 
		1838.378,1176.216 1837.293,1176.714 1828.146,1180.409 1827.64,1180.614 1795.262,1191.716 1793.517,1192.317 1761.614,1200.901 
		1759.944,1201.354 1727.604,1207.889 1725.944,1208.226 1689.958,1212.623 1688.122,1212.847 1654.034,1214.53 1652.284,1214.615 
		1623.739,1214.644 1622.259,1214.642 1620.585,1214.579 1588.868,1213.44 1554.71,1210.994 1542.415,1210.046 1509.667,1206.122 
		1493.226,1204.063 1464.356,1198.923 1449.803,1196.235 1423.192,1189.394 1409.735,1185.829 1396.622,1181.309 1389.985,1178.96 
		1378.099,1173.871 1372.081,1171.229 1353.2,1160.169 1343.632,1154.419 1327.927,1140.755 1319.968,1133.63 1306.959,1117.962 
		1300.343,1109.741 1291.314,1096.627 1286.684,1089.7 1275.21,1071.229 1269.244,1061.386 1258.287,1042.399 1252.505,1032.187 
		1242.927,1014.588 1237.807,1005.039 1231.214,992.423 1227.651,985.534 1219.194,969.28 1214.565,960.345 1207.106,946.842 
		1202.958,939.366 1196.067,928.247 1192.189,922.058 1183.786,910.575 1179.01,904.155 1167.49,892.171 1160.902,885.466 
		1155.259,881.2 1152.032,878.835 1146.315,875.636 1143.048,873.882 1138.165,872.062 1135.377,871.089 1130.466,870.11 
		1127.661,869.624 1122.843,869.491 1120.094,869.489 1115.248,870.144 1112.48,870.592 1107.611,872.001 1104.828,872.882 
		1100.563,874.689 1098.125,875.79 1093.696,878.19 1091.16,879.631 1086.589,882.649 1083.968,884.441 1079.293,888.083 
		1076.608,890.23 1071.16,895.181 1068.029,898.081 1062.576,903.821 1059.436,907.168 1054.229,913.419 1051.224,917.048 
		1046.136,923.924 1043.195,927.903 1033.764,942.662 1028.308,951.183 1019.58,966.742 1014.536,975.706 1008.892,986.169 
		1005.644,992.193 997.071,1007.653 992.164,1016.562 980,1036.337 973.076,1047.745 963.069,1061.962 957.385,1070.176 
		945.939,1084.444 939.443,1092.702 931.23,1101.741 926.569,1106.983 910.581,1121.974 901.518,1130.692 892.439,1137.833 
		887.298,1142.005 877.425,1148.774 871.843,1152.745 861.153,1159.036 855.107,1162.743 843.596,1168.444 837.084,1171.823 
		811.71,1181.047 797.342,1186.57 778.308,1190.938 767.5,1193.606 747.538,1196.175 736.173,1197.806 715.762,1198.56 
		704.107,1199.141 683.824,1198.177 672.216,1197.765 643.972,1193.748 627.784,1191.648 602.837,1185.327 588.571,1181.941 
		578.306,1178.441 572.465,1176.569 562.859,1172.745 557.424,1170.706 543.777,1164.322 536.096,1160.934 514.77,1149.114 
		502.778,1142.829 480.647,1128.901 468.096,1121.399 451.363,1109.562 441.808,1103.106 431.914,1095.3 426.268,1091.015 
		413.399,1079.657 406.109,1073.394 391.731,1059.226 383.72,1051.366 374.005,1041.583 368.686,1036.124 358.572,1026.472 
		353.102,1021.056 343.792,1012.92 338.805,1008.33 329.013,1000.616 323.801,996.241 312.012,988.087 305.786,983.433 
		293.579,976.278 287.175,972.161 274.562,966.127 267.967,962.618 254.815,957.724 247.93,954.833 223.596,948.94 210.731,945.351 
		197.42,943.466 190.284,942.249 176.098,941.007 168.412,940.141 149.579,939.438 139.262,938.819 119.027,938.991 
		107.819,938.853 86.221,939.854 74.139,940.169 58.905,941.097 45.328,942.116 45.328,942.819 45.328,966.176 45.328,968.133 
		45.328,971.389 45.328,972.356 45.328,974.128 45.328,975.028 45.328,976.91 45.328,977.76 45.328,978.531 45.328,981.2 
		45.328,988.991 45.328,990.605 45.328,991.458 45.328,992.354 45.328,1133.628 	"/>
	<polyline fill="none" stroke="#0000FF" stroke-width="1" stroke-miterlimit="10" points="2754.95,1027.86 2757.366,1026.245 
		2764.844,1021.132 2764.844,1020.026 2764.844,1019.947 2764.844,1019.872 2764.844,1017.631 2764.844,1017.437 2764.844,1017.276 
		2764.844,1017.134 2764.844,1013.711 2764.844,1009.499 2764.844,1008.784 2764.844,1006.799 2764.844,1006.356 2764.844,1004.55 
		2764.844,1004.03 2764.844,1002.366 2764.844,1000.858 2764.844,995.636 2764.844,992.632 2764.844,989.725 2764.844,988.19 
		2764.844,986.578 2764.844,732.183 2764.844,717.769 2764.844,711.978 2764.844,666.877 2764.844,661.194 2764.844,570.216 
		2716.16,570.216 2598.166,570.216 2598.166,602.672 2598.166,681.334 2572.201,681.334 2509.271,681.334 2509.271,648.879 
		2509.271,570.216 2497.101,570.216 2467.601,570.216 2467.601,602.672 2467.601,681.334 961.208,681.334 339.69,681.334 
		339.69,648.879 339.69,570.216 327.518,570.216 298.021,570.216 298.021,602.672 298.021,681.334 272.056,681.334 209.126,681.334 
		209.126,648.879 209.126,570.216 160.443,570.216 42.448,570.216 42.448,769.685 42.448,792.208 42.448,807.562 42.448,825.356 
		42.448,845.28 42.476,845.28 42.512,845.278 42.723,845.28 55.04,845.39 77.298,845.815 80.602,845.983 84.85,845.68 
		106.107,843.889 121.489,841.88 132.032,840.312 143.478,838.149 151.38,836.542 163.199,833.501 171.405,831.317 185.308,826.283 
		195.018,822.772 209.054,815.649 218.927,810.796 228.638,804.616 235.509,800.468 248.923,790.64 258.475,784.12 277.438,770.315 
		291.049,761.326 299.819,756.337 306.146,753.177 314.872,749.831 321.172,747.806 329.009,746.448 334.666,745.763 
		342.432,746.069 348.032,746.519 355.69,748.394 361.203,749.915 368.706,753.149 374.096,755.603 382.758,760.853 
		388.963,764.741 397.268,771.073 403.197,775.724 410.59,782.294 415.859,787.112 422.425,793.649 427.102,798.451 
		433.339,805.286 437.779,810.321 444.452,818.39 449.208,824.351 455.475,832.753 459.952,838.976 471.416,856.913 
		479.626,870.221 489.668,889.158 496.848,903.198 501.95,913.798 505.575,921.641 512.24,935.476 516.957,945.693 523.055,956.962 
		527.382,965.272 532.197,972.634 535.64,978.062 540.975,984.606 544.818,989.434 550.739,994.991 555.04,999.096 
		561.515,1003.517 566.252,1006.792 573.168,1009.948 578.261,1012.304 585.402,1014.101 590.684,1015.468 597.794,1015.864 
		603.073,1016.215 609.899,1015.208 614.983,1014.54 619.319,1013.102 622.559,1012.101 626.626,1010.088 629.671,1008.671 
		634.672,1005.126 638.425,1002.61 643.792,997.155 647.833,993.256 652.522,986.731 656.054,982.039 660.715,973.673 
		664.219,967.627 668.407,958.659 671.532,952.147 679.116,935.069 684.696,922.601 689.951,912.23 693.77,904.636 696.559,899.81 
		698.576,896.276 704.544,887.294 708.854,880.728 722.184,865.135 731.784,853.779 749.637,838.011 762.516,826.553 
		778.638,815.185 790.373,806.864 805.996,798.017 817.527,791.437 822.801,788.938 826.729,787.054 836.622,782.98 844,779.896 
		848.712,778.194 852.214,776.909 870.144,771.371 883.31,767.239 903.828,762 918.562,758.218 941.319,753.544 957.455,750.252 
		981.648,746.739 998.876,744.31 1019.137,742.455 1033.788,741.224 1049.175,740.312 1060.458,739.765 1085.744,738.905 
		1087.427,738.843 1095.775,738.71 1125.398,738.314 1159.325,738.669 1164.975,738.813 1195.832,740.47 1200.987,740.83 
		1231.211,744.528 1236.267,745.23 1252.195,748.405 1254.854,748.979 1270.145,753.116 1272.696,753.849 1299.224,764.407 
		1303.658,766.247 1328.3,781.274 1332.43,783.875 1354.258,802.624 1357.943,805.874 1373.085,822.255 1375.67,825.108 
		1394.154,848.833 1397.362,853.007 1414.171,878.104 1417.141,882.563 1431.278,906.597 1433.817,910.903 1443.187,928.659 
		1444.892,931.862 1456.104,955.35 1458.185,959.622 1467.054,979.583 1468.733,983.241 1476.227,1000.005 1477.673,1003.096 
		1486.458,1020.974 1488.175,1024.286 1500.709,1044.579 1503.163,1048.345 1509.794,1056.599 1511.086,1058.122 1518.216,1065.299 
		1519.599,1066.614 1525.991,1071.707 1527.228,1072.63 1533.894,1076.694 1535.181,1077.42 1541.895,1080.287 1543.191,1080.783 
		1550.037,1082.497 1551.36,1082.773 1558.266,1083.286 1559.601,1083.332 1565.646,1082.776 1566.817,1082.627 1573.086,1081.063 
		1574.3,1080.724 1580.72,1078.038 1581.968,1077.485 1588.452,1073.597 1589.713,1072.817 1597.129,1066.808 1598.575,1065.619 
		1605.815,1057.956 1607.231,1056.456 1613.956,1047.542 1615.276,1045.806 1621.665,1035.524 1622.926,1033.528 1634.403,1010.414 
		1636.675,1005.942 1647.307,980.796 1649.412,975.938 1656.632,958.914 1658.055,955.626 1669.878,930.638 1672.192,925.804 
		1690.426,894.5 1693.972,888.43 1709.55,866.526 1712.573,862.269 1730.521,840.937 1734.005,836.776 1746.958,823.737 
		1749.475,821.186 1775.001,800.78 1779.956,796.769 1794.642,787.776 1797.491,785.995 1813.559,778.05 1816.677,776.464 
		1834.093,769.704 1837.472,768.343 1856.112,762.87 1859.732,761.752 1899.807,754.88 1907.607,753.43 1936.319,751.853 
		1941.932,751.469 1970.517,752.35 1976.134,752.451 2003.687,755.569 2009.128,756.118 2034.876,761.245 2039.992,762.194 
		2073.753,773.044 2080.503,775.101 2109.897,790.013 2115.786,792.853 2128.505,801.301 2131.038,802.905 2143.573,812.433 
		2146.058,814.237 2164.854,830.562 2168.558,833.646 2197.396,863.239 2203.091,868.832 2228.072,900.161 2233.104,906.112 
		2248.921,929.665 2252.181,934.173 2261.269,948.521 2263.151,951.28 2276.188,970.858 2278.855,974.642 2297.292,997.114 
		2300.961,1001.483 2316.395,1015.648 2319.403,1018.423 2337.656,1031.18 2341.177,1033.7 2359.497,1043.438 2363.009,1045.382 
		2383.551,1053.683 2387.468,1055.358 2413.642,1062.994 2418.616,1064.563 2446.984,1070.028 2452.36,1071.183 2482.259,1074.478 
		2487.921,1075.216 2518.576,1076.444 2524.388,1076.786 2576.162,1074.62 2586.04,1074.38 2610.682,1071.55 2615.432,1071.091 
		2638.719,1067.267 2643.253,1066.612 2669.844,1060.649 2675.095,1059.599 2698.945,1052.411 2703.751,1051.118 2724.775,1042.814 
		2729.118,1041.298 2731.201,1040.454 2751.353,1030.025 2753.782,1028.612 2754.95,1027.86 	"/>
	<polyline fill="none" stroke="#0000FF" stroke-width="1" stroke-miterlimit="10" points="2766.855,407.538 2766.855,127.486 
		2766.855,120.89 2766.855,118.24 2766.855,97.602 2766.855,95.002 2766.855,53.367 2744.577,53.367 2600.179,53.367 
		2600.179,68.219 2600.179,164.485 2588.297,164.485 2511.284,164.485 2511.284,149.633 2511.284,53.367 2505.716,53.367 
		2469.614,53.367 2469.614,68.219 2469.614,164.485 626.126,164.485 341.703,164.485 341.703,149.633 341.703,53.367 
		336.133,53.367 300.034,53.367 300.034,68.219 300.034,164.485 288.151,164.485 211.14,164.485 211.14,149.633 211.14,53.367 
		188.859,53.367 44.46,53.367 44.46,144.648 44.46,154.957 44.46,161.982 44.46,170.125 44.46,179.268 44.46,189.289 44.46,200.007 
		44.46,240.648 44.46,280.579 44.46,369.559 44.46,370.899 44.46,372.396 44.46,373.52 54.668,372.122 67.096,370.354 
		77.25,368.243 92.216,365.245 102.731,362.369 118.264,358.229 130.729,353.936 149.172,347.606 161.905,342.217 180.775,334.062 
		189.671,329.701 202.872,322.985 215.226,316.197 233.599,305.653 251.024,295.448 277.053,279.696 285.063,275.329 
		297.091,268.731 305.064,265.039 317.062,259.605 324.271,257.081 335.132,253.525 342.366,251.939 353.271,249.904 
		360.527,249.329 371.46,248.897 378.701,249.338 389.61,250.48 398.093,252.228 410.888,255.44 419.054,258.317 431.403,263.213 
		438.581,266.716 449.489,272.485 455.688,276.317 465.177,282.523 470.827,286.782 479.558,293.618 485.301,298.871 
		494.28,307.259 499.394,312.901 507.487,321.89 516.268,334.256 530.392,353.965 537.556,367.207 549.314,388.42 552.719,395.829 
		558.413,407.773 562.658,417.37 569.845,432.937 573.723,440.621 580.307,453.189 583.492,458.1 588.865,466.196 592.538,470.449 
		598.69,477.517 602.892,481 609.901,486.84 614.554,489.468 622.313,493.924 627.259,495.637 635.536,498.586 640.541,499.36 
		648.975,500.738 653.816,500.59 662.042,500.401 666.521,499.384 674.202,497.685 676.952,496.553 681.708,494.619 684.21,493.172 
		688.575,490.667 691.57,488.265 696.833,484.064 699.96,480.523 705.509,474.268 708.157,470.166 712.912,462.843 715.467,457.718 
		720.113,448.471 722.365,443.104 726.511,433.302 730.62,423.384 738.279,404.954 741.19,399.135 746.694,388.075 748.249,385.42 
		751.219,380.303 754.541,375.442 760.952,365.965 768.234,357.728 782.602,341.31 792.07,333.046 811.376,316.121 819.909,310.003 
		837.799,297.205 846.3,292.174 864.454,281.517 867.376,280.034 873.719,276.86 879.226,274.391 891.289,269.071 893.888,268.039 
		899.66,265.786 909.235,262.534 930.903,255.304 941.167,252.488 965.229,245.967 976.116,243.561 1002.354,237.816 
		1013.819,235.915 1041.868,231.326 1051.594,230.191 1075.496,227.454 1082.996,226.834 1101.417,225.329 1115.783,224.506 
		1128.912,223.763 1153.085,223.112 1165.888,222.724 1192.026,223.107 1205.175,223.22 1229.049,224.924 1240.899,225.67 
		1264.244,229.184 1275.659,230.789 1287.871,233.661 1293.782,234.986 1305.404,238.617 1310.977,240.295 1330.759,249.256 
		1340.1,253.364 1357.713,265.707 1365.891,271.279 1380.599,286.306 1387.318,292.944 1396.979,305.855 1401.332,311.442 
		1412.729,329.993 1417.745,337.799 1428.129,357.528 1432.538,365.551 1441.744,384.927 1445.476,392.516 1452.075,407.326 
		1454.634,412.942 1463.392,433.35 1466.608,440.805 1474.37,458.797 1477.075,465.144 1484.159,480.539 1486.533,485.826 
		1495.17,502.29 1497.979,507.811 1510.307,526.207 1514.219,532.237 1520.611,539.525 1522.621,541.895 1529.394,548.119 
		1531.507,550.134 1537.507,554.489 1539.366,555.896 1545.569,559.346 1547.481,560.46 1553.688,562.905 1555.594,563.696 
		1561.901,565.208 1563.828,565.703 1570.195,566.269 1572.128,566.463 1577.724,566.182 1579.414,566.107 1585.266,565.055 
		1587.023,564.739 1593.086,562.835 1594.897,562.253 1601.12,559.436 1602.968,558.57 1610.251,554.149 1612.398,552.792 
		1619.743,547.08 1621.888,545.33 1628.979,538.599 1631.028,536.545 1638.063,528.679 1640.076,526.291 1653.47,508.253 
		1657.247,502.826 1670.079,482.699 1673.664,476.707 1682.111,462.803 1684.479,458.696 1697.312,437.901 1700.942,431.81 
		1718.699,405.208 1723.802,397.488 1737.919,378.573 1742.017,373.123 1757.794,354.438 1762.386,349.086 1773.614,337.469 
		1776.882,334.161 1798.79,315.444 1805.153,310.162 1817.667,301.574 1821.3,299.176 1834.956,291.294 1838.912,289.112 
		1853.723,282.058 1858.005,280.127 1873.927,274.004 1878.521,272.352 1913.331,263.17 1923.312,260.772 1949.095,256.909 
		1956.419,255.975 1983.163,254.099 1990.685,253.736 2017.862,253.737 2025.413,253.908 2052.485,255.665 2059.907,256.33 
		2098.472,261.927 2108.878,263.746 2144.794,273.034 2154.374,275.892 2169.864,281.541 2174.002,283.248 2188.776,289.8 
		2192.745,291.768 2213.64,303.265 2219.317,306.699 2249.642,328.021 2257.958,334.356 2284.647,357.075 2291.923,363.809 
		2308.995,380.955 2313.622,386.024 2323.481,396.657 2326.148,399.785 2340.094,414.721 2343.88,419.079 2362.349,437.021 
		2367.436,442.196 2381.583,454.03 2385.556,457.404 2401.069,468.484 2405.501,471.61 2420.187,480.416 2424.437,482.875 
		2440.255,490.718 2444.876,492.884 2464.495,500.556 2470.263,502.643 2491.237,508.712 2497.426,510.325 2519.479,514.745 
		2525.98,515.875 2548.688,518.696 2555.365,519.361 2594.165,520.849 2605.509,521.017 2624.255,520.387 2629.692,520.074 
		2647.636,518.658 2652.804,518.119 2673.645,515.386 2679.592,514.439 2698.719,510.72 2704.107,509.493 2721.438,504.86 
		2726.246,503.375 2731.99,501.117 2740.086,497.901 2746.268,495.994 2753.458,492.906 2759.998,489.612 2766.855,486.144 
		2766.855,484.771 2766.855,484.037 2766.855,483.771 2766.855,483.059 2766.855,407.538 	"/>
</g>
<g id="follow_x5F_paths">
	<polyline fill="none" stroke="#DB2526" stroke-width="1" stroke-miterlimit="10" points="2662.347,1204.261 2661.12,1204.394 
		2620.796,1208.124 2619.241,1208.296 2608.244,1209.358 2607.821,1209.407 2580.815,1212.153 2579.79,1212.277 2556.275,1214.866 
		2555.386,1214.979 2532.419,1217.71 2531.55,1217.829 2527.862,1218.325 2506.888,1220.934 2500.761,1221.566 2490.877,1222.934 
		2489.565,1223.095 2476.391,1224.749 2475.634,1224.851 2464.891,1226.199 2464.266,1226.28 2452.416,1227.73 2451.72,1227.817 
		2436.789,1229.542 2435.903,1229.642 2419.64,1231.327 2418.665,1231.421 2406.648,1232.483 2405.923,1232.538 2388.244,1233.724 
		2387.163,1233.778 2360.272,1234.462 2358.607,1234.477 2345.64,1234.228 2344.831,1234.2 2331.782,1233.521 2330.967,1233.469 
		2319.237,1232.466 2318.498,1232.396 2306.954,1231.021 2306.227,1230.93 2294.987,1229.193 2294.275,1229.082 2283.448,1227.008 
		2282.759,1226.876 2270.505,1224.001 2269.722,1223.819 2258.201,1220.54 2257.462,1220.333 2247.331,1216.924 2246.679,1216.707 
		2237.701,1213.233 2237.12,1213.011 2228.537,1209.265 2227.979,1209.022 2218.638,1204.456 2218.027,1204.159 2209.041,1199.267 
		2208.45,1198.947 2191.56,1188.248 2190.437,1187.54 2175.78,1176.153 2174.8,1175.394 2167.75,1169.063 2167.278,1168.641 
		2158.538,1160.456 2157.954,1159.905 2150.037,1153.299 2149.509,1152.854 2143.01,1148.55 2142.573,1148.259 2135.011,1144.424 
		2134.499,1144.164 2125.666,1140.881 2125.065,1140.657 2114.968,1138.001 2114.283,1137.819 2103.104,1135.854 2102.343,1135.721 
		2090.479,1134.501 2089.67,1134.417 2077.597,1133.968 2076.774,1133.935 2064.979,1134.258 2064.175,1134.278 2056.589,1134.917 
		2056.072,1134.959 2048.9,1135.919 2048.412,1135.981 2039.468,1137.753 2038.86,1137.87 2029.081,1140.733 2028.419,1140.923 
		2019.831,1144.511 2019.251,1144.747 2010.866,1149.553 2010.306,1149.871 2003.139,1155.252 2002.664,1155.605 1990.972,1166.384 
		1990.216,1167.084 1982.794,1173.84 1982.323,1174.273 1978.467,1177.432 1978.223,1177.633 1970.009,1183.483 1969.495,1183.853 
		1950.929,1193.817 1949.8,1194.431 1923.718,1204.469 1922.169,1205.069 1896.271,1212.821 1894.765,1213.276 1866.516,1220.095 
		1864.903,1220.485 1854.71,1222.588 1854.134,1222.708 1834.694,1226.252 1833.608,1226.451 1824.461,1227.929 1823.954,1228.011 
		1791.577,1232.452 1789.832,1232.692 1757.931,1236.126 1756.261,1236.308 1723.919,1238.921 1722.259,1239.056 1686.272,1240.814 
		1684.438,1240.903 1650.351,1241.578 1648.6,1241.612 1620.055,1241.623 1618.573,1241.622 1616.9,1241.598 1585.184,1241.142 
		1551.024,1240.163 1538.729,1239.784 1505.982,1238.214 1489.541,1237.392 1460.673,1235.335 1446.118,1234.26 1419.51,1231.522 
		1406.051,1230.097 1392.937,1228.29 1386.3,1227.35 1374.414,1225.313 1368.396,1224.257 1349.516,1219.833 1339.947,1217.534 
		1324.243,1212.067 1316.284,1209.218 1303.275,1202.95 1296.658,1199.662 1287.629,1194.417 1282.999,1191.646 1271.526,1184.257 
		1265.56,1180.319 1254.603,1172.726 1248.819,1168.641 1239.243,1161.6 1234.122,1157.78 1227.529,1152.734 1223.967,1149.979 
		1215.51,1143.478 1210.881,1139.903 1203.421,1134.503 1199.274,1131.513 1192.384,1127.064 1188.505,1124.589 1180.101,1119.996 
		1175.325,1117.428 1163.805,1112.634 1157.219,1109.951 1151.575,1108.245 1148.348,1107.3 1142.631,1106.021 1139.363,1105.318 
		1134.48,1104.591 1131.691,1104.202 1126.781,1103.81 1123.977,1103.614 1119.159,1103.562 1116.408,1103.562 1111.562,1103.821 
		1108.795,1104.003 1103.926,1104.566 1101.143,1104.919 1096.88,1105.642 1094.441,1106.081 1090.012,1107.042 1087.476,1107.618 
		1082.903,1108.825 1080.284,1109.542 1075.608,1110.999 1072.924,1111.857 1067.476,1113.839 1064.344,1114.998 1058.892,1117.294 
		1055.751,1118.633 1050.545,1121.133 1047.54,1122.585 1042.452,1125.335 1039.509,1126.927 1030.08,1132.831 1024.624,1136.238 
		1015.894,1142.462 1010.851,1146.048 1005.208,1150.232 1001.96,1152.644 993.388,1158.827 988.478,1162.39 976.315,1170.301 
		969.392,1174.864 959.385,1180.55 953.701,1183.836 942.256,1189.543 935.759,1192.847 927.544,1196.462 922.885,1198.56 
		906.896,1204.556 897.834,1208.043 888.755,1210.899 883.613,1212.567 873.742,1215.276 868.158,1216.864 857.469,1219.38 
		851.423,1220.862 839.911,1223.144 833.4,1224.495 808.026,1228.185 793.656,1230.394 774.622,1232.141 763.816,1233.208 
		743.854,1234.235 732.487,1234.888 712.076,1235.189 700.423,1235.423 680.14,1235.036 668.531,1234.872 640.288,1233.265 
		624.1,1232.425 599.153,1229.896 584.885,1228.542 574.62,1227.142 568.78,1226.394 559.175,1224.863 553.739,1224.048 
		540.093,1221.494 532.412,1220.14 511.084,1215.411 499.093,1212.897 476.963,1207.326 464.411,1204.326 447.677,1199.591 
		438.124,1197.008 428.229,1193.886 422.583,1192.172 409.715,1187.628 402.425,1185.123 388.047,1179.456 380.035,1176.312 
		370.319,1172.399 365,1170.215 354.888,1166.354 349.418,1164.188 340.109,1160.934 335.12,1159.098 325.328,1156.012 
		320.118,1154.263 308.327,1151 302.102,1149.14 289.894,1146.276 283.489,1144.63 270.876,1142.216 264.283,1140.812 
		251.131,1138.854 244.244,1137.699 219.911,1135.343 207.047,1133.906 193.735,1133.151 186.599,1132.665 172.412,1132.168 
		164.729,1131.822 145.895,1131.54 135.578,1131.294 	"/>
	<polyline fill="none" stroke="#DB2526" stroke-width="1" stroke-miterlimit="10" points="118.843,755.846 129.385,755.218 
		140.83,754.354 148.734,753.71 160.554,752.494 168.759,751.62 182.662,749.606 192.373,748.202 206.408,745.354 216.28,743.413 
		225.991,740.94 232.863,739.28 246.275,735.35 255.828,732.742 274.792,727.22 288.402,723.624 297.175,721.628 303.498,720.364 
		312.226,719.026 318.525,718.216 326.363,717.673 332.018,717.398 339.786,717.521 345.385,717.702 353.044,718.451 
		358.558,719.06 366.06,720.353 371.448,721.335 380.111,723.435 386.317,724.989 394.62,727.522 400.551,729.383 407.943,732.011 
		413.214,733.938 419.78,736.554 424.458,738.474 430.691,741.208 435.133,743.222 441.806,746.448 446.562,748.833 
		452.828,752.194 457.306,754.685 468.771,761.858 476.979,767.183 487.023,774.757 494.202,780.374 499.304,784.612 
		502.93,787.751 509.593,793.283 514.31,797.371 520.408,801.878 524.735,805.202 529.551,808.147 532.994,810.318 538.328,812.937 
		542.173,814.867 548.093,817.091 552.394,818.731 558.868,820.501 563.607,821.812 570.523,823.073 575.615,824.015 
		582.756,824.733 588.038,825.28 595.148,825.44 600.427,825.579 607.252,825.177 612.337,824.909 616.674,824.335 619.912,823.934 
		623.979,823.128 627.024,822.562 632.025,821.145 635.778,820.138 641.146,817.956 645.186,816.396 649.876,813.786 
		653.408,811.909 658.069,808.563 661.573,806.145 665.761,802.558 668.885,799.952 676.469,793.12 682.051,788.134 
		687.306,783.986 691.122,780.948 693.912,779.018 695.931,777.604 701.899,774.011 706.208,771.384 719.538,765.147 
		729.138,760.605 746.989,754.298 759.868,749.715 775.992,745.167 787.726,741.839 803.351,738.3 814.883,735.668 820.156,734.669 
		824.082,733.915 833.976,732.286 841.354,731.052 846.064,730.372 849.567,729.857 867.498,727.642 880.663,725.99 
		901.183,723.894 915.914,722.381 938.674,720.512 954.808,719.194 979.002,717.79 996.231,716.817 1016.489,716.075 
		1031.142,715.583 1046.529,715.218 1057.812,714.999 1083.099,714.655 1084.779,714.63 1093.129,714.577 1122.753,714.419 
		1156.68,714.562 1162.33,714.619 1193.187,715.28 1198.341,715.427 1228.565,716.905 1233.62,717.186 1249.551,718.456 
		1252.208,718.686 1267.5,720.341 1270.051,720.633 1296.578,724.856 1301.011,725.593 1325.653,731.604 1329.783,732.644 
		1351.611,740.144 1355.297,741.442 1370.439,747.995 1373.024,749.137 1391.508,758.627 1394.716,760.296 1411.524,770.335 
		1414.495,772.119 1428.632,781.731 1431.173,783.456 1440.541,790.558 1442.246,791.839 1453.46,801.233 1455.538,802.942 
		1464.408,810.927 1466.089,812.39 1473.579,819.096 1475.026,820.333 1483.812,827.483 1485.528,828.809 1498.062,836.925 
		1500.517,838.432 1507.148,841.733 1508.44,842.342 1515.569,845.213 1516.953,845.739 1523.345,847.776 1524.582,848.146 
		1531.247,849.772 1532.534,850.062 1539.249,851.208 1540.546,851.407 1547.392,852.093 1548.716,852.203 1555.62,852.407 
		1556.956,852.427 1563.001,852.204 1564.173,852.144 1570.439,851.521 1571.655,851.384 1578.073,850.309 1579.32,850.087 
		1585.806,848.532 1587.065,848.22 1594.481,845.817 1595.929,845.341 1603.169,842.276 1604.585,841.676 1611.31,838.11 
		1612.63,837.416 1619.02,833.304 1620.278,832.505 1631.759,823.26 1634.028,821.472 1644.66,811.411 1646.765,809.469 
		1653.985,802.659 1655.408,801.344 1667.232,791.349 1669.548,789.415 1687.779,776.894 1691.327,774.466 1706.901,765.704 
		1709.927,764.001 1727.874,755.468 1731.358,753.804 1744.312,748.588 1746.829,747.567 1772.353,739.405 1777.311,737.801 
		1791.995,734.204 1794.845,733.491 1810.913,730.313 1814.028,729.679 1831.444,726.976 1834.825,726.431 1853.467,724.241 
		1857.087,723.795 1897.16,721.046 1904.961,720.466 1933.673,719.835 1939.285,719.682 1967.87,720.034 1973.485,720.074 
		2001.04,721.321 2006.481,721.54 2032.229,723.591 2037.347,723.972 2071.106,728.312 2077.856,729.134 2107.253,735.099 
		2113.14,736.234 2125.858,739.614 2128.392,740.256 2140.927,744.066 2143.411,744.788 2162.208,751.318 2165.912,752.552 
		2194.749,764.39 2200.443,766.626 2225.427,779.158 2230.457,781.539 2246.274,790.96 2249.534,792.763 2258.622,798.501 
		2260.505,799.605 2273.544,807.438 2276.209,808.95 2294.646,817.94 2298.313,819.687 2313.747,825.353 2316.759,826.463 
		2335.01,831.565 2338.53,832.573 2356.852,836.47 2360.36,837.247 2380.903,840.566 2384.821,841.237 2410.995,844.291 
		2415.97,844.919 2444.338,847.104 2449.716,847.566 2479.612,848.884 2485.275,849.18 2515.93,849.672 2521.741,849.808 
		2573.517,848.941 2583.393,848.847 2608.034,847.714 2612.785,847.53 2636.072,846.001 2640.607,845.737 2667.196,843.354 
		2672.448,842.933 	"/>
	<polyline fill="none" stroke="#DB2526" stroke-width="1" stroke-miterlimit="10" points="128.083,250.439 146.525,247.909 
		159.261,245.754 178.13,242.491 187.024,240.747 200.226,238.061 212.581,235.346 230.952,231.128 248.376,227.046 
		274.405,220.745 282.417,218.998 294.445,216.358 302.417,214.882 314.416,212.71 321.625,211.699 332.486,210.276 339.72,209.642 
		350.626,208.829 357.881,208.599 368.815,208.425 376.054,208.602 386.964,209.059 395.448,209.757 408.24,211.042 
		416.408,212.193 428.759,214.152 435.937,215.553 446.845,217.86 453.042,219.394 462.532,221.875 468.18,223.579 476.911,226.313 
		482.654,228.415 491.635,231.77 496.748,234.026 504.843,237.622 513.622,242.568 527.746,250.453 534.91,255.749 546.668,264.234 
		550.072,267.198 555.767,271.976 560.012,275.814 567.199,282.041 571.076,285.114 577.66,290.142 580.846,292.105 
		586.219,295.345 589.892,297.046 596.044,299.873 600.246,301.267 607.256,303.602 611.907,304.653 619.667,306.436 
		624.613,307.121 632.89,308.301 637.894,308.609 646.328,309.161 651.171,309.104 659.394,309.028 663.875,308.621 
		671.556,307.939 674.306,307.487 679.062,306.714 681.564,306.135 685.929,305.133 688.925,304.172 694.186,302.491 
		697.314,301.075 702.863,298.573 705.509,296.932 710.266,294.004 712.819,291.953 717.469,288.255 719.719,286.107 
		723.865,282.188 727.975,278.221 735.634,270.848 738.544,268.52 744.048,264.097 745.602,263.034 748.573,260.987 
		751.894,259.043 758.307,255.252 765.589,251.957 779.955,245.391 789.425,242.086 808.73,235.315 817.264,232.867 
		835.151,227.749 843.653,225.736 861.807,221.473 864.731,220.88 871.071,219.609 876.581,218.623 888.642,216.494 
		891.242,216.082 897.015,215.181 906.59,213.88 928.258,210.988 938.521,209.861 962.582,207.254 973.469,206.291 999.708,203.993 
		1011.173,203.232 1039.223,201.396 1048.947,200.942 1072.851,199.848 1080.351,199.6 1098.771,198.998 1113.138,198.668 
		1126.267,198.371 1150.438,198.112 1163.243,197.957 1189.38,198.109 1202.529,198.154 1226.403,198.836 1238.253,199.135 
		1261.597,200.541 1273.013,201.183 1285.224,202.33 1291.135,202.86 1302.758,204.312 1308.331,204.984 1328.113,208.568 
		1337.454,210.212 1355.067,215.148 1363.244,217.378 1377.953,223.389 1384.672,226.044 1394.332,231.208 1398.685,233.444 
		1410.083,240.863 1415.099,243.985 1425.481,251.878 1429.892,255.087 1439.099,262.837 1442.83,265.873 1449.43,271.797 
		1451.985,274.043 1460.745,282.206 1463.962,285.188 1471.724,292.385 1474.429,294.924 1481.513,301.082 1483.888,303.197 
		1492.523,309.782 1495.334,311.991 1507.66,319.349 1511.571,321.763 1517.966,324.676 1519.976,325.624 1526.747,328.114 
		1528.86,328.92 1534.859,330.662 1536.722,331.225 1542.923,332.604 1544.835,333.051 1551.042,334.028 1552.947,334.345 
		1559.257,334.949 1561.181,335.147 1567.55,335.373 1569.481,335.451 1575.077,335.339 1576.769,335.309 1582.618,334.888 
		1584.378,334.763 1590.439,334 1592.251,333.768 1598.474,332.641 1600.321,332.294 1607.604,330.525 1609.751,329.983 
		1617.097,327.697 1619.241,326.998 1626.333,324.306 1628.384,323.484 1635.417,320.338 1637.43,319.383 1650.823,312.168 
		1654.601,309.997 1667.433,301.946 1671.017,299.549 1679.467,293.987 1681.832,292.345 1694.665,284.026 1698.296,281.59 
		1716.052,270.949 1721.155,267.861 1735.272,260.295 1739.372,258.116 1755.148,250.642 1759.739,248.5 1770.968,243.854 
		1774.235,242.53 1796.144,235.044 1802.507,232.931 1815.022,229.496 1818.653,228.537 1832.31,225.384 1836.267,224.511 
		1851.076,221.689 1855.359,220.917 1871.281,218.468 1875.874,217.807 1910.685,214.135 1920.665,213.175 1946.448,211.63 
		1953.772,211.256 1980.517,210.506 1988.038,210.361 2015.218,210.361 2022.767,210.431 2049.841,211.133 2057.261,211.398 
		2095.825,213.637 2106.231,214.365 2142.147,218.08 2151.728,219.223 2167.219,221.483 2171.355,222.166 2186.13,224.786 
		2190.1,225.573 2210.995,230.173 2216.671,231.546 2246.995,240.075 2255.312,242.609 2282.002,251.696 2289.276,254.391 
		2306.349,261.248 2310.976,263.276 2320.835,267.529 2323.502,268.78 2337.446,274.754 2341.233,276.498 2359.702,283.675 
		2364.79,285.745 2378.937,290.478 2382.909,291.827 2398.426,296.26 2402.854,297.511 2417.54,301.032 2421.79,302.017 
		2437.608,305.153 2442.229,306.02 2461.849,309.088 2467.617,309.924 2488.593,312.352 2494.778,312.997 2516.832,314.765 
		2523.334,315.216 2546.041,316.345 2552.719,316.61 2591.519,317.206 2602.861,317.272 2621.609,317.021 2627.046,316.896 
		2644.989,316.329 2650.157,316.114 2670.999,315.021 2676.945,314.642 	"/>
</g>
<g id="pockets">
</g>
<g id="ids">
	<polyline fill="none" stroke="#622B8A" stroke-miterlimit="10" points="123.81,1097.198 221.824,1097.198 200.029,1075.409 	"/>
	<polyline fill="none" stroke="#622B8A" stroke-miterlimit="10" points="123.81,1177.491 123.81,1133.96 188.563,1174.185 
		188.624,1174.231 188.684,1174.278 188.744,1174.323 188.807,1174.366 188.872,1174.407 188.939,1174.448 189.009,1174.49 
		189.083,1174.53 189.16,1174.571 192.726,1176.231 196.424,1177.202 200.167,1177.507 203.873,1177.166 207.46,1176.207 
		210.843,1174.653 213.939,1172.526 216.665,1169.853 218.937,1166.654 220.572,1163.079 221.527,1159.376 221.823,1155.631 
		221.479,1151.925 220.518,1148.341 218.96,1144.962 216.828,1141.868 214.142,1139.147 210.925,1136.88 205.443,1134.021 	"/>
	<polyline fill="none" stroke="#622B8A" stroke-miterlimit="10" points="2606.822,993.633 2606.822,993.633 2614.649,992.931 
		2622.012,990.905 2628.786,987.68 2634.852,983.381 2640.087,978.13 2644.369,972.053 2647.579,965.273 2649.595,957.915 
		2650.293,950.102 2649.595,942.29 2647.579,934.931 2644.369,928.15 2640.087,922.073 2634.852,916.823 2628.786,912.524 
		2622.012,909.299 2614.649,907.273 2606.822,906.569 2585.138,906.569 2577.307,907.273 2569.936,909.298 2563.146,912.521 
		2557.064,916.819 2551.809,922.069 2547.51,928.146 2544.285,934.925 2542.26,942.286 2541.557,950.102 2542.26,957.919 
		2544.287,965.278 2547.512,972.058 2551.814,978.136 2557.068,983.384 2563.151,987.683 2569.939,990.905 2577.309,992.931 
		2585.138,993.633 2606.822,993.633 	"/>
	<polyline fill="none" stroke="#622B8A" stroke-miterlimit="10" points="2497.966,906.569 2497.966,906.569 2490.169,907.273 
		2482.825,909.298 2476.056,912.521 2469.987,916.819 2464.741,922.069 2460.446,928.146 2457.223,934.925 2455.197,942.286 
		2454.495,950.102 2455.197,957.919 2457.223,965.278 2460.446,972.058 2464.741,978.136 2469.987,983.384 2476.056,987.683 
		2482.825,990.905 2490.169,992.931 2497.966,993.633 2505.796,992.931 2513.169,990.905 2519.958,987.68 2526.043,983.381 
		2531.3,978.13 2535.601,972.053 2538.828,965.273 2540.854,957.915 2541.557,950.102 2540.854,942.29 2538.828,934.931 
		2535.601,928.15 2531.3,922.073 2526.043,916.823 2519.958,912.524 2513.169,909.299 2505.796,907.273 2497.966,906.569 	"/>
	<polyline fill="none" stroke="#622B8A" stroke-miterlimit="10" points="709.668,197.633 709.668,252.056 633.442,230.32 	"/>
	<line fill="none" stroke="#622B8A" stroke-miterlimit="10" x1="731.458" y1="213.946" x2="687.927" y2="213.946"/>
</g>
</svg>
