<?xml version="1.0" encoding="utf-8"?>
<!-- Generator: Adobe Illustrator 16.0.0, SVG Export Plug-In . SVG Version: 6.00 Build 0)  -->
<!DOCTYPE svg PUBLIC "-//W3C//DTD SVG 1.1//EN" "http://www.w3.org/Graphics/SVG/1.1/DTD/svg11.dtd">
<svg version="1.1" xmlns="http://www.w3.org/2000/svg" xmlns:xlink="http://www.w3.org/1999/xlink" x="0px" y="0px"
	 width="2834.646px" height="1417.322px" viewBox="0 0 2834.646 1417.322" enable-background="new 0 0 2834.646 1417.322"
	 xml:space="preserve">
<g id="profiles">
	<polyline fill="none" stroke="#0000FF" stroke-width="1" stroke-miterlimit="10" points="51.64,1056.407 51.64,1069.264 
		51.64,1169.4 51.64,1182.018 51.64,1384.021 159.733,1384.021 218.318,1384.021 218.318,1311.958 218.318,1272.901 
		275.967,1272.901 307.212,1272.901 307.212,1344.964 307.212,1384.021 334.235,1384.021 348.882,1384.021 348.882,1311.958 
		348.882,1272.901 1096.811,1272.901 2476.793,1272.901 2476.793,1344.964 2476.793,1384.021 2503.817,1384.021 2518.462,1384.021 
		2518.462,1311.958 2518.462,1272.901 2576.112,1272.901 2607.357,1272.901 2607.357,1344.964 2607.357,1384.021 2715.45,1384.021 
		2774.034,1384.021 2774.034,1234.591 2774.034,1228.371 2774.034,1103.692 2774.034,1103.369 2774.034,1102.938 2774.034,1097.946 
		2774.034,1097.655 2774.034,1097.312 2774.034,1096.493 2774.034,1087.194 2774.034,1087.035 2774.034,1086.897 2774.034,1086.175 
		2772.202,1085.758 2760.26,1083.076 2756.51,1082.197 2752.788,1081.267 2743.09,1079.013 2739.427,1078.036 2729.936,1075.684 
		2726.355,1074.67 2708.202,1069.731 2701.384,1067.612 2684.516,1062.495 2678.226,1060.318 2662.504,1055.196 2656.676,1053.039 
		2647.418,1049.982 2643.985,1048.705 2626.848,1043.264 2620.468,1041.017 2609.358,1037.735 2605.191,1036.396 2598.232,1034.423 
		2595.611,1033.62 2581.992,1029.81 2576.865,1028.271 2564.729,1024.741 2560.185,1023.319 2548.968,1019.749 2544.821,1018.31 
		2534.533,1014.727 2530.792,1013.28 2521.05,1009.821 2517.551,1008.424 2507.687,1005.292 2504.153,1004.029 2495.391,1001.83 
		2492.231,1000.943 2482.839,999.246 2479.427,998.566 2469.46,997.43 2465.821,996.981 2455.485,996.425 2451.71,996.213 
		2441.308,996.222 2437.527,996.239 2427.335,996.771 2423.666,996.997 2413.918,997.995 2410.458,998.407 2398.806,1000.163 
		2398.23,1000.256 2398.122,1000.265 2397.998,1000.283 2397.331,1000.431 2382.129,1003.844 2370.55,1007.519 2365.143,1009.529 
		2354.36,1014.254 2349.409,1016.786 2333.956,1025.465 2326.93,1030.03 2310.013,1041.409 2302.356,1047.293 2284.679,1060.923 
		2276.792,1067.855 2266.655,1076.222 2262.204,1080.423 2257.511,1084.31 2255.464,1086.248 2246.579,1093.424 2242.704,1096.975 
		2226.534,1108.882 2219.429,1114.696 2197.11,1128.648 2187.152,1135.32 2180.813,1138.886 2177.958,1140.563 2161.926,1148.976 
		2154.663,1152.878 2140.075,1159.799 2133.412,1162.938 2118.479,1169.248 2111.601,1172.034 2098.286,1176.628 2082.202,1182.139 
		2078.36,1183.409 2072.142,1185.034 2066.907,1186.361 2059.427,1187.975 2055.056,1188.916 2048.813,1190.022 2043.932,1190.909 
		2036.968,1191.912 2030.769,1192.796 2021.933,1193.737 2015.147,1194.392 2005.481,1195.017 2000.446,1195.288 1993.269,1195.489 
		1985.811,1195.556 1975.16,1195.453 1963.611,1194.764 1947.028,1193.66 1941.337,1192.945 1933.099,1191.938 1927.274,1190.916 
		1918.792,1189.503 1913.468,1188.275 1905.665,1186.573 1900.343,1185.018 1892.492,1182.837 1887.232,1180.917 1879.43,1178.19 
		1874.3,1175.879 1866.644,1172.549 1860.784,1169.269 1851.997,1164.479 1846.481,1160.636 1838.18,1154.961 1833.382,1150.903 
		1826.152,1144.872 1821.995,1140.723 1815.745,1134.544 1811.9,1130.105 1806.147,1123.501 1802.134,1118.187 1796.179,1110.304 
		1792.472,1104.746 1787.021,1096.54 1780.167,1084.785 1770.113,1067.559 1763.496,1055.49 1753.51,1037.947 1749.678,1031.41 
		1743.664,1021.974 1738.099,1013.733 1729.134,1001.939 1723.728,995.488 1714.95,986.358 1710.731,982.255 1703.949,976.51 
		1699.485,972.91 1692.448,967.917 1687.802,964.861 1680.653,960.663 1675.896,958.184 1668.772,954.806 1663.975,952.93 
		1656.98,950.388 1652.201,949.132 1645.382,947.437 1640.661,946.809 1634.017,945.953 1629.392,945.948 1622.914,945.913 
		1619.864,946.249 1615.587,946.67 1612.608,947.266 1608.411,948.021 1604.51,949.226 1598.964,950.755 1594.374,952.833 
		1587.765,955.466 1583.337,958.206 1576.877,961.663 1572.082,965.524 1565.017,970.36 1560.503,974.918 1553.827,980.582 
		1546.081,990.464 1534.771,1002.592 1530.181,1009.34 1523.739,1017.454 1521.542,1020.76 1518.562,1024.677 1514.253,1031.033 
		1508.629,1038.444 1499.946,1049.829 1489.454,1062.582 1477.83,1074.474 1465.075,1086.866 1453.038,1096.467 1440.853,1105.745 
		1426.747,1114.955 1413.404,1123.339 1408.067,1126.416 1403.229,1129.125 1392.734,1134.643 1383.536,1139.377 1378.472,1141.81 
		1374.161,1143.848 1355.649,1151.58 1340.59,1157.812 1321.521,1163.987 1306.948,1168.654 1286.899,1173.32 1272.477,1176.629 
		1250.039,1179.975 1234.919,1182.257 1214.192,1184.02 1201.036,1185.257 1184.187,1185.948 1173.932,1186.508 1151.083,1186.773 
		1145.884,1186.88 1133.667,1186.607 1105.649,1185.714 1087.399,1184.121 1063.667,1182.34 1047.492,1179.966 1026.559,1177.179 
		1011.296,1174.064 991.438,1170.407 983.606,1168.47 973.292,1166.227 965.881,1164.135 955.989,1161.734 943.318,1157.144 
		926.032,1151.807 914.467,1145.379 898.208,1137.512 888.022,1129.097 873.324,1118.29 866.107,1110.878 855.505,1101.116 
		846.425,1090.36 832.903,1075.887 824.632,1064.029 812.142,1047.533 805.434,1035.737 795.183,1018.773 790.899,1010.219 
		784.286,997.655 779.2,986.923 771.29,970.943 767.104,962.209 760.576,948.97 756.867,941.677 751.064,930.39 746.651,922.678 
		739.723,910.47 733.805,902.394 724.429,889.298 721.593,886.504 717.056,881.886 714.239,879.841 709.706,876.413 
		707.356,875.255 703.563,873.273 701.268,872.607 697.554,871.417 695.376,871.199 691.858,870.73 689.749,870.874 
		686.355,870.979 684.324,871.423 681.075,871.997 679.346,872.582 676.584,873.381 674.801,874.154 671.942,875.232 
		670.111,876.196 667.163,877.559 665.298,878.708 662.268,880.354 660.096,881.896 656.533,884.135 654.348,885.9 650.723,888.498 
		648.619,890.397 645.078,893.231 642.998,895.299 639.441,898.429 635.512,902.815 628.629,909.591 624.945,914.16 
		618.266,921.444 615.911,924.492 611.521,929.498 608.062,933.986 601.48,941.558 596.914,947.254 588.009,957.24 584.556,961.269 
		577.655,968.635 573.989,972.608 566.529,980.118 564.062,982.596 558.955,987.427 554.46,991.501 545.026,999.673 
		542.634,1001.601 537.507,1005.612 535.009,1007.444 529.584,1011.352 526.978,1013.069 521.24,1016.83 518.527,1018.415 
		512.472,1021.983 506.731,1024.693 493.684,1031.064 489.567,1032.517 479.885,1036.188 475.691,1037.284 465.545,1040.273 
		461.355,1041.024 450.902,1043.309 446.817,1043.744 436.27,1045.344 430.654,1045.532 415.529,1046.839 410.635,1046.663 
		396.579,1047.053 394.593,1046.895 388.54,1046.853 386.696,1046.657 380.885,1046.498 378.301,1046.131 369.842,1045.664 
		365.908,1044.879 352.425,1043.467 348.509,1042.425 334.256,1040.056 331.385,1039.127 320.22,1036.714 318.551,1036.098 
		311.684,1034.373 309.527,1033.478 300.229,1030.845 297.879,1029.743 287.06,1026.301 285.559,1025.56 278.183,1023.095 
		276.712,1022.378 269.168,1019.899 267.896,1019.312 261.111,1017.207 259.845,1016.668 252.847,1014.692 251.4,1014.145 
		243.107,1012.13 241.686,1011.678 233.186,1010.037 231.784,1009.688 223.051,1008.485 221.655,1008.232 212.589,1007.485 
		210.122,1007.243 193.479,1006.973 192.215,1006.929 183.14,1007.23 181.836,1007.229 172.188,1007.798 170.513,1007.849 
		157.729,1008.906 155.995,1009.006 142.268,1010.435 140.485,1010.577 125.823,1012.361 115.261,1013.783 108.437,1014.664 
		107.916,1014.934 106.261,1015.63 98.979,1018.349 96.496,1018.962 88.952,1021.179 85.133,1021.719 73.509,1023.746 
		69.388,1023.899 56.834,1024.605 51.937,1024.596 51.703,1024.59 51.64,1024.583 51.64,1056.407 	"/>
	<polyline fill="none" stroke="#0000FF" stroke-width="1" stroke-miterlimit="10" points="49.499,700.974 49.499,715.903 
		49.499,954.912 177.395,954.912 216.177,954.912 216.177,869.648 216.177,843.795 284.385,843.795 305.07,843.795 305.07,929.06 
		305.07,954.912 337.045,954.912 346.74,954.912 346.74,869.648 346.74,843.795 841.847,843.795 2474.651,843.795 2474.651,929.06 
		2474.651,954.912 2506.625,954.912 2516.32,954.912 2516.32,869.648 2516.32,843.795 2584.532,843.795 2605.217,843.795 
		2605.217,929.06 2605.217,954.912 2733.111,954.912 2771.893,954.912 2771.893,855.995 2771.893,851.879 2771.893,724.517 
		2771.893,696.508 2771.893,662.235 2769.8,662.357 2764.816,662.547 2754.724,662.812 2749.051,662.738 2748.226,662.706 
		2747.6,662.648 2746.933,662.589 2736.592,662.333 2735.928,662.264 2725.501,661.881 2723.636,661.638 2694.001,659.758 
		2693.034,659.605 2677.585,658.074 2676.6,657.901 2660.814,655.919 2659.812,655.724 2643.711,653.296 2642.695,653.082 
		2626.291,650.243 2625.269,650.01 2608.596,646.806 2607.572,646.555 2590.717,643.023 2589.701,642.756 2572.789,638.93 
		2571.791,638.648 2554.971,634.552 2553.047,633.959 2520.22,625.069 2518.425,624.453 2487.223,614.881 2485.534,614.265 
		2455.854,604.385 2454.852,604.017 2437.08,598.011 2435.197,597.359 2401.774,586.513 2400.538,586.124 2378.582,579.477 
		2377.804,579.243 2363.975,575.199 2362.446,574.747 2335.293,566.836 2333.938,566.417 2309.71,558.988 2308.474,558.563 
		2286.157,550.987 2285.046,550.559 2264.785,542.924 2263.755,542.509 2244.905,535.103 2243.882,534.726 2225.228,527.954 
		2224.327,527.686 2208.099,522.836 2207.14,522.627 2190.055,518.761 2189.05,518.619 2171.255,515.868 2170.228,515.794 
		2152.183,514.215 2151.175,514.207 2133.52,513.78 2132.563,513.832 2115.897,514.482 2115.023,514.588 2099.854,516.205 
		2095.414,516.958 2085.636,518.992 2082.968,519.596 2068.327,523.849 2053.67,530.289 2050.572,531.593 2037.509,539.572 
		2034.724,541.201 2016.492,555.394 2012.595,558.311 1992.901,576.34 1988.697,580.07 1968.819,601.029 1964.568,605.395 
		1953.597,617.953 1951.244,620.581 1946.224,626.337 1945.146,627.543 1935.614,638.021 1933.566,640.226 1915.71,657.142 
		1911.87,660.727 1885.832,679.659 1880.21,683.705 1872.552,688.356 1870.891,689.355 1851.051,699.948 1846.728,702.229 
		1828.077,710.422 1823.992,712.188 1804.284,719.075 1799.95,720.561 1781.604,725.079 1766.093,728.688 1761.251,729.704 
		1755.151,730.996 1743.556,732.827 1741.01,733.216 1731.427,734.454 1729.331,734.715 1718.72,735.808 1716.407,736.035 
		1703.045,737.027 1700.144,737.229 1685.646,737.867 1682.515,737.988 1671.817,738.198 1669.519,738.23 1653.709,738.182 
		1650.331,738.148 1625.735,737.241 1620.531,737.008 1608.265,736.104 1605.687,735.892 1592.991,734.527 1590.337,734.221 
		1578.587,732.45 1576.14,732.065 1564.243,729.643 1561.771,729.128 1549.862,725.918 1547.396,725.248 1535.629,721.133 
		1533.194,720.288 1519.591,714.133 1516.776,712.883 1503.843,705.374 1501.167,703.866 1489.869,695.758 1487.524,694.143 
		1477.761,685.785 1475.727,684.132 1466.771,675.207 1464.892,673.449 1455.683,662.859 1453.737,660.784 1445.364,649.856 
		1443.579,647.727 1428.069,625.089 1424.739,620.7 1408.625,597.973 1405.184,593.587 1395,581.502 1392.856,579.174 
		1377.264,564.266 1374.024,561.396 1358.716,550.065 1355.562,547.883 1343.931,540.87 1341.542,539.517 1329.771,533.501 
		1327.353,532.337 1315.791,527.33 1313.409,526.357 1302.303,522.35 1300.002,521.566 1289.487,518.535 1287.295,517.938 
		1277.331,515.857 1275.237,515.443 1265.667,514.28 1263.643,514.046 1254.285,513.763 1252.293,513.702 1246.031,513.983 
		1244.691,514.033 1238.437,514.672 1237.096,514.795 1228.575,516.201 1226.731,516.478 1216.085,519.036 1213.757,519.548 
		1202.788,523.044 1200.357,523.757 1187.708,528.834 1184.853,529.885 1172.267,536.062 1169.365,537.365 1146.819,551.288 
		1141.408,554.332 1128.076,564.14 1124.744,566.35 1118.523,571.206 1116.935,572.322 1105.218,581.672 1102.138,583.871 
		1080.611,600.271 1074.672,604.306 1049.124,620.328 1041.671,624.524 1017.509,636.681 1010.125,640.066 983.602,651.568 
		975.14,654.964 965.463,658.853 962.297,660.04 943.775,667.077 937.566,669.292 928.821,672.422 925.833,673.433 894.856,683.368 
		883.89,686.712 853.272,694.5 841.934,697.289 811.434,703.101 799.688,705.32 768.504,709.844 756.118,711.685 730.25,714.776 
		719.759,716.104 700.487,718.082 692.573,718.968 676.319,720.432 665.352,721.382 630.96,723.629 626.726,723.809 
		607.168,724.078 584.876,724.496 566.965,723.923 546.109,723.36 528.204,722.341 507.049,721.238 497.235,720.645 
		485.541,719.986 475.702,719.385 463.937,718.709 445.591,717.067 423.611,715.184 404.957,711.461 382.618,707.135 
		364.729,700.641 343.41,693.106 330.129,686.76 314.437,679.448 297.305,669.585 277.307,658.348 261.318,646.262 242.965,632.717 
		229.632,619.506 214.607,604.989 205.895,594.998 196.246,584.226 185.875,571.507 174.609,558.064 166.401,547.46 
		157.702,536.518 150.89,527.269 143.847,517.939 136.356,507.649 128.819,497.511 119.642,486.162 110.726,475.296 
		106.638,471.208 102.784,467.386 98.938,464.27 95.382,461.398 92.368,459.49 89.637,457.754 86.899,456.446 84.467,455.268 
		82.11,454.484 80.054,453.782 78.047,453.369 76.333,452.993 74.712,452.835 73.363,452.684 72.151,452.678 71.171,452.664 
		69.96,452.77 69,452.85 67.795,453.068 66.854,453.238 65.654,453.569 64.313,453.972 63.018,454.46 61.734,455.084 
		58.168,457.007 57.307,457.517 56.452,458.111 51.706,462.135 51.195,462.567 50.713,463.075 49.499,464.459 49.499,467.743 
		49.499,468.744 49.499,490.522 49.499,495.572 49.499,497.662 49.499,519.787 49.499,523.293 49.499,525.338 49.499,542.928 
		49.499,545.825 49.499,548.646 49.499,564.26 49.499,567.814 49.499,575.268 49.499,581.191 49.499,589.053 49.499,598.776 
		49.499,604.256 49.499,612.073 49.499,616.466 49.499,619.046 49.499,625.98 49.499,628.098 49.499,633.189 49.499,634.822 
		49.499,638.394 49.499,640.365 49.499,642.539 49.499,700.974 	"/>
	<polyline fill="none" stroke="#0000FF" stroke-width="1" stroke-miterlimit="10" points="2610.14,42.811 2610.14,145.677 
		2610.14,153.928 2527.846,153.928 2521.245,153.928 2521.245,51.062 2521.245,42.811 2482.671,42.811 2479.575,42.811 
		2479.575,145.677 2479.575,153.928 2321.562,153.928 351.664,153.928 351.664,51.062 351.664,42.811 313.089,42.811 
		309.995,42.811 309.995,145.677 309.995,153.928 227.701,153.928 221.1,153.928 221.1,51.062 221.1,42.811 66.8,42.811 
		54.423,42.811 54.423,74.38 54.423,75.694 54.423,116.342 54.423,125.28 54.423,139.364 54.423,158.688 54.423,186.515 
		54.423,228.373 54.423,241.521 54.423,255.536 54.423,287.818 54.423,330.701 54.423,359.933 54.423,395.033 57.208,394.709 
		93.801,390.204 95.967,388.869 101.337,385.074 107.261,381.42 115.583,375.536 122.286,371.351 131.845,364.614 152.292,352.244 
		181.8,332.238 191.856,326.849 206.385,318.001 215.819,313.796 229.399,306.747 238.521,303.701 251.647,298.428 261.067,296.26 
		274.717,292.326 285.012,290.695 300.104,287.573 311.514,286.272 328.46,283.635 340.885,282.606 359.562,280.371 
		372.712,279.661 392.674,277.907 419.841,277.764 461.584,276.258 488.323,278.18 529.992,280.011 555.421,283.854 
		595.538,288.898 610.443,291.872 634.165,296.043 660.985,302.208 703.98,311.168 720.507,315.458 747.183,321.893 
		757.164,324.733 773.343,329.072 792.244,335.094 823.036,344.469 839.488,350.43 866.523,359.881 881.634,365.884 
		906.712,375.506 920.314,381.24 943.093,390.483 955.217,395.712 975.635,404.173 986.688,408.823 1005.306,416.394 
		1014.116,419.837 1028.908,425.495 1037.548,428.485 1051.992,433.458 1060.514,435.907 1074.706,440.04 1083.017,441.86 
		1096.822,444.988 1104.725,446.147 1117.816,448.196 1125.083,448.755 1137.081,449.819 1143.499,449.88 1154.031,450.139 
		1167.859,449.852 1168.214,449.83 1168.405,449.817 1185.75,447.381 1198.463,444.777 1205.61,443.711 1217.828,440.163 
		1224.775,438.66 1242.114,431.963 1251.964,429.098 1269.951,420.279 1280.036,416.527 1297.853,406.056 1307.704,401.679 
		1317.57,395.279 1322.976,392.645 1327.462,389.668 1329.902,388.446 1338.269,382.913 1342.775,380.656 1357.788,371.281 
		1365.691,367.471 1387.007,356.11 1397.927,351.473 1404.292,348.527 1407.521,347.315 1424.438,340.397 1432.968,337.542 
		1449.343,332.035 1457.55,329.754 1475.11,325.097 1483.868,323.171 1499.404,320.646 1520.446,317.089 1529.331,315.913 
		1532.817,315.722 1545.226,315.189 1548.038,315.125 1558.198,315.117 1560.505,315.159 1571.675,315.562 1574.216,315.704 
		1588.142,316.805 1591.316,317.121 1606.204,319.037 1609.604,319.55 1620.388,321.418 1622.853,321.906 1638.387,325.304 
		1641.94,326.182 1665.037,332.727 1670.324,334.411 1681.392,338.148 1683.919,339.104 1695.132,343.272 1697.692,344.331 
		1707.929,348.46 1710.272,349.499 1720.589,353.965 1722.958,355.075 1733.337,359.858 1735.733,361.031 1746.155,366.107 
		1748.581,367.333 1761.017,373.698 1763.94,375.209 1776.384,381.835 1779.354,383.376 1790.97,389.696 1793.785,391.142 
		1804.61,397.065 1807.276,398.399 1818.06,404.255 1820.759,405.557 1832.917,412.022 1836.013,413.442 1848.108,419.661 
		1851.237,421.009 1875.491,432.646 1881.896,435.117 1906.135,445.413 1912.606,447.528 1926.063,452.577 1929.644,453.588 
		1947.664,459.527 1952.436,460.704 1968.079,465.064 1972.196,465.924 1983.313,468.579 1986.233,469.104 1997.166,471.36 
		2000.045,471.808 2010.72,473.676 2013.552,474.047 2023.927,475.538 2026.704,475.837 2036.754,476.962 2039.478,477.19 
		2049.223,477.96 2051.894,478.118 2061.37,478.543 2063.996,478.636 2073.25,478.729 2075.833,478.754 2081.962,478.639 
		2083.681,478.618 2089.724,478.363 2091.427,478.313 2099.52,477.771 2101.808,477.661 2111.737,476.702 2114.56,476.507 
		2124.667,475.215 2127.563,474.947 2139.223,473.079 2142.604,472.681 2154.387,470.399 2157.862,469.899 2179.989,464.634 
		2186.759,463.42 2200.733,459.543 2205.148,458.599 2211.905,456.604 2214.08,456.103 2227.152,452.085 2231.458,451.026 
		2255.978,443.164 2264.409,440.899 2292.573,431.696 2302.718,428.727 2327.333,420.592 2336.521,417.715 2361.392,409.371 
		2370.985,406.221 2379.644,403.294 2383.028,402.155 2399.139,396.717 2405.575,394.527 2413.027,392.027 2416.042,390.996 
		2441.884,382.509 2452.7,378.828 2477.66,371.078 2488.511,367.479 2512.566,360.566 2523.371,357.142 2546.658,351 
		2557.383,347.794 2575.604,343.364 2584.126,340.97 2597.176,338.013 2603.343,336.374 2615.013,333.606 2622.092,332.123 
		2648.001,324.463 2652.135,323.51 2658.477,322.421 2685.517,316.767 2691.611,316.166 2718.071,312.767 2724.473,312.531 
		2752.719,310.91 2761.433,310.803 2766.802,310.833 2772.272,311.024 2776.817,311.245 2776.817,263.42 2776.817,239.665 
		2776.817,222.247 2776.817,197.885 2776.817,42.811 2622.517,42.811 2610.14,42.811 	"/>
</g>
<g id="follow_x5F_paths">
	<polyline fill="none" stroke="#DB2526" stroke-width="1" stroke-miterlimit="10" points="2687.161,1174.62 2680.872,1173.749 
		2665.149,1171.7 2659.321,1170.838 2650.062,1169.614 2646.631,1169.104 2629.492,1166.928 2623.115,1166.028 2612.004,1164.717 
		2607.837,1164.181 2600.877,1163.392 2598.258,1163.07 2584.639,1161.546 2579.511,1160.93 2567.373,1159.518 2562.831,1158.949 
		2551.613,1157.521 2547.468,1156.945 2537.179,1155.513 2533.438,1154.934 2523.692,1153.55 2520.195,1152.991 2510.331,1151.739 
		2506.8,1151.234 2498.036,1150.354 2494.876,1149.999 2485.484,1149.32 2482.073,1149.048 2472.104,1148.594 2468.467,1148.415 
		2458.13,1148.191 2454.355,1148.107 2443.954,1148.11 2440.175,1148.118 2429.982,1148.33 2426.311,1148.42 2416.564,1148.82 
		2413.104,1148.985 2401.45,1149.688 2400.877,1149.724 2400.768,1149.728 2400.644,1149.735 2399.978,1149.795 2384.772,1151.159 
		2373.192,1152.629 2367.788,1153.434 2357.009,1155.323 2352.056,1156.337 2336.603,1159.808 2329.576,1161.634 2312.659,1166.186 
		2305.001,1168.539 2287.325,1173.99 2279.437,1176.764 2269.3,1180.11 2264.851,1181.791 2260.157,1183.347 2258.108,1184.12 
		2249.226,1186.99 2245.349,1188.412 2229.179,1193.175 2222.073,1195.501 2199.759,1201.081 2189.798,1203.75 2183.458,1205.176 
		2180.604,1205.847 2164.569,1209.212 2157.308,1210.772 2142.722,1213.541 2136.059,1214.797 2121.125,1217.321 2114.245,1218.436 
		2100.933,1220.272 2084.85,1222.478 2081.009,1222.985 2074.786,1223.636 2069.552,1224.165 2062.073,1224.812 2057.701,1225.188 
		2051.458,1225.631 2046.577,1225.985 2039.614,1226.387 2033.415,1226.74 2024.577,1227.117 2017.793,1227.378 2008.126,1227.628 
		2003.094,1227.737 1995.915,1227.817 1988.456,1227.845 1977.806,1227.803 1966.259,1227.527 1949.675,1227.086 1943.982,1226.8 
		1935.744,1226.397 1929.919,1225.988 1921.438,1225.423 1916.113,1224.932 1908.311,1224.252 1902.987,1223.629 1895.138,1222.757 
		1889.878,1221.989 1882.076,1220.898 1876.944,1219.974 1869.29,1218.642 1863.429,1217.329 1854.644,1215.413 1849.126,1213.876 
		1840.825,1211.606 1836.027,1209.982 1828.798,1207.57 1824.64,1205.911 1818.392,1203.44 1814.546,1201.664 1808.794,1199.022 
		1804.778,1196.896 1798.824,1193.743 1795.118,1191.521 1789.667,1188.237 1782.812,1183.536 1772.759,1176.646 1766.142,1171.817 
		1756.153,1164.801 1752.323,1162.187 1746.31,1158.412 1740.743,1155.115 1731.778,1150.397 1726.373,1147.817 1717.597,1144.165 
		1713.376,1142.524 1706.595,1140.227 1702.132,1138.786 1695.094,1136.788 1690.446,1135.566 1683.3,1133.887 1678.542,1132.896 
		1671.418,1131.544 1666.618,1130.794 1659.626,1129.777 1654.846,1129.274 1648.026,1128.597 1643.307,1128.346 1636.661,1128.003 
		1632.038,1128.001 1625.559,1127.987 1622.51,1128.122 1618.233,1128.29 1615.257,1128.528 1611.056,1128.831 1607.155,1129.312 
		1601.61,1129.924 1597.021,1130.756 1590.411,1131.809 1585.982,1132.905 1579.522,1134.287 1574.728,1135.831 1567.661,1137.766 
		1563.149,1139.589 1556.472,1141.855 1548.727,1145.808 1537.416,1150.659 1532.825,1153.357 1526.386,1156.604 1524.188,1157.926 
		1521.208,1159.493 1516.897,1162.035 1511.274,1164.999 1502.593,1169.554 1492.099,1174.654 1480.475,1179.411 1467.722,1184.368 
		1455.684,1188.208 1443.499,1191.92 1429.395,1195.604 1416.051,1198.957 1410.713,1200.188 1405.874,1201.271 1395.38,1203.479 
		1386.183,1205.373 1381.117,1206.346 1376.808,1207.161 1358.294,1210.254 1343.234,1212.747 1324.167,1215.216 1309.594,1217.083 
		1289.545,1218.949 1275.123,1220.273 1252.684,1221.612 1237.565,1222.525 1216.837,1223.229 1203.683,1223.725 1186.833,1224.001 
		1176.576,1224.225 1153.729,1224.331 1148.527,1224.373 1136.313,1224.265 1108.294,1223.907 1090.045,1223.27 1066.313,1222.558 
		1050.138,1221.608 1029.204,1220.493 1013.94,1219.247 994.082,1217.784 986.252,1217.01 975.939,1216.112 968.526,1215.275 
		958.634,1214.315 945.964,1212.479 928.677,1210.344 917.111,1207.773 900.852,1204.627 890.668,1201.261 875.969,1196.938 
		868.752,1193.973 858.15,1190.068 849.071,1185.766 835.551,1179.977 827.278,1175.233 814.787,1168.635 808.082,1163.917 
		797.828,1157.131 793.547,1153.709 786.932,1148.685 781.846,1144.392 773.934,1137.999 769.75,1134.505 763.222,1129.209 
		759.513,1126.293 753.708,1121.777 749.297,1118.693 742.368,1113.811 736.45,1110.579 727.075,1105.341 724.24,1104.224 
		719.702,1102.377 716.885,1101.559 712.352,1100.187 710.004,1099.724 706.208,1098.932 703.912,1098.665 700.2,1098.188 
		698.021,1098.102 694.504,1097.914 692.394,1097.972 689,1098.014 686.969,1098.19 683.722,1098.42 681.991,1098.654 
		679.229,1098.975 677.447,1099.283 674.588,1099.715 672.758,1100.1 669.808,1100.646 667.943,1101.104 664.914,1101.763 
		662.741,1102.381 659.18,1103.276 656.992,1103.981 653.368,1105.021 651.264,1105.78 647.724,1106.914 645.646,1107.741 
		642.087,1108.992 638.157,1110.748 631.274,1113.458 627.592,1115.286 620.911,1118.199 618.558,1119.418 614.165,1121.422 
		610.708,1123.216 604.125,1126.245 599.56,1128.523 590.654,1132.519 587.203,1134.13 580.301,1137.075 576.635,1138.664 
		569.177,1141.669 566.708,1142.66 561.6,1144.592 557.106,1146.222 547.672,1149.491 545.28,1150.262 540.153,1151.866 
		537.653,1152.6 532.229,1154.162 529.622,1154.85 523.888,1156.354 521.174,1156.987 515.117,1158.416 509.376,1159.499 
		496.33,1162.048 492.214,1162.628 482.532,1164.097 478.337,1164.536 468.19,1165.731 464,1166.031 453.548,1166.945 
		449.463,1167.119 438.914,1167.76 433.301,1167.835 418.175,1168.357 413.281,1168.286 399.224,1168.443 397.24,1168.379 
		391.186,1168.363 389.343,1168.284 383.531,1168.222 380.945,1168.074 372.487,1167.888 368.554,1167.573 355.072,1167.008 
		351.157,1166.593 336.901,1165.644 334.029,1165.272 322.864,1164.307 321.197,1164.062 314.328,1163.371 312.173,1163.013 
		302.875,1161.96 300.523,1161.519 289.706,1160.142 288.205,1159.846 280.828,1158.859 279.355,1158.573 271.815,1157.582 
		270.541,1157.347 263.757,1156.505 262.489,1156.289 255.494,1155.498 254.045,1155.28 245.753,1154.474 244.33,1154.293 
		235.83,1153.637 234.43,1153.496 225.697,1153.016 224.301,1152.914 215.233,1152.616 212.768,1152.52 196.125,1152.411 
		194.859,1152.394 185.786,1152.515 184.482,1152.514 174.834,1152.741 173.159,1152.762 160.375,1153.185 158.64,1153.224 
		144.912,1153.796 143.131,1153.853 	"/>
	<polyline fill="none" stroke="#DB2526" stroke-width="1" stroke-miterlimit="10" points="2680.23,753.8 2679.245,753.731 
		2663.459,752.938 2662.456,752.86 2646.357,751.89 2645.341,751.804 2628.938,750.669 2627.913,750.575 2611.242,749.292 
		2610.219,749.192 2593.36,747.78 2592.347,747.673 2575.436,746.142 2574.437,746.03 2557.614,744.392 2555.692,744.154 
		2522.866,740.599 2521.068,740.352 2489.869,736.523 2488.181,736.276 2458.499,732.324 2457.497,732.177 2439.727,729.774 
		2437.843,729.515 2404.419,725.175 2403.184,725.021 2381.228,722.361 2380.45,722.268 2366.621,720.65 2365.093,720.47 
		2337.938,717.305 2336.583,717.138 2312.355,714.165 2311.118,713.996 2288.803,710.965 2287.692,710.795 2267.431,707.74 
		2266.4,707.573 2247.551,704.612 2246.526,704.461 2227.874,701.753 2226.972,701.646 2210.743,699.705 2209.786,699.621 
		2192.699,698.075 2191.694,698.019 2173.899,696.918 2172.874,696.888 2154.828,696.257 2153.819,696.254 2136.166,696.083 
		2135.209,696.104 2118.542,696.363 2117.667,696.406 2102.499,697.053 2098.06,697.354 2088.281,698.168 2085.613,698.409 
		2070.972,700.11 2056.315,702.687 2053.219,703.207 2040.152,706.4 2037.369,707.051 2019.138,712.728 2015.241,713.896 
		1995.547,721.105 1991.343,722.599 1971.466,730.982 1967.214,732.728 1956.244,737.752 1953.89,738.804 1948.869,741.105 
		1947.79,741.588 1938.259,745.778 1936.21,746.66 1918.356,753.427 1914.516,754.861 1888.479,762.435 1882.856,764.053 
		1875.197,765.913 1873.534,766.312 1853.696,770.55 1849.374,771.463 1830.724,774.74 1826.636,775.446 1806.93,778.2 
		1802.597,778.795 1784.25,780.603 1768.736,782.046 1763.897,782.451 1757.798,782.969 1746.2,783.701 1743.653,783.856 
		1734.073,784.353 1731.978,784.456 1721.365,784.894 1719.054,784.984 1705.691,785.382 1702.789,785.462 1688.292,785.717 
		1685.161,785.766 1674.463,785.85 1672.163,785.862 1656.354,785.844 1652.978,785.83 1628.38,785.467 1623.177,785.374 
		1610.911,785.013 1608.331,784.928 1595.636,784.381 1592.981,784.259 1581.233,783.55 1578.785,783.397 1566.89,782.428 
		1564.418,782.222 1552.51,780.938 1550.042,780.67 1538.274,779.023 1535.839,778.687 1522.236,776.224 1519.423,775.724 
		1506.489,772.721 1503.813,772.117 1492.515,768.873 1490.17,768.229 1480.405,764.885 1478.37,764.224 1469.416,760.653 
		1467.538,759.95 1458.329,755.714 1456.384,754.884 1448.011,750.514 1446.227,749.662 1430.716,740.606 1427.384,738.852 
		1411.271,729.76 1407.83,728.006 1397.645,723.171 1395.502,722.241 1379.909,716.276 1376.67,715.129 1361.361,710.597 
		1358.208,709.724 1346.577,706.919 1344.188,706.377 1332.416,703.971 1329.999,703.506 1318.436,701.502 1316.055,701.113 
		1304.948,699.511 1302.649,699.197 1292.133,697.984 1289.941,697.746 1279.976,696.914 1277.883,696.747 1268.312,696.282 
		1266.288,696.188 1256.932,696.075 1254.939,696.051 1248.676,696.164 1247.337,696.184 1241.083,696.439 1239.741,696.489 
		1231.219,697.052 1229.378,697.161 1218.73,698.185 1216.403,698.39 1205.435,699.789 1203.002,700.073 1190.352,702.104 
		1187.499,702.524 1174.912,704.995 1172.01,705.517 1149.467,711.086 1144.055,712.303 1130.72,716.227 1127.389,717.111 
		1121.171,719.053 1119.58,719.5 1107.862,723.24 1104.783,724.118 1083.257,730.679 1077.318,732.294 1051.768,738.702 
		1044.317,740.381 1020.154,745.242 1012.771,746.598 986.249,751.198 977.787,752.556 968.109,754.112 964.943,754.587 
		946.421,757.402 940.212,758.287 931.469,759.539 928.478,759.944 897.5,763.918 886.535,765.256 855.917,768.371 844.579,769.485 
		814.081,771.812 802.333,772.699 771.15,774.508 758.764,775.245 732.894,776.481 722.403,777.012 703.132,777.804 
		695.219,778.158 678.965,778.744 667.997,779.123 633.607,780.022 629.372,780.094 609.813,780.202 587.521,780.369 
		569.611,780.14 548.755,779.915 530.85,779.507 509.695,779.065 499.882,778.828 488.188,778.565 478.348,778.325 466.583,778.055 
		448.235,777.397 426.257,776.645 407.604,775.155 385.264,773.425 367.375,770.827 346.055,767.812 332.774,765.274 
		317.083,762.35 299.95,758.405 279.952,753.909 263.964,749.076 245.61,743.657 232.278,738.373 217.253,732.566 208.54,728.569 
		198.892,724.26 188.521,719.173 177.255,713.796 169.048,709.555 160.348,705.177 153.536,701.479 146.494,697.747 139,693.631 	
		"/>
	<polyline fill="none" stroke="#DB2526" stroke-width="1" stroke-miterlimit="10" points="131.976,235.943 152.423,230.996 
		181.932,222.993 191.988,220.838 206.518,217.299 215.95,215.616 229.531,212.797 238.651,211.579 251.78,209.471 261.2,208.603 
		274.847,207.029 285.142,206.377 300.235,205.127 311.646,204.606 328.593,203.552 341.018,203.141 359.694,202.246 
		372.845,201.963 392.806,201.261 419.972,201.203 461.716,200.602 488.456,201.37 530.122,202.103 555.553,203.64 595.668,205.657 
		610.576,206.848 634.296,208.515 661.117,210.982 704.113,214.565 720.638,216.281 747.313,218.854 757.294,219.992 
		773.475,221.728 792.376,224.136 823.168,227.886 839.62,230.271 866.655,234.051 881.767,236.452 906.843,240.3 920.446,242.595 
		943.223,246.291 955.351,248.383 975.768,251.768 986.821,253.628 1005.438,256.655 1014.249,258.034 1029.04,260.296 
		1037.677,261.492 1052.124,263.481 1060.645,264.461 1074.837,266.115 1083.149,266.843 1096.952,268.094 1104.856,268.558 
		1117.948,269.377 1125.218,269.601 1137.211,270.025 1143.632,270.051 1154.163,270.153 1167.992,270.039 1168.346,270.031 
		1168.536,270.025 1185.883,269.051 1198.594,268.01 1205.743,267.583 1217.959,266.163 1224.908,265.562 1242.246,262.884 
		1252.096,261.737 1270.082,258.21 1280.167,256.709 1297.985,252.521 1307.834,250.77 1317.701,248.211 1323.107,247.156 
		1327.594,245.966 1330.034,245.478 1338.4,243.263 1342.906,242.361 1357.921,238.611 1365.823,237.086 1387.139,232.542 
		1398.059,230.688 1404.426,229.509 1407.653,229.024 1424.569,226.258 1433.099,225.116 1449.474,222.913 1457.68,222 
		1475.243,220.138 1484.001,219.367 1499.536,218.357 1520.577,216.934 1529.463,216.464 1532.95,216.388 1545.356,216.174 
		1548.171,216.148 1558.33,216.145 1560.636,216.162 1571.808,216.323 1574.348,216.38 1588.274,216.82 1591.446,216.946 
		1606.335,217.713 1609.736,217.919 1620.521,218.665 1622.983,218.86 1638.519,220.22 1642.072,220.572 1665.17,223.188 
		1670.456,223.862 1681.523,225.357 1684.052,225.74 1695.263,227.407 1697.825,227.831 1708.06,229.481 1710.404,229.898 
		1720.722,231.685 1723.091,232.129 1733.468,234.041 1735.865,234.511 1746.286,236.541 1748.713,237.031 1761.148,239.578 
		1764.073,240.182 1776.517,242.832 1779.487,243.448 1791.101,245.978 1793.917,246.556 1804.741,248.925 1807.407,249.459 
		1818.191,251.8 1820.89,252.32 1833.048,254.907 1836.146,255.475 1848.24,257.963 1851.369,258.502 1875.622,263.157 
		1882.027,264.146 1906.267,268.264 1912.737,269.109 1926.196,271.13 1929.775,271.534 1947.796,273.909 1952.568,274.38 
		1968.212,276.124 1972.329,276.468 1983.444,277.53 1986.366,277.739 1997.298,278.643 2000.177,278.821 2010.853,279.569 
		2013.684,279.717 2024.059,280.313 2026.835,280.434 2036.887,280.884 2039.61,280.974 2049.354,281.282 2052.024,281.345 
		2061.503,281.516 2064.126,281.552 2073.384,281.59 2075.964,281.6 2082.094,281.554 2083.812,281.546 2089.856,281.443 
		2091.558,281.424 2099.649,281.206 2101.939,281.163 2111.87,280.778 2114.692,280.701 2124.8,280.185 2127.695,280.077 
		2139.353,279.33 2142.735,279.171 2154.519,278.258 2157.995,278.059 2180.121,275.951 2186.892,275.467 2200.866,273.915 
		2205.279,273.538 2212.038,272.739 2214.21,272.539 2227.284,270.933 2231.591,270.51 2256.108,267.364 2264.541,266.458 
		2292.704,262.777 2302.849,261.588 2327.464,258.334 2336.653,257.184 2361.524,253.847 2371.118,252.586 2379.775,251.416 
		2383.161,250.96 2399.269,248.785 2405.706,247.909 2413.157,246.909 2416.175,246.497 2442.015,243.103 2452.831,241.63 
		2477.793,238.529 2488.642,237.09 2512.697,234.324 2523.502,232.956 2546.791,230.498 2557.514,229.216 2575.737,227.444 
		2584.26,226.486 2597.307,225.304 2603.474,224.648 2615.144,223.54 2622.224,222.947 2648.134,219.884 2652.265,219.502 
		2658.608,219.067 2685.648,216.805 	"/>
</g>
<g id="pockets">
</g>
<g id="ids">
	<line fill="none" stroke="#622B8A" stroke-miterlimit="10" x1="612.551" y1="1177.822" x2="612.551" y2="1156.031"/>
	<polyline fill="none" stroke="#622B8A" stroke-miterlimit="10" points="555.538,1098.089 653.554,1098.089 631.758,1076.299 	"/>
	<polyline fill="none" stroke="#622B8A" stroke-miterlimit="10" points="555.538,1156.636 653.554,1178.425 653.554,1134.839 	"/>
	<polyline fill="none" stroke="#622B8A" stroke-miterlimit="10" points="2256.427,779.93 2256.427,779.93 2255.573,782.207 
		2255.151,784.545 2255.139,786.886 2255.521,789.181 2256.28,791.374 2257.397,793.416 2258.859,795.252 2260.644,796.827 
		2262.737,798.094 2271.575,801.869 2280.669,804.699 2289.944,806.589 2299.331,807.532 2308.759,807.532 2318.149,806.589 
		2327.434,804.699 2336.538,801.869 2345.392,798.094 2346.286,797.614 2347.14,797.068 2347.952,796.466 2348.716,795.805 
		2349.427,795.091 2350.081,794.331 2350.677,793.527 2351.206,792.686 2351.669,791.805 2352.538,789.51 2352.976,787.159 
		2352.999,784.807 2352.622,782.506 2351.868,780.309 2350.747,778.265 2349.284,776.429 2347.491,774.852 2345.387,773.587 
		2336.552,769.829 2327.46,767.012 2318.185,765.132 2308.797,764.192 2299.37,764.192 2289.979,765.132 2280.692,767.012 
		2271.587,769.829 2262.732,773.587 2261.841,774.065 2260.989,774.604 2260.185,775.206 2259.427,775.862 2258.718,776.574 
		2258.059,777.34 2257.456,778.155 2256.909,779.021 2256.427,779.93 	"/>
	<polyline fill="none" stroke="#622B8A" stroke-miterlimit="10" points="558.183,1097.485 656.199,1097.485 634.403,1075.695 	"/>
	<polyline fill="none" stroke="#622B8A" stroke-miterlimit="10" points="558.183,1156.031 656.199,1177.822 656.199,1134.235 	"/>
	<polyline fill="none" stroke="#622B8A" stroke-miterlimit="10" points="2255.062,728.037 2255.062,684.505 2319.817,724.729 
		2319.878,724.777 2319.937,724.823 2319.998,724.867 2320.06,724.911 2320.125,724.953 2320.192,724.993 2320.263,725.035 
		2320.335,725.075 2320.413,725.116 2323.979,726.777 2327.677,727.748 2331.419,728.05 2335.126,727.711 2338.714,726.752 
		2342.095,725.198 2345.192,723.071 2347.918,720.397 2350.188,717.199 2351.825,713.624 2352.781,709.922 2353.076,706.176 
		2352.732,702.469 2351.771,698.886 2350.213,695.505 2348.081,692.414 2345.396,689.692 2342.179,687.424 2336.696,684.566 	"/>
	<polyline fill="none" stroke="#622B8A" stroke-miterlimit="10" points="2174.903,316.61 2174.903,360.142 2110.148,319.917 
		2110.089,319.869 2110.028,319.821 2109.968,319.777 2109.905,319.735 2109.841,319.693 2109.772,319.651 2109.702,319.611 
		2109.629,319.571 2109.552,319.529 2105.985,317.869 2102.289,316.898 2098.546,316.595 2094.839,316.936 2091.251,317.895 
		2087.869,319.448 2084.772,321.575 2082.048,324.249 2079.776,327.447 2078.14,331.022 2077.184,334.725 2076.89,338.471 
		2077.233,342.176 2078.195,345.761 2079.753,349.14 2081.884,352.232 2084.569,354.952 2087.786,357.221 2093.269,360.08 	"/>
	<polyline fill="none" stroke="#622B8A" stroke-miterlimit="10" points="2153.114,233.571 2153.114,287.995 2076.888,266.26 	"/>
</g>
</svg>
